<?xml version="1.0" encoding="iso-8859-1"?>
<!-- Generator: Adobe Illustrator 9.0, SVG Export Plug-In  -->
<!DOCTYPE svg PUBLIC "-//W3C//DTD SVG 20000303 Stylable//EN"   "http://www.w3.org/TR/2000/03/WD-SVG-20000303/DTD/svg-20000303-stylable.dtd" [
	<!ENTITY st0 "fill:url(#aigrd1);">
	<!ENTITY st1 "fill:url(#aigrd2);">
	<!ENTITY st2 "fill:url(#aigrd3);">
	<!ENTITY st3 "fill:url(#aigrd4);">
	<!ENTITY st4 "fill:url(#aigrd6);">
	<!ENTITY st5 "fill:url(#aigrd8);">
	<!ENTITY st6 "opacity:0.75;">
	<!ENTITY st7 "opacity:0.3;fill:url(#aigrd9);">
	<!ENTITY st8 "opacity:0.15;fill:#000047;">
	<!ENTITY st9 "opacity:0.46;fill:url(#aigrd7);">
	<!ENTITY st10 "opacity:0.6;fill:url(#aigrd5);">
	<!ENTITY st11 "opacity:0.2;fill:#000000;stroke:none;">
	<!ENTITY st12 "fill:none;stroke:none;">
	<!ENTITY st13 "fill-rule:nonzero;clip-rule:nonzero;fill:#FFFFFF;stroke:#FFFFFF;stroke-width:0;stroke-miterlimit:4;">
	<!ENTITY st14 "stroke:none;">
]>
<svg  width="48pt" height="48pt" viewBox="0 0 144 144" xml:space="preserve">
	<g id="Layer_x0020_2" style="&st13;">
		<path style="&st12;" d="M144,144H0V0h144v144z"/>
		<path style="&st11;" d="M142.619,92.638L110.871,15.87c-0.402-0.974-1.182-1.747-2.16-2.139c-0.979-0.393-2.074-0.376-3.039,0.051l-27.213,12.03c-1.421,0.628-2.329,2.028-2.329,3.574c0,0.011,0.021,0.784,0.052,1.907l-18.051-7.34
			c-1.477-0.602-3.17-0.246-4.281,0.897L6.93,73.137c-0.895,0.922-1.281,2.223-1.033,3.482c0.248,1.262,1.098,2.32,2.275,2.834l18.37,8.021l-7.802,4.174c-1.121,0.6-1.879,1.705-2.037,2.967c-0.159,1.26,0.305,2.52,1.242,3.377l43.857,40.089
			c1.235,1.129,3.045,1.349,4.512,0.546l73.919-40.408c0.447-0.244,0.815-0.586,1.13-0.971c1.397-1.061,1.945-2.946,1.256-4.61z"/>
		<g style="&st14;">
			<path id="path7" d="M59.217,131.637L14.252,90.533l-0.18-1.085l75.835-40.565l45.499,41.104l-76.189,41.65z"/>
			<linearGradient id="aigrd1" gradientUnits="userSpaceOnUse" x1="19.8828" y1="91.0132" x2="134.8701" y2="91.0132">
				<stop  offset="0" style="stop-color:#CFF0FF"/>
				<stop  offset="1" style="stop-color:#6DB8FF"/>
			</linearGradient>
			<path id="path11" style="&st0;" d="M62.666,129.227L20.053,91.266l-0.17-1.003l71.865-37.464l43.122,37.959l-72.204,38.469z"/>
			<linearGradient id="aigrd2" gradientUnits="userSpaceOnUse" x1="92.4307" y1="97.6382" x2="42.7989" y2="77.1293">
				<stop  offset="0" style="stop-color:#0032A4"/>
				<stop  offset="1" style="stop-color:#3995E5"/>
			</linearGradient>
			<path style="&st1;" d="M92.355,47.463l43.576,39.367c0.941,0.85,1.412,2.104,1.264,3.363s-0.896,2.37-2.01,2.979L61.268,133.58c-1.468,0.803-3.277,0.583-4.512-0.545L12.898,92.946c-0.938-0.857-1.402-2.117-1.243-3.378s0.917-2.366,2.038-2.966l74.189-39.687
				c1.457-0.779,3.246-0.56,4.473,0.548z M89.729,50.368c-1.44,0.77-72.45,38.757-74.191,39.687c0.919,0.838,42.637,38.976,43.857,40.089c1.444-0.787,71.016-38.822,73.914-40.406c-2.407-2.173-42.395-38.299-43.578-39.37l-0.002,0.001z"/>
			<path id="path20" style="&st8;" d="M102.805,61.723l-35.592,44.708L21.156,86.969l69.576-34.996l12.072,9.75z"/>
			<path id="path21" d="M50.485,22.96l55.546,22.589L63.406,98.047L3.107,71.717L50.485,22.96z"/>
			<linearGradient id="aigrd3" gradientUnits="userSpaceOnUse" x1="0.8496" y1="59.8013" x2="110.4102" y2="59.8013">
				<stop  offset="0" style="stop-color:#BFBFBF"/>
				<stop  offset="1" style="stop-color:#7084CC"/>
			</linearGradient>
			<path style="&st2;" d="M48.803,19.804L1.883,68.09c-0.895,0.921-1.281,2.223-1.033,3.482c0.247,1.261,1.098,2.319,2.274,2.834l59.715,26.074c1.612,0.704,3.496,0.246,4.606-1.119l42.212-51.99c0.782-0.964,1.062-2.24,0.753-3.441s-1.168-2.186-2.317-2.652
				L53.084,18.906c-1.477-0.601-3.171-0.245-4.281,0.898z"/>
			<path d="M51.609,22.532l55.009,22.372L64.405,96.893L4.69,70.818l46.919-48.286z"/>
			<linearGradient id="aigrd4" gradientUnits="userSpaceOnUse" x1="20.6514" y1="58.9077" x2="77.5928" y2="58.9077">
				<stop  offset="0" style="stop-color:#FFFFFF"/>
				<stop  offset="1" style="stop-color:#DFDFEC"/>
			</linearGradient>
			<path id="path25" style="&st3;" d="M51.77,27.608l46.65,18.865L62.914,90.209L12.678,68.275L51.77,27.606v0.002z"/>
			<linearGradient id="aigrd5" gradientUnits="userSpaceOnUse" x1="35.2422" y1="64.311" x2="93.5708" y2="72.5198">
				<stop  offset="0" style="stop-color:#FFFFFF"/>
				<stop  offset="0.2022" style="stop-color:#CDF8FF"/>
				<stop  offset="1" style="stop-color:#0074FF"/>
			</linearGradient>
			<path style="&st10;" d="M74.119,36.583l-0.357-13.037l29.085-12.857l32.652,78.957l-75.478,41.288L29.333,57.953l44.786-21.369z"/>
			<linearGradient id="aigrd6" gradientUnits="userSpaceOnUse" x1="73.8438" y1="108.4019" x2="127.6324" y2="82.4796">
				<stop  offset="0" style="stop-color:#FFFFFF"/>
				<stop  offset="1" style="stop-color:#B1B1C5"/>
			</linearGradient>
			<path id="path38" style="&st4;" d="M126.39,67.293l-76.55,38.391l10.005,25.25l75.835-40.93l-9.29-22.711z"/>
			<path id="path39" style="&st6;" d="M77.706,39.252l-0.342-12.44l27.181-12.015l-1.698-4.108L73.762,23.546l0.357,13.037L29.333,57.953l30.688,72.981l4.002-2.19L34.965,59.645l42.741-20.393z"/>
			<linearGradient id="aigrd7" gradientUnits="userSpaceOnUse" x1="87.2275" y1="113.1079" x2="121.3573" y2="93.2346">
				<stop  offset="0" style="stop-color:#FFFFFF"/>
				<stop  offset="0.1066" style="stop-color:#DDDDE7"/>
				<stop  offset="0.2778" style="stop-color:#AEAEC4"/>
				<stop  offset="0.4407" style="stop-color:#8888A9"/>
				<stop  offset="0.5909" style="stop-color:#6D6D96"/>
				<stop  offset="0.7239" style="stop-color:#5D5D8A"/>
				<stop  offset="0.8258" style="stop-color:#575786"/>
			</linearGradient>
			<path id="path43" style="&st9;" d="M134.839,85.161l-75.876,40.315l1.859,3.864l75.836-40.928l-1.819-3.252z"/>
			<linearGradient id="aigrd8" gradientUnits="userSpaceOnUse" x1="104.9521" y1="79.8618" x2="37.8989" y2="53.9456">
				<stop  offset="0" style="stop-color:#0032A4"/>
				<stop  offset="1" style="stop-color:#3995E5"/>
			</linearGradient>
			<path style="&st5;" d="M103.664,8.683c0.979,0.393,1.758,1.166,2.16,2.14l31.748,76.768c0.764,1.847,0.016,3.977-1.737,4.936l-73.341,40.119c-0.973,0.531-2.123,0.627-3.17,0.262c-1.045-0.365-1.887-1.156-2.316-2.178L27.297,60.081
				c-0.208-0.495-0.307-1.01-0.307-1.518c0-1.465,0.826-2.863,2.229-3.532c0,0,34.345-16.39,42.15-20.114c-0.008-0.292-0.287-10.541-0.287-10.577c0-1.546,0.908-2.946,2.329-3.575l27.214-12.03c0.965-0.427,2.06-0.444,3.039-0.051z M102.205,12.317
				c-2.025,0.893-25.842,11.422-27.207,12.027c0.037,1.453,0.333,12.229,0.333,12.239c0,0.476-0.271,0.911-0.696,1.112c0,0-41.711,19.902-43.729,20.867c0.875,2.08,28.719,68.291,29.709,70.646c2.236-1.223,71.484-39.103,73.342-40.118
				c-0.818-1.974-30.844-74.571-31.752-76.774z"/>
			<linearGradient id="aigrd9" gradientUnits="userSpaceOnUse" x1="70.8623" y1="54.1187" x2="105.8568" y2="73.56">
				<stop  offset="0" style="stop-color:#A8DCFF"/>
				<stop  offset="0.3202" style="stop-color:#3C64B4"/>
				<stop  offset="0.9888" style="stop-color:#000000"/>
			</linearGradient>
			<path id="path52" style="&st7;" d="M53.443,103.654c0,0-2.049-26.173,27.981-43.589c29.966-17.38,20.78-47.747,20.78-47.747L125.07,67.51l-71.627,36.144z"/>
		</g>
	</g>
</svg>
