<?xml version="1.0" encoding="iso-8859-1"?>
<!-- Generator: Adobe Illustrator 9.0, SVG Export Plug-In  -->
<!DOCTYPE svg PUBLIC "-//W3C//DTD SVG 20000303 Stylable//EN"   "http://www.w3.org/TR/2000/03/WD-SVG-20000303/DTD/svg-20000303-stylable.dtd" [
	<!ENTITY st0 "opacity:0.6;fill:url(#aigrd4);stroke:none;">
	<!ENTITY st1 "fill:url(#aigrd1);stroke:none;">
	<!ENTITY st2 "fill:url(#aigrd11);stroke:none;">
	<!ENTITY st3 "fill:url(#aigrd9);stroke:none;">
	<!ENTITY st4 "fill:url(#aigrd6);stroke:none;">
	<!ENTITY st5 "opacity:0.6;fill:url(#aigrd3);stroke:none;">
	<!ENTITY st6 "fill:url(#aigrd13);stroke:none;">
	<!ENTITY st7 "fill:url(#aigrd10);stroke:none;">
	<!ENTITY st8 "opacity:0.6;fill:url(#aigrd8);stroke:none;">
	<!ENTITY st9 "fill:url(#aigrd5);stroke:none;">
	<!ENTITY st10 "fill:url(#aigrd2);stroke:none;">
	<!ENTITY st11 "fill:none;stroke:none;">
	<!ENTITY st12 "fill:url(#aigrd12);stroke:none;">
	<!ENTITY st13 "fill-rule:nonzero;clip-rule:nonzero;fill:#FFFFFF;stroke:#FFFFFF;stroke-width:0;stroke-miterlimit:4;">
	<!ENTITY st14 "fill:url(#aigrd7);stroke:none;">
	<!ENTITY st15 "stroke:none;">
]>
<svg  width="48pt" height="48pt" viewBox="0 0 144 144" xml:space="preserve">
	<g id="Layer_x0020_1" style="&st13;">
		<path style="&st11;" d="M144,144H0V0h144v144z"/>
		<linearGradient id="aigrd1" gradientUnits="userSpaceOnUse" x1="65.6353" y1="123.8452" x2="65.6353" y2="89.8706">
			<stop  offset="0" style="stop-color:#FFFFFF"/>
			<stop  offset="1" style="stop-color:#B1B1C5"/>
		</linearGradient>
		<path style="&st1;" d="M65.635,131.262c19.377,0,35.632-8.959,40.107-21.049c-4.476-12.088-20.73-21.046-40.107-21.046s-35.632,8.958-40.107,21.046c4.475,12.09,20.73,21.049,40.107,21.049z"/>
		<linearGradient id="aigrd2" gradientUnits="userSpaceOnUse" x1="55.312" y1="110.0454" x2="85.6151" y2="92.4003">
			<stop  offset="0" style="stop-color:#FFFFFF"/>
			<stop  offset="1" style="stop-color:#797E81"/>
		</linearGradient>
		<path style="&st10;" d="M65.788,89.77c21.912,0,39.468,11.195,39.468,24.992c0,0.564,0.055,1.123,0.066,1.291v-11.874c0.016,0.023-0.066-0.663-0.066-1.349c0-13.795-17.557-24.991-39.468-24.991c-21.799,0-39.486,11.07-39.666,24.769h-0.031v11.93h0.031
			c0.18-13.697,17.867-24.768,39.666-24.768z"/>
		<linearGradient id="aigrd3" gradientUnits="userSpaceOnUse" x1="11.2246" y1="69.5259" x2="113.1453" y2="69.5259">
			<stop  offset="0" style="stop-color:#FFFFFF"/>
			<stop  offset="0.2022" style="stop-color:#CDF8FF"/>
			<stop  offset="1" style="stop-color:#0074FF"/>
		</linearGradient>
		<path style="&st5;" d="M65.329,8.024c-21.99,0-39.832,11.666-40.015,26.1h-0.03V96.5l0.059,15.556c0.047,0.361,0.445,1.039,0.694,1.592c3.995,9.469,18.556,16.38,35.659,17.271c1.203,0.069,2.42,0.108,3.651,0.108c1.296,0,2.577-0.045,3.842-0.122
			c0.385-0.021,0.767-0.051,1.148-0.078c0.086-0.008,0.172-0.014,0.257-0.02c15.934-1.234,29.509-7.711,33.708-16.541c0.892-1.613,0.85-2.367,0.85-2.367l0.057-16.58V35.781c0.018,0.025-0.066-0.699-0.066-1.42c0-14.538-17.71-26.336-39.813-26.336z"/>
		<linearGradient id="aigrd4" gradientUnits="userSpaceOnUse" x1="51.0425" y1="73.3491" x2="80.1213" y2="73.9953">
			<stop  offset="0" style="stop-color:#FFFFFF"/>
			<stop  offset="0.2022" style="stop-color:#CDF8FF"/>
			<stop  offset="0.75" style="stop-color:#005BCA"/>
		</linearGradient>
		<path style="&st0;" d="M73.084,18.387c-17.434,0-31.58,10.519-31.725,23.533h-0.025v56.241l0.047,14.026c0.038,0.325,0.353,0.937,0.552,1.436c3.166,8.537,14.71,14.769,28.272,15.571c0.952,0.064,1.918,0.098,2.893,0.098c1.029,0,2.043-0.039,3.047-0.109
			c0.305-0.019,0.608-0.045,0.91-0.071c0.068-0.006,0.137-0.011,0.203-0.017c12.635-1.112,23.397-6.953,26.727-14.915c0.707-1.453,0.674-2.134,0.674-2.134l0.045-14.95V43.413c0.014,0.024-0.053-0.628-0.053-1.28c0-13.109-14.041-23.746-31.566-23.746z"/>
		<linearGradient id="aigrd5" gradientUnits="userSpaceOnUse" x1="88.7559" y1="103.7085" x2="-10.3361" y2="103.7085">
			<stop  offset="0" style="stop-color:#FFFFFF"/>
			<stop  offset="1" style="stop-color:#B1B1C5"/>
		</linearGradient>
		<path style="&st9;" d="M104.77,97.778c-4.199,10.082-17.775,17.477-33.709,18.886c-0.084,0.008-0.171,0.015-0.256,0.022c-0.383,0.031-0.763,0.066-1.148,0.09c-1.266,0.09-2.546,0.139-3.843,0.139c-1.23,0-2.448-0.044-3.65-0.123
			c-17.104-1.02-31.665-8.909-35.658-19.718c-0.25-0.632-0.648-1.405-0.696-1.817L25.75,77.496V91.85l0.058,17.76c0.047,0.412,0.445,1.186,0.696,1.818c3.993,10.809,18.554,18.699,35.658,19.717c1.202,0.08,2.42,0.124,3.65,0.124c1.297,0,2.577-0.05,3.843-0.139
			c0.385-0.024,0.766-0.058,1.148-0.09c0.084-0.009,0.172-0.015,0.256-0.023c15.934-1.407,29.51-8.802,33.709-18.884c0.893-1.841,0.85-2.701,0.85-2.701l0.057-18.93V76.148l-0.057,18.929c0,0,0.043,0.861-0.85,2.701z"/>
		<linearGradient id="aigrd6" gradientUnits="userSpaceOnUse" x1="57.6406" y1="94.1665" x2="89.422" y2="75.6606">
			<stop  offset="0" style="stop-color:#FFFFFF"/>
			<stop  offset="1" style="stop-color:#797E81"/>
		</linearGradient>
		<path style="&st4;" d="M104.77,95.293c-4.199,9.693-17.775,16.803-33.709,18.158c-0.084,0.008-0.171,0.014-0.256,0.021c-0.383,0.029-0.763,0.063-1.148,0.086c-1.266,0.086-2.546,0.133-3.843,0.133c-1.23,0-2.448-0.041-3.65-0.117
			c-17.104-0.98-31.665-8.566-35.658-18.959c-0.25-0.607-0.648-1.351-0.696-1.748L25.75,75.792v3.422l0.058,17.075c0.047,0.396,0.445,1.141,0.696,1.749c3.993,10.393,18.554,17.979,35.658,18.957c1.202,0.076,2.42,0.119,3.65,0.119c1.297,0,2.577-0.049,3.843-0.133
			c0.385-0.023,0.766-0.057,1.148-0.086c0.084-0.01,0.172-0.015,0.256-0.023c15.934-1.354,29.51-8.463,33.709-18.156c0.893-1.77,0.85-2.598,0.85-2.598l0.057-18.201v-3.42l-0.057,18.199c0,0,0.043,0.829-0.85,2.598z"/>
		<linearGradient id="aigrd7" gradientUnits="userSpaceOnUse" x1="-5.1924" y1="-56.8916" x2="-70.7281" y2="-82.2213">
			<stop  offset="0" style="stop-color:#0032A4"/>
			<stop  offset="1" style="stop-color:#3995E5"/>
		</linearGradient>
		<path style="&st14;" d="M25.254,34.814l-0.029,62.394l0.057,15.561c0,0.061,0.004,0.122,0.011,0.182c0.063,0.49,0.305,0.988,0.564,1.514l0.228,0.483c4.072,9.878,18.548,17.162,36.009,18.093c-0.007,0,3.639,0.11,3.639,0.11l3.836-0.124
			c-0.007,0.001,0.977-0.068,0.977-0.068l0.422-0.031c16.376-1.299,29.732-8.09,34.039-17.305c0.855-1.598,0.982-2.571,0.982-2.991c0-0.009,0.055-16.599,0.055-16.599V36.488c0,0.047-0.035,0.083-0.039,0.129c0.01-0.081,0.033-0.147,0.033-0.24
			c0-0.067-0.003-0.138-0.009-0.211l-0.05-1.098c0-15.303-18.063-27.752-40.265-27.752c-22.121,0-40.271,12.336-40.459,27.498z M27.998,112.689v0.068v-0.068z M27.942,97.202v-62.37c0.197-13.602,17.129-24.685,37.771-24.685c20.705,0,37.548,11.181,37.548,24.921
			l0.059,1.315l0.01,0.138l-0.002,59.505l-0.057,16.575c-0.001,0.021-0.053,0.563-0.654,1.677c-0.014,0.024-0.026,0.051-0.041,0.077c-3.814,8.214-16.604,14.541-31.82,15.748c-0.004,0-0.409,0.03-0.409,0.03l-0.935,0.066c-0.006,0-3.68,0.119-3.68,0.119l-3.49-0.107
			c-16.201-0.861-30.047-7.613-33.675-16.414c-0.013-0.033-0.289-0.619-0.289-0.619s-0.239-0.529-0.281-0.619c-0.001-0.384-0.055-15.357-0.055-15.357z M105.809,37.258c-0.013,0.02-0.017,0.04-0.029,0.059c0.012-0.018,0.018-0.041,0.029-0.059z M105.986,112.525
			c0,0.026,0.002,0.085,0.002,0.085c0-0.031-0.002-0.061-0.002-0.085z M105.006,115.622c-0.01,0.018-0.013,0.029-0.023,0.047c0.014-0.026,0.027-0.053,0.04-0.078c-0.005,0.011-0.013,0.02-0.017,0.031z"/>
		<linearGradient id="aigrd8" gradientUnits="userSpaceOnUse" x1="105.7412" y1="33.375" x2="47.7018" y2="33.375">
			<stop  offset="0" style="stop-color:#FFFFFF"/>
			<stop  offset="0.2022" style="stop-color:#CDF8FF"/>
			<stop  offset="1" style="stop-color:#0074FF"/>
		</linearGradient>
		<path style="&st8;" d="M102.91,30.649c0.89,11.949-14.764,22.853-34.964,24.357c-20.201,1.506-37.297-6.959-38.188-18.909c-0.889-11.945,14.766-22.85,34.966-24.354c20.198-1.505,37.298,6.958,38.187,18.905z"/>
		<g>
			<path style="&st15;" d="M69.665,52.691c-21.05,1.169-38.626-7.072-39.256-18.409c-0.119-2.164,0.389-4.282,1.431-6.301c-2.433,2.914-3.724,6.122-3.54,9.432c0.63,11.339,18.206,19.581,39.256,18.412c17.035-0.947,30.226-9.397,34.647-17.975
				c-5.896,7.059-17.637,14.014-32.538,14.84z"/>
		</g>
		<g>
			<linearGradient id="aigrd9" gradientUnits="userSpaceOnUse" x1="367.7363" y1="126.0688" x2="396.0469" y2="126.0688" gradientTransform="matrix(-1 0 0 1 473.4414 0)">
				<stop  offset="0" style="stop-color:#FFFFFF"/>
				<stop  offset="1" style="stop-color:#8C8CA4"/>
			</linearGradient>
			<path style="&st3;" d="M98.627,115.216l-21.232,8.021l7.549,13.684l20.762-7.549l-7.078-14.155z"/>
			<linearGradient id="aigrd10" gradientUnits="userSpaceOnUse" x1="388.498" y1="130.0786" x2="397.541" y2="130.0786" gradientTransform="matrix(-1 0 0 1 473.4414 0)">
				<stop  offset="0" style="stop-color:#FFFFFF"/>
				<stop  offset="1" style="stop-color:#4B4B73"/>
			</linearGradient>
			<path style="&st7;" d="M84.943,136.92l-9.043-4.729l1.494-8.955l7.549,13.684z"/>
			<linearGradient id="aigrd11" gradientUnits="userSpaceOnUse" x1="-16.042" y1="-9.9131" x2="13.762" y2="-9.9131">
				<stop  offset="0" style="stop-color:#FFFFFF"/>
				<stop  offset="1" style="stop-color:#4B4B73"/>
			</linearGradient>
			<path style="&st2;" d="M100.526,114.267l8.142,16.284l-23.878,8.686l-11.239-5.877l1.949-11.678l24.17-9.129l0.856,1.714z M75.9,132.192l9.043,4.729l20.762-7.549l-7.078-14.155l-21.232,8.021l-1.494,8.955z"/>
		</g>
		<g>
			<path style="&st15;" d="M25.101,32.909c-0.055-13.317-0.055-13.317-0.055-13.317l41.315-2.557l39.604,6.164c0,0,0.325,0.523,0.063,13.176c-0.01,0.479,0.082,0.954,0.061,1.434c-0.424,10.119-18.897,17.226-41.262,15.873
				c-22.365-1.353-39.685-10.646-39.726-20.772z"/>
			<linearGradient id="aigrd12" gradientUnits="userSpaceOnUse" x1="-78.4888" y1="-146.313" x2="-5.3564" y2="-90.638">
				<stop  offset="0" style="stop-color:#FFFFFF"/>
				<stop  offset="1" style="stop-color:#4B4B73"/>
			</linearGradient>
			<path style="&st12;" d="M27.04,10.167c-3.014,2.722-4.682,5.939-4.822,9.307l-0.003,0.064L22.27,32.92c0.049,11.989,18.271,22.129,42.387,23.587c16.857,1.021,31.968-2.532,39.437-9.273c3.014-2.721,4.683-5.939,4.823-9.307l-0.034-1.099l-0.023-0.397
				c0.068-3.316,0.104-6.085,0.104-8.254c0-2.358-0.041-4.006-0.123-4.874l-0.01-0.108l0.004,0.039c-0.003-0.026-0.012-0.096-0.02-0.163c-1.061-11.247-19.26-20.783-42.337-22.179c-16.859-1.02-31.97,2.533-39.438,9.274z M108.813,23.066
				c-0.012-0.093-0.021-0.18-0.021-0.18s0.02,0.168,0.021,0.18z M106.028,36.375c-0.01,0.479,0.082,0.954,0.061,1.434c-0.424,10.119-18.897,17.226-41.262,15.873c-22.365-1.353-39.685-10.646-39.726-20.772c-0.055-13.317-0.055-13.317-0.055-13.317
				c0.423-10.12,18.896-17.226,41.26-15.873c21.513,1.302,38.779,9.957,39.688,19.62c0.005,0.033,0.011,0.076,0.017,0.128c0.002,0.034,0.008,0.067,0.01,0.101c0.08,0.854,0.196,3.662,0.007,12.807z"/>
			<linearGradient id="aigrd13" gradientUnits="userSpaceOnUse" x1="114.4531" y1="54.6772" x2="49.951" y2="54.6772" gradientTransform="matrix(0.9967 0.0502 -0.0313 0.6222 -3.1722 -15.5259)">
				<stop  offset="0" style="stop-color:#FFFFFF"/>
				<stop  offset="1" style="stop-color:#8C8CA4"/>
			</linearGradient>
			<path style="&st6;" d="M25.046,19.591c0.423-10.12,18.896-17.226,41.26-15.873c22.365,1.354,40.152,10.653,39.729,20.773c-0.425,10.119-18.898,17.226-41.263,15.873C42.407,39.011,24.622,29.71,25.046,19.591z"/>
		</g>
	</g>
</svg>
