<?xml version="1.0" encoding="UTF-8" standalone="no"?>
<!-- Generator: Adobe Illustrator 9.0, SVG Export Plug-In  -->
<svg
   xmlns:dc="http://purl.org/dc/elements/1.1/"
   xmlns:cc="http://creativecommons.org/ns#"
   xmlns:rdf="http://www.w3.org/1999/02/22-rdf-syntax-ns#"
   xmlns:svg="http://www.w3.org/2000/svg"
   xmlns="http://www.w3.org/2000/svg"
   xmlns:sodipodi="http://sodipodi.sourceforge.net/DTD/sodipodi-0.dtd"
   xmlns:inkscape="http://www.inkscape.org/namespaces/inkscape"
   width="60"
   height="60"
   viewBox="0 0 66 48"
   xml:space="preserve"
   id="svg2"
   sodipodi:version="0.32"
   inkscape:version="0.46"
   sodipodi:docname="folder.svg"
   inkscape:output_extension="org.inkscape.output.svg.inkscape"
   version="1.0"><metadata
   id="metadata62"><rdf:RDF><cc:Work
       rdf:about=""><dc:format>image/svg+xml</dc:format><dc:type
         rdf:resource="http://purl.org/dc/dcmitype/StillImage" /></cc:Work></rdf:RDF></metadata><defs
   id="defs60"><inkscape:perspective
     sodipodi:type="inkscape:persp3d"
     inkscape:vp_x="0 : 30 : 1"
     inkscape:vp_y="0 : 1000 : 0"
     inkscape:vp_z="82.5 : 30 : 1"
     inkscape:persp3d-origin="41.25 : 20 : 1"
     id="perspective64" /></defs><sodipodi:namedview
   inkscape:window-height="975"
   inkscape:window-width="1278"
   inkscape:pageshadow="2"
   inkscape:pageopacity="0.0"
   guidetolerance="10.0"
   gridtolerance="10.0"
   objecttolerance="10.0"
   borderopacity="1.0"
   bordercolor="#666666"
   pagecolor="#ffffff"
   id="base"
   showgrid="true"
   inkscape:snap-global="false"
   inkscape:zoom="6.6181818"
   inkscape:cx="38.708791"
   inkscape:cy="30"
   inkscape:window-x="0"
   inkscape:window-y="25"
   inkscape:current-layer="svg2"><inkscape:grid
     type="xygrid"
     id="grid2489"
     visible="true"
     enabled="true" /></sodipodi:namedview>
	<g
   id="Layer_x0020_1"
   style="fill-rule:nonzero;stroke:#000000;stroke-width:0.88700402;stroke-miterlimit:4"
   transform="matrix(1.1268663,0,0,1.1279151,-0.8005401,-5.3315988)">
		<path
   style="stroke:none"
   d="M 40.2,7.9 C 39.2,8.2 38.3,8.7 37.6,9.2 C 36.9,9.6 36.3,10 35.9,10 C 35.5,10 34,9.7 33,9.4 C 29.3,8.6 24.2,7.4 21.2,8.5 C 20,9 18.7,10.4 17.3,12.9 C 16.7,12.8 16,12.7 16,12.7 C 10.7,11.8 9.8,12 9,12.4 C 8.2,12.9 7.7,13.7 7.5,14.9 C 7,18.5 9.4,29.9 11.8,32.4 C 13.5,34.1 23.4,37.5 27.6,38.8 C 31.3,40 34.8,41.1 37.5,41.7 C 42,42.9 43.3,42.8 44.2,42.3 C 45,41.9 49.7,38.4 53,27.7 C 53.5,26 54.9,20.9 54.9,18 C 54.9,17.4 54.8,16.9 54.7,16.5 C 53.9,14.6 52.3,14.2 51.3,14 C 51.1,14 50.8,13.9 50.6,13.8 C 50.6,13.7 50.6,13.4 50.6,13.3 C 50.5,12.4 50.5,11 49.2,9.7 C 47.1,7.6 42.5,7.2 40.2,7.8 L 40.2,7.9 z"
   id="path5" />
		<path
   style="opacity:0.35;stroke:none"
   d="M 41.5,44.8 C 37.6,45.4 13.2,38.2 11.2,36 C 9.2,33.8 19.9,30.7 25,30.3 C 30.1,29.9 54.9,34.1 57.6,36.9 C 60.2,39.7 45.4,44.2 41.5,44.9 L 41.5,44.8 z"
   id="path7" />
		<path
   style="stroke:none"
   d="M 40.1,9 C 39.2,9.3 38.4,9.7 37.8,10.1 C 37,10.6 36.2,11 35.5,11 C 35.1,11 33.8,10.7 32.5,10.4 C 28.9,9.6 23.9,8.5 21.3,9.5 C 18.4,10.6 15,19.4 14.4,21.1 C 13.1,24.6 11.7,29.1 12.5,30.6 C 12.7,31 13.3,32.1 21.5,34.9 C 26.5,36.6 32.1,38.1 36.4,39 C 43.5,40.4 45.4,39.7 46.2,39 C 48.7,36.9 50.7,30.9 51.7,27.5 C 51.8,27.1 54.2,18.9 53.4,17 C 52.8,15.6 51.6,15.3 50.7,15.1 C 50.2,15 49.8,14.9 49.5,14.6 C 49.3,14.4 49.2,14.1 49.2,13.5 C 49.1,12.7 49.1,11.6 48.1,10.6 C 46.3,8.8 42.1,8.4 40.1,9 z"
   id="path9" />
		<linearGradient
   id="aigrd1"
   gradientUnits="userSpaceOnUse"
   x1="36.964802"
   y1="12.4141"
   x2="29.7414"
   y2="31.7628">
			<stop
   offset="0"
   style="stop-color:#989C80"
   id="stop12" />
			<stop
   offset="1"
   style="stop-color:#000000"
   id="stop14" />
		</linearGradient>
		<path
   style="fill:url(#aigrd1);stroke:none"
   d="M 21.1,10.5 C 18,11.7 11.7,28 12.8,30.2 C 14,32.3 41.6,41 45,38.2 C 48.8,35 52.6,19.1 51.9,17.4 C 51.2,15.7 49.3,16.4 48.2,15.4 C 47.1,14.3 48.2,12.8 46.8,11.4 C 45.4,10 41.6,9.5 39.8,10 C 38,10.5 36.7,12.1 34.9,12.1 C 33.1,12.1 24.4,9.2 21.1,10.5 L 21.1,10.5 z"
   id="path16" />
		<path
   style="fill:#c1c2b4;stroke:none"
   d="M 13,29.7 C 13.3,24.3 18.1,11.9 20.9,10.5 C 23.7,9 33.4,12.1 35,12.1 C 36.6,12.1 37.8,10.6 39.9,10 C 42,9.4 45.6,10.1 46.9,11.4 C 48,12.5 47.6,14.6 48.1,15.2 C 48.6,15.7 51.2,16.4 51.7,17 C 51.7,17 48.7,16.2 47.9,15.4 C 47.1,14.6 47.3,12.9 46.6,12.2 C 46,11.6 40.9,10.5 39.5,11 C 38.1,11.6 37,13.1 35.1,13.4 C 33.2,13.7 24.3,10.6 21.6,12.2 C 18.8,13.7 13,29.7 13,29.7 z"
   id="path18" />
		<path
   style="fill:#808078;stroke:none"
   d="M 51.1,16.4 C 52.5,17.5 49.6,30.7 45.7,37.5 C 50,31.5 52.1,19.7 52.1,18.2 C 52.1,17.8 51.9,16.9 51.1,16.5 L 51.1,16.4 z"
   id="path20" />
		<path
   style="stroke:none"
   d="M 9.2,13.4 C 8.4,13.8 8.3,14.9 8.2,15.2 C 7.7,18.7 10.2,29.7 12.2,31.8 C 13.8,33.4 26.2,37.5 27.6,38 C 31.3,39.2 34.8,40.3 37.4,40.9 C 41.9,42.1 42.8,41.9 43.3,41.6 C 43.8,41.3 44.1,40.7 44.4,39.7 C 45.4,35.6 44.9,23.9 43.6,21.7 C 43.3,21.2 42.5,20.5 37.5,19 C 34.6,18.1 30.7,17.1 26.5,16.1 C 22.4,15.2 18.5,14.3 15.4,13.8 C 9.9,12.9 9.4,13.2 9,13.4 L 9.2,13.4 z"
   id="path22" />
		<linearGradient
   id="aigrd2"
   gradientUnits="userSpaceOnUse"
   x1="27.624001"
   y1="26.742201"
   x2="33.316601"
   y2="41.335899">
			<stop
   offset="0"
   style="stop-color:#DEDFCE"
   id="stop25" />
			<stop
   offset="1"
   style="stop-color:#C2C4B5"
   id="stop27" />
		</linearGradient>
		<path
   style="fill:url(#aigrd2);stroke:none"
   d="M 42.5,40.5 C 44.3,39.5 43.8,24.2 42.5,22 C 41.2,19.8 11.1,13.1 9.3,14.1 C 7.5,15.1 10.6,28.9 12.6,30.9 C 14.6,32.9 40.7,41.6 42.5,40.5 z"
   id="path29" />
		<linearGradient
   id="aigrd3"
   gradientUnits="userSpaceOnUse"
   x1="20.367201"
   y1="21.459"
   x2="23.1299"
   y2="31.2714">
			<stop
   offset="0"
   style="stop-color:#DEDFCE"
   id="stop32" />
			<stop
   offset="1"
   style="stop-color:#FFFFFF"
   id="stop34" />
		</linearGradient>
		<path
   style="fill:url(#aigrd3);stroke:none"
   d="M 21,34.4 C 15.4,22.1 34.5,31.2 30.5,17.9 C 30.5,17.9 10.4,13 9.3,14 C 7.6,15.7 10.3,27.7 12.4,30.6 C 13.3,31.8 21,34.3 21,34.3 L 21,34.4 z"
   id="path36" />
		<path
   style="fill:#f1f2e1;stroke:none"
   d="M 12.9,31.1 C 11.2,28.5 8.3,17.2 10.5,15.9 C 13.8,13.9 38.7,20.3 38.7,20.3 C 36.4,19.5 12.2,12.7 9.3,14.1 C 7.6,14.9 10.5,29.7 12.9,31.1 L 12.9,31.1 z"
   id="path38" />
		<path
   style="fill:#919187;stroke:none"
   d="M 42.5,22.1 C 43.6,23.5 44.3,39.3 42.4,40.4 C 40.5,41.5 21.1,34.5 21.1,34.5 C 21.1,34.5 40.3,41.1 42,39.7 C 43.7,38.3 43.5,29.3 42.5,22.1 L 42.5,22.1 z"
   id="path40" />
	</g>
	<g
   id="bbox"
   style="fill-rule:nonzero;stroke:#000000;stroke-miterlimit:4">
		<path
   style="fill:none;stroke:none"
   d="M 66,48 L 0,48 L 0,0 L 66,0 L 66,48 z"
   id="path43" />
	</g>
	
</svg>