<?xml version="1.0" encoding="UTF-8" standalone="no"?>
<!-- Generator: Adobe Illustrator 9.0, SVG Export Plug-In  -->
<svg
   xmlns:dc="http://purl.org/dc/elements/1.1/"
   xmlns:cc="http://web.resource.org/cc/"
   xmlns:rdf="http://www.w3.org/1999/02/22-rdf-syntax-ns#"
   xmlns:svg="http://www.w3.org/2000/svg"
   xmlns="http://www.w3.org/2000/svg"
   xmlns:xlink="http://www.w3.org/1999/xlink"
   xmlns:sodipodi="http://sodipodi.sourceforge.net/DTD/sodipodi-0.dtd"
   xmlns:inkscape="http://www.inkscape.org/namespaces/inkscape"
   width="43.8pt"
   height="39pt"
   viewBox="0 0 43.8 39"
   xml:space="preserve"
   id="svg2"
   sodipodi:version="0.32"
   inkscape:version="0.45"
   sodipodi:docname="image-viewer.svg"
   sodipodi:docbase="/home/joss/tmp/Gorilla/scalable/apps"
   inkscape:output_extension="org.inkscape.output.svg.inkscape"
   sodipodi:modified="true"><metadata
   id="metadata70"><rdf:RDF><cc:Work
       rdf:about=""><dc:format>image/svg+xml</dc:format><dc:type
         rdf:resource="http://purl.org/dc/dcmitype/StillImage" /></cc:Work></rdf:RDF></metadata><defs
   id="defs68"><radialGradient
     gradientUnits="userSpaceOnUse"
     fy="9.5425"
     fx="9.7275"
     r="4.0488"
     cy="9.5425"
     cx="9.7275"
     id="aigrd4">
			<stop
   id="stop2279"
   style="stop-color:#FFFFFF"
   offset="0" />
			<stop
   id="stop2281"
   style="stop-color:#F5F3F8"
   offset="1.256170e-002" />
			<stop
   id="stop2283"
   style="stop-color:#C7C4D9"
   offset="7.182755e-002" />
			<stop
   id="stop2285"
   style="stop-color:#A19FC1"
   offset="0.1357" />
			<stop
   id="stop2287"
   style="stop-color:#8182AF"
   offset="0.2033" />
			<stop
   id="stop2289"
   style="stop-color:#696CA2"
   offset="0.2758" />
			<stop
   id="stop2291"
   style="stop-color:#555C99"
   offset="0.355" />
			<stop
   id="stop2293"
   style="stop-color:#495193"
   offset="0.4444" />
			<stop
   id="stop2295"
   style="stop-color:#424C8F"
   offset="0.5524" />
			<stop
   id="stop2297"
   style="stop-color:#3F4A8E"
   offset="0.7303" />
			<stop
   id="stop2299"
   style="stop-color:#3A4A92"
   offset="0.8388" />
			<stop
   id="stop2301"
   style="stop-color:#2C499E"
   offset="0.997" />
			<stop
   id="stop2303"
   style="stop-color:#2C499E"
   offset="1" />
		</radialGradient><linearGradient
     inkscape:collect="always"
     xlink:href="#aigrd3"
     id="linearGradient2380"
     gradientUnits="userSpaceOnUse"
     x1="21.9326"
     y1="24.6274"
     x2="21.9326"
     y2="7.1091" /></defs><sodipodi:namedview
   inkscape:window-height="622"
   inkscape:window-width="797"
   inkscape:pageshadow="2"
   inkscape:pageopacity="0.0"
   guidetolerance="10.0"
   gridtolerance="10.0"
   objecttolerance="10.0"
   borderopacity="1.0"
   bordercolor="#666666"
   pagecolor="#ffffff"
   id="base"
   inkscape:zoom="8.3487179"
   inkscape:cx="27.375"
   inkscape:cy="24.315111"
   inkscape:window-x="73"
   inkscape:window-y="177"
   inkscape:current-layer="svg2" />
	<g
   id="Layer_x0020_2"
   style="fill-rule:nonzero;clip-rule:nonzero;stroke:#000000;stroke-miterlimit:4;">
		<path
   style="fill:none;stroke:none;"
   d="M43.8,39H0V0h43.8v39z"
   id="path5" />
	</g>
	<g
   id="Layer_x0020_3"
   style="fill-rule:nonzero;clip-rule:nonzero;stroke:#000000;stroke-miterlimit:4;">
		<path
   style="stroke:none;"
   d="M6.2,0.7C3.8,0.7,1.8,2.6,1.8,5v29c0,2.4,1.9,4.3,4.3,4.3H37c2.4,0,4.3-1.9,4.3-4.3V5c0-2.4-1.9-4.3-4.3-4.3H6.2z"
   id="path8" />
		<linearGradient
   id="aigrd1"
   gradientUnits="userSpaceOnUse"
   x1="12.4873"
   y1="3.7319"
   x2="31.0813"
   y2="36.0328">
			<stop
   offset="0"
   style="stop-color:#D2D2D2"
   id="stop11" />
			<stop
   offset="1"
   style="stop-color:#EDEDED"
   id="stop13" />
		</linearGradient>
		<path
   style="fill:url(#aigrd1);stroke:none;"
   d="M39.1,33.3c0,1.6-1.3,2.9-2.9,2.9H6.9c-1.6,0-2.9-1.3-2.9-2.9V5.7c0-1.6,1.3-2.9,2.9-2.9h29.3c1.6,0,2.9,1.3,2.9,2.9v27.6z"
   id="path15" />
		<linearGradient
   id="aigrd2"
   gradientUnits="userSpaceOnUse"
   x1="21.877"
   y1="30.3413"
   x2="21.9168"
   y2="22.5769">
			<stop
   offset="0"
   style="stop-color:#163069"
   id="stop18" />
			<stop
   offset="1"
   style="stop-color:#83A1CB"
   id="stop20" />
		</linearGradient>
		<path
   style="fill:url(#aigrd2);stroke:none;"
   d="M36.6,29.6H7.3V9.7h29.3v19.9z"
   id="path22" />
		<path
   style="fill:#FCFCFC;stroke:none;"
   d="M5.2,6.3L4.6,35.1C4.2,34.6,4,33.7,4,33.7L4,5.3c0,0,0-0.7,0.6-1.6c0.7-0.9,1.8-0.9,1.8-0.9l25.5,0L7.4,4c-1,0-1.5,0.5-1.7,0.7C5.5,5,5.2,5.6,5.2,6.3z"
   id="path24" />
		<path
   style="fill:#BEBEBE;stroke:none;"
   d="M37.9,32.6L38.6,4c0.4,0.4,0.6,1.4,0.6,1.4l0,28.3c0,0,0,0.7-0.6,1.6c-0.7,0.9-1.9,1-1.9,1l-25.3,0l24.5-1.4c1,0,1.5-0.5,1.7-0.7c0.2-0.2,0.5-0.9,0.5-1.5z"
   id="path26" />
		<path
   style="fill:#BEBEBE;stroke:none;"
   d="M36.6,9.7L37.2,9L6.6,8.9l0,21.4l0.7-0.8V9.7h29.3z"
   id="path28" />
		<path
   style="fill:#FFFFFF;stroke:none;"
   d="M6.6,30.3l30.6-0.1V9l-0.7,0.7v19.9H7.3l-0.7,0.8z"
   id="path30" />
		<linearGradient
   id="aigrd3"
   gradientUnits="userSpaceOnUse"
   x1="21.9326"
   y1="24.6274"
   x2="21.9326"
   y2="7.1091">
			<stop
   offset="0"
   style="stop-color:#D0D6E5"
   id="stop33" />
			<stop
   offset="1"
   style="stop-color:#093A80"
   id="stop35" />
		</linearGradient>
		<path
   style="fill:url(#aigrd3);stroke:none;"
   d="M7.6,9.9h28.7V22H7.6V9.9z"
   id="path37" />
		<g
   id="g39">
			<g
   id="g41">
				<path
   style="opacity:5.000000e-002;fill:#E8F52F;stroke:none;"
   d="M18.4,15.4c0,2.2-1.8,4.1-4.1,4.1c-2.2,0-4.1-1.8-4.1-4.1c0-2.2,1.8-4.1,4.1-4.1c2.2,0,4.1,1.8,4.1,4.1z"
   id="path43" />
				<path
   style="opacity:0.2083;fill:#ECF751;stroke:none;"
   d="M18,15.4c0,2-1.6,3.7-3.7,3.7c-2,0-3.7-1.6-3.7-3.7c0-2,1.6-3.7,3.7-3.7c2,0,3.7,1.6,3.7,3.7z"
   id="path45" />
				<path
   style="opacity:0.3667;fill:#F0F972;stroke:none;"
   d="M17.6,15.4c0,1.8-1.5,3.3-3.3,3.3S11,17.2,11,15.4s1.5-3.3,3.3-3.3s3.3,1.5,3.3,3.3z"
   id="path47" />
				<path
   style="opacity:0.525;fill:#F4FA95;stroke:none;"
   d="M17.2,15.4c0,1.6-1.3,2.9-2.9,2.9s-2.9-1.3-2.9-2.9s1.3-2.9,2.9-2.9s2.9,1.3,2.9,2.9z"
   id="path49" />
				<path
   style="opacity:0.6833;fill:#F7FCB7;stroke:none;"
   d="M16.8,15.4c0,1.4-1.1,2.5-2.5,2.5c-1.4,0-2.5-1.1-2.5-2.5s1.1-2.5,2.5-2.5c1.4,0,2.5,1.1,2.5,2.5z"
   id="path51" />
				<path
   style="opacity:0.8417;fill:#FBFDDB;stroke:none;"
   d="M16.4,15.4c0,1.2-1,2.1-2.1,2.1s-2.1-1-2.1-2.1s1-2.1,2.1-2.1s2.1,1,2.1,2.1z"
   id="path53" />
				<path
   style="fill:#FFFFFF;stroke:none;"
   d="M16,15.4c0,1-0.8,1.8-1.8,1.8s-1.8-0.8-1.8-1.8c0-1,0.8-1.8,1.8-1.8s1.8,0.8,1.8,1.8z"
   id="path55" />
			</g>
		</g>
		<path
   style="opacity:0.3;stroke:none;"
   d="M24,23.7h7.3l1.4,0.4h-2.4c0,0,2.4,0.2,3.6,1.7c1.2,1.4-1.4,3.1-1.4,3.1s0,0,0,0c-0.1-0.3-0.7-2.7-1.9-3.7c-0.9-0.8-1.9-1-1.9-1H24l0-0.4z"
   id="path57" />
		<path
   style="opacity:0.3;stroke:none;"
   d="M28.8,24.3h-4.2l7.8,4.4l-3.6-4.4z"
   id="path59" />
		<path
   style="fill:#515151;stroke:none;"
   d="M24,23.8h7.3l1.1-0.7h-2.4c0,0,2.2-0.4,2.5-2.9c0.3-2.5-3.4-5.3-3.4-5.3s0,0,0,0.1c0.1,0.6,1.1,4.8,0.4,6.4c-0.3,1.4-1.2,1.7-1.2,1.7h-4.6l0.2,0.7z"
   id="path61" />
		<path
   style="fill:#515151;stroke:none;"
   d="M28.4,22.7h-4.2l5-7.6l-0.8,7.6z"
   id="path63" />
		<path
   style="stroke:none;"
   d="M7.3,9.7v19.9h29.3V9.7H7.3z M36,29h-28V10.3h28V29z"
   id="path65" />
	</g>
<g
   id="g2349"
   transform="matrix(1.8151174,0,0,1.8151174,3.9613948,0.3433057)"><path
     style="fill:#000000;fill-rule:nonzero;stroke:none;stroke-width:0.45429999;stroke-linecap:round;stroke-miterlimit:4"
     d="M 4.4,10.3 C 4.4,13.5 7,16.2 10.3,16.2 C 11.2,16.2 12.2,16 13,15.5 C 13.1,15.6 13.2,15.8 13.3,15.9 L 16.5,19.1 C 17.2,19.8 18.3,19.8 19.1,19.1 C 19.5,18.7 19.6,18.3 19.6,17.8 C 19.6,17.3 19.4,16.9 19.1,16.5 L 15.9,13.3 C 15.8,13.2 15.6,13.1 15.5,13 C 15.9,12.2 16.2,11.2 16.2,10.2 C 16.2,7 13.6,4.3 10.3,4.3 C 7.1,4.3 4.4,6.9 4.4,10.2 L 4.4,10.3 z M 7.2,10.3 C 7.2,8.6 8.6,7.2 10.3,7.2 C 12,7.2 13.4,8.6 13.4,10.3 C 13.4,12 12,13.4 10.3,13.4 C 8.6,13.4 7.2,12 7.2,10.3 L 7.2,10.3 z "
     id="path2259" /><path
     style="fill:#919191;fill-rule:nonzero;stroke:none;stroke-width:0.45429999;stroke-linecap:round;stroke-miterlimit:4"
     d="M 18.6,17.1 L 15.4,13.9 C 15.1,13.6 14.7,13.5 14.3,13.6 C 15,12.7 15.5,11.6 15.5,10.3 C 15.5,7.5 13.2,5.2 10.4,5.2 C 7.6,5.2 5.3,7.5 5.3,10.3 C 5.3,13.1 7.6,15.4 10.4,15.4 C 11.6,15.4 12.8,15 13.7,14.2 C 13.6,14.6 13.7,15 14,15.3 L 17.2,18.5 C 17.6,18.9 18.3,18.9 18.7,18.5 C 19.1,18.1 19.1,17.4 18.7,17 L 18.6,17.1 z M 10.3,14.1 C 8.2,14.1 6.5,12.4 6.5,10.3 C 6.5,8.2 8.2,6.5 10.3,6.5 C 12.4,6.5 14.1,8.2 14.1,10.3 C 14.1,12.4 12.4,14.1 10.3,14.1 L 10.3,14.1 z "
     id="path2261" /><path
     style="fill:url(#linearGradient2380);fill-rule:nonzero;stroke:none;stroke-width:0.45429999;stroke-linecap:round;stroke-miterlimit:4"
     d="M 15.4,13.8 L 13.9,15.3 L 17.1,18.5 L 18.6,17 L 15.4,13.8 L 15.4,13.8 z "
     id="path2270" /><path
     style="opacity:0.54000005;fill:none;fill-rule:nonzero;stroke:#ffffff;stroke-width:0.90850002;stroke-linecap:round;stroke-miterlimit:4"
     d="M 14.9,14.3 L 18,17.4"
     id="path2272" /><path
     style="opacity:0.5;fill:none;fill-rule:nonzero;stroke:#ffffff;stroke-width:0.45429999;stroke-linecap:round;stroke-miterlimit:4"
     d="M 5.4,10.2 C 5.4,7.6 7.5,5.4 10.2,5.4"
     id="path2274" /><path
     style="opacity:0.5;fill:none;fill-rule:nonzero;stroke:#ffffff;stroke-width:0.45429999;stroke-linecap:round;stroke-miterlimit:4"
     d="M 14.4,10.2 C 14.4,12.5 12.5,14.4 10.2,14.4"
     id="path2276" /><path
     style="opacity:0.47000002;fill:url(#aigrd4);fill-rule:nonzero;stroke:none;stroke-width:0.45429999;stroke-linecap:round;stroke-miterlimit:4"
     d="M 13.4,10.3 C 13.4,12 12,13.4 10.3,13.4 C 8.6,13.4 7.2,12 7.2,10.3 C 7.2,8.6 8.6,7.2 10.3,7.2 C 12,7.2 13.4,8.6 13.4,10.3 z "
     id="path2305" /></g></svg>