<?xml version="1.0" encoding="UTF-8" standalone="no"?>
<!DOCTYPE svg PUBLIC "-//W3C//DTD SVG 20010904//EN"
"http://www.w3.org/TR/2001/REC-SVG-20010904/DTD/svg10.dtd">
<!-- Created with Sodipodi ("http://www.sodipodi.com/") -->
<svg
   width="48pt"
   height="48pt"
   viewBox="0 0 144 144"
   xml:space="preserve"
   id="svg1"
   sodipodi:version="0.29"
   sodipodi:docname="/home/cschalle/spherecrystal/SphereCrystal/icons/scalable/devices/gnome-dev-camera.svg"
   sodipodi:docbase="/home/cschalle/spherecrystal/SphereCrystal/icons/scalable/devices/"
   xmlns="http://www.w3.org/2000/svg"
   xmlns:sodipodi="http://sodipodi.sourceforge.net/DTD/sodipodi-0.dtd"
   xmlns:xml="http://www.w3.org/XML/1998/namespace"
   xmlns:xlink="http://www.w3.org/1999/xlink">
  <defs
     id="defs102" />
  <sodipodi:namedview
     id="base" />
  <g
     id="Layer_x0020_1"
     style="fill-rule:nonzero;clip-rule:nonzero;stroke:#FFFFFF;stroke-width:0;stroke-miterlimit:4;"
     transform="matrix(0.996805,0,0,0.939297,0.920128,5.52074)">
    <path
       style="fill:none;stroke:none;fill-rule:evenodd;"
       d="M144,144H0V0h144v144z"
       id="path3" />
    <g
       style="stroke:none;"
       id="g4">
      <g
         id="g5">
        <linearGradient
           id="aigrd1"
           gradientUnits="userSpaceOnUse"
           x1="42.6211"
           y1="43.0088"
           x2="100.5316"
           y2="92.234">
          <stop
             offset="0.0106"
             style="stop-color:#5454A2"
             id="stop7" />
          <stop
             offset="0.5053"
             style="stop-color:#FFFFFF"
             id="stop8" />
          <stop
             offset="1"
             style="stop-color:#5454A2"
             id="stop9" />
        </linearGradient>
        <path
           style="fill:url(#aigrd1);fill-rule:evenodd;"
           d="M122.472,9.592c0,0-15.78-2.266-17.802-3.399c-1.133-0.323-1.457,0.324-1.619,1.133s-0.323,3.237-0.323,3.237L92.493,23.101l-4.314,5.284L69.603,24.59c0,0-54.38,19.637-59.559,23.305c-5.179,3.669-9.926,39.921,3.884,74.017      c14.89,8.416,20.285,7.336,26.111,7.769c3.404,0.253,18.446-6.347,34.583-14.158l4.475,0.995l32.154-17.263V72.28l-4.01-0.729c-0.219-5.928-0.522-9.844-0.522-9.844l-3.037-0.911l15.31-20.715c0,0,8.738-11.633,8.657-11.714c4.29-0.404,6.232,0.971,6.232-1.294      c0-15.709-11.41-17.479-11.41-17.479z"
           id="path10" />
      </g>
      <linearGradient
         id="aigrd2"
         gradientUnits="userSpaceOnUse"
         x1="34.9663"
         y1="60.916"
         x2="88.376"
         y2="106.5574">
        <stop
           offset="0"
           style="stop-color:#FFFFFF"
           id="stop12" />
        <stop
           offset="1"
           style="stop-color:#5454A2"
           id="stop13" />
      </linearGradient>
      <path
         style="fill:url(#aigrd2);fill-rule:evenodd;"
         d="M13.928,121.912c-13.81-34.096-9.063-70.348-3.884-74.017c5.179-3.668,59.559-23.305,59.559-23.305l20.068,4.1l12.731,31.721l4.317,1.295c0,0,1.509,19.421,0.215,37.332c-21.146,11.437-61.068,31.074-66.895,30.642     c-5.827-0.432-11.222,0.647-26.111-7.769z"
         id="path14" />
      <g
         id="g15">
        <linearGradient
           id="aigrd3"
           gradientUnits="userSpaceOnUse"
           x1="93.6807"
           y1="29.3408"
           x2="112.7152"
           y2="45.5206">
          <stop
             offset="0.0106"
             style="stop-color:#5454A2"
             id="stop17" />
          <stop
             offset="0.5053"
             style="stop-color:#FFFFFF"
             id="stop18" />
          <stop
             offset="1"
             style="stop-color:#5454A2"
             id="stop19" />
        </linearGradient>
        <path
           style="fill:url(#aigrd3);fill-rule:evenodd;"
           d="M76.832,42.285l15.661-19.184l10.234-12.538c0,0,0.161-2.428,0.323-3.237s0.486-1.456,1.619-1.133c2.022,1.133,17.802,3.399,17.802,3.399s11.41,1.77,11.41,17.479c0,2.266-1.942,0.89-6.232,1.294c0.082,0.081-8.657,11.714-8.657,11.714      L100.137,65.59c0,0-9.814,8.588-11.409,5.764c-1.448-2.564,5.391-16.438,3.964-18.711c-2.994-4.773-3.803-5.583-5.179-6.473c-1.376-0.89-10.682-3.884-10.682-3.884z"
           id="path20" />
      </g>
      <linearGradient
         id="aigrd4"
         gradientUnits="userSpaceOnUse"
         x1="90.2671"
         y1="79.6113"
         x2="97.3882"
         y2="130.1068">
        <stop
           offset="0"
           style="stop-color:#FFFFFF"
           id="stop22" />
        <stop
           offset="1"
           style="stop-color:#000000"
           id="stop23" />
      </linearGradient>
      <path
         style="fill:url(#aigrd4);fill-rule:evenodd;"
         d="M73.487,84.796l33.016-13.379l4.748,0.863v26.975l-32.154,17.263l-5.827-1.294l0.216-30.427z"
         id="path24" />
      <path
         style="opacity:0.2;fill-rule:evenodd;"
         d="M106.482,7.792c-1.242,0.757-2.041,1.991-2.376,3.665c-0.122,0.609-0.221,1.61-0.294,2.48c-1.328,1.626-10.995,13.469-12.271,15.033c-3.556-0.727-17.333-3.541-17.333-3.541l-1.037,0.374c-9.165,3.31-55.151,20.009-60.493,23.793     c-7.708,5.461-11.344,44.469,2.516,78.687l0.513,1.269l1.191,0.673c13.625,7.701,20.171,7.95,25.431,8.15l2.32,0.116c1.531,0.113,5.606,0.385,35.345-13.946c1.313,0.292,4.575,1.016,4.575,1.016l35.502-19.061V73.908c0,0-3.83-0.696-4.18-0.76     c-0.157-2.958-0.509-9.599-0.509-9.599s-0.229-0.061-0.284-0.075c4.096-5.542,11.948-16.164,11.948-16.164c-0.019,0.024,4.35-5.814,4.35-5.814l2.998-4.048c0.078-0.107,0.156-0.219,0.235-0.328c0.479,0.011,0.948,0.03,1.364,0.057     c1.571,0.103,3.528,0.232,5.149-1.287c0.711-0.667,1.56-1.888,1.56-3.919c0-15.083-9.635-20.563-14.729-21.353c-6.881-0.989-15.176-2.424-16.656-3.031l0.168,0.085l-0.33-0.166l-0.511-0.185c-1.912-0.545-3.318-0.046-4.162,0.469z"
         id="path25" />
      <linearGradient
         id="aigrd5"
         gradientUnits="userSpaceOnUse"
         x1="-41.5513"
         y1="-25.77"
         x2="70.6078"
         y2="67.0408">
        <stop
           offset="0.0106"
           style="stop-color:#5454A2"
           id="stop27" />
        <stop
           offset="0.5053"
           style="stop-color:#FFFFFF"
           id="stop28" />
        <stop
           offset="1"
           style="stop-color:#5454A2"
           id="stop29" />
      </linearGradient>
      <path
         style="fill:url(#aigrd5);fill-rule:evenodd;"
         d="M101.583,2.892c-1.242,0.758-2.041,1.991-2.376,3.666c-0.122,0.609-0.221,1.61-0.294,2.48c-1.328,1.626-10.995,13.469-12.271,15.032c-3.556-0.726-17.333-3.541-17.333-3.541l-1.036,0.375c-9.165,3.31-55.152,20.009-60.493,23.793     c-7.708,5.461-11.344,44.469,2.516,78.687l0.514,1.268l1.191,0.673c13.625,7.7,20.171,7.95,25.431,8.15l2.32,0.116c1.531,0.113,5.606,0.385,35.345-13.946c1.313,0.292,4.574,1.016,4.574,1.016l35.502-19.061V69.008c0,0-3.83-0.696-4.18-0.76     c-0.157-2.958-0.509-9.599-0.509-9.599s-0.229-0.061-0.284-0.075c4.096-5.542,11.947-16.164,11.947-16.164c-0.018,0.024,4.35-5.814,4.35-5.814l2.998-4.048c0.079-0.107,0.156-0.219,0.235-0.328c0.479,0.01,0.948,0.03,1.364,0.057     c1.571,0.104,3.528,0.232,5.148-1.286c0.712-0.667,1.561-1.888,1.561-3.919c0-15.083-9.635-20.563-14.729-21.353c-6.881-0.988-15.176-2.424-16.656-3.03l0.168,0.084l-0.331-0.166l-0.511-0.184c-1.912-0.545-3.318-0.046-4.162,0.468z"
         id="path30" />
      <linearGradient
         id="aigrd6"
         gradientUnits="userSpaceOnUse"
         x1="65.5732"
         y1="28.085"
         x2="85.3246"
         y2="168.1407">
        <stop
           offset="0"
           style="stop-color:#FFFFFF"
           id="stop32" />
        <stop
           offset="1"
           style="stop-color:#000000"
           id="stop33" />
      </linearGradient>
      <path
         style="fill:url(#aigrd6);fill-rule:evenodd;"
         d="M122.472,9.592c0,0-15.78-2.266-17.802-3.399c-1.133-0.323-1.457,0.324-1.619,1.133s-0.323,3.237-0.323,3.237L92.493,23.101l-4.314,5.284L69.603,24.59c0,0-54.38,19.637-59.559,23.305c-5.179,3.669-9.926,39.921,3.884,74.017     c14.89,8.416,20.285,7.336,26.111,7.769c3.404,0.252,18.447-6.348,34.582-14.157l4.477,0.994l32.154-17.263V72.28l-4.01-0.729c-0.218-5.928-0.521-9.844-0.521-9.844l-3.038-0.912l15.312-20.714c0,0,8.738-11.633,8.657-11.714c4.29-0.404,6.232,0.971,6.232-1.294     c0-15.709-11.41-17.479-11.41-17.479z"
         id="path34" />
      <path
         style="fill:url(#aigrd2);fill-rule:evenodd;"
         d="M13.928,121.912c-13.81-34.096-9.063-70.348-3.884-74.017c5.179-3.668,59.559-23.305,59.559-23.305l20.068,4.1l12.731,31.721l4.317,1.295c0,0,1.509,19.421,0.215,37.332c-21.146,11.437-61.068,31.074-66.895,30.642     c-5.827-0.432-11.222,0.647-26.111-7.769z"
         id="path35" />
      <linearGradient
         id="aigrd8"
         gradientUnits="userSpaceOnUse"
         x1="6.2031"
         y1="39.0532"
         x2="42.0234"
         y2="127.5257">
        <stop
           offset="0"
           style="stop-color:#FFFFFF"
           id="stop37" />
        <stop
           offset="1"
           style="stop-color:#5454A2"
           id="stop38" />
      </linearGradient>
      <path
         style="fill:url(#aigrd8);fill-rule:evenodd;"
         d="M13.928,121.912c-13.81-34.096-9.063-70.348-3.884-74.017c9.279-0.647,26.542,3.668,28.269,6.689c5.214,9.125,6.689,58.048,1.726,75.096c-5.827-0.432-11.222,0.647-26.111-7.769z"
         id="path39" />
      <linearGradient
         id="aigrd9"
         gradientUnits="userSpaceOnUse"
         x1="10.625"
         y1="53.0176"
         x2="56.1838"
         y2="151.9454">
        <stop
           offset="0"
           style="stop-color:#FFFFFF"
           id="stop41" />
        <stop
           offset="1"
           style="stop-color:#5454A2"
           id="stop42" />
      </linearGradient>
      <path
         style="opacity:0.8;fill:url(#aigrd9);fill-rule:evenodd;"
         d="M20.948,50.484c-2.28-0.402-6.791-1.896-8.977-2.036c-1.373-0.088-1.727,1.133-1.727,1.133s-1.753,4.191-2.893,10.079c-0.022,0.114-1.126,9.295-1.126,14.585c0,8.7,0.973,19.03,3.591,29.926c2.275-1.346,6.692-3.326,14.94-2.353     c1.967-0.299,3.946-0.472,5.862-0.633c6.905-0.579,9.932-1.122,9.944-3.896c0.002-0.392,0.003-0.783,0.003-1.174c0-18.809-1.91-36.193-4.506-40.775c-0.985-1.286-7.854-3.577-15.112-4.857z"
         id="path43" />
      <path
         style="fill:none;stroke:#000000;stroke-width:1;stroke-miterlimit:4;fill-rule:evenodd;"
         d="M30.76,56.958c7.351-0.734,15.106,11.006,15.754,15.969c0.863,3.668,3.021,19.205-6.69,19.637C20.834,91.053,21.265,70.77,21.265,70.77s0.864-12.947,9.495-13.811z"
         id="path44" />
      <linearGradient
         id="aigrd10"
         gradientUnits="userSpaceOnUse"
         x1="20.3413"
         y1="49.8999"
         x2="88.6339"
         y2="26.8151">
        <stop
           offset="0"
           style="stop-color:#FFFFFF"
           id="stop46" />
        <stop
           offset="1"
           style="stop-color:#5454A2"
           id="stop47" />
      </linearGradient>
      <path
         style="fill:url(#aigrd10);fill-rule:evenodd;"
         d="M10.044,47.896L69.603,24.59l26.111,4.962l-61.07,24.169l-24.6-5.826z"
         id="path48" />
      <linearGradient
         id="aigrd11"
         gradientUnits="userSpaceOnUse"
         x1="28.3223"
         y1="46.1323"
         x2="102.5561"
         y2="28.8685">
        <stop
           offset="0"
           style="stop-color:#FFFFFF"
           id="stop50" />
        <stop
           offset="1"
           style="stop-color:#5454A2"
           id="stop51" />
      </linearGradient>
      <path
         style="fill:url(#aigrd11);fill-rule:evenodd;"
         d="M41.831,36.907c-11.365,4.33-21.217,8.25-25.133,10.201c3.809,1.197,13.273,2.475,21.685,3.105c0.505-0.2,21.142-8.368,37.314-14.768c7.459-2.952-7.021,0.555-14.358-0.309c-7.165-1.362-8.976-2.242-19.507,1.771z"
         id="path52" />
      <linearGradient
         id="aigrd12"
         gradientUnits="userSpaceOnUse"
         x1="101.6226"
         y1="92.915"
         x2="106.8911"
         y2="96.9939">
        <stop
           offset="0.0112"
           style="stop-color:#008B00"
           id="stop54" />
        <stop
           offset="0.5225"
           style="stop-color:#00FF00"
           id="stop55" />
        <stop
           offset="1"
           style="stop-color:#006F00"
           id="stop56" />
      </linearGradient>
      <path
         style="opacity:0.54;fill:url(#aigrd12);fill-rule:evenodd;"
         d="M106.984,95.641c0,1.552-0.825,2.811-1.84,2.811c-1.018,0-1.843-1.259-1.843-2.811c0-1.553,0.825-2.811,1.843-2.811c1.016,0,1.84,1.258,1.84,2.811z"
         id="path57" />
      <path
         style="opacity:0.51;fill-rule:evenodd;"
         d="M70.215,39.837l13.342-5.589l18.846,26.163l4.317,1.295c0,0,1.509,19.421,0.215,37.332c-8.717,4.714-32.019,16.343-32.019,16.343l0.301-33.855l-5.002-41.689z"
         id="path58" />
      <linearGradient
         id="aigrd13"
         gradientUnits="userSpaceOnUse"
         x1="103.9004"
         y1="7.9429"
         x2="103.9406"
         y2="8.2279">
        <stop
           offset="0"
           style="stop-color:#FFFFFF"
           id="stop60" />
        <stop
           offset="1"
           style="stop-color:#000000"
           id="stop61" />
      </linearGradient>
      <path
         style="fill:url(#aigrd13);fill-rule:evenodd;"
         d="M103.692,7.938c0.097,0.054,0.306,0.115,0.44,0.171c-0.012,0-0.023-0.001-0.035-0.002c-0.042-0.018-0.405-0.168-0.405-0.168z"
         id="path62" />
      <path
         style="fill:#FFFFFF;fill-rule:evenodd;"
         d="M122.472,9.592c0,0-15.78-2.266-17.802-3.399c-1.133-0.323-1.457,0.324-1.619,1.133s-0.323,3.237-0.323,3.237L92.493,23.101l-3.85,5.124l-19.04-3.635c0,0-54.38,19.637-59.559,23.305c-5.179,3.669-9.926,39.921,3.884,74.017     c11.693,6.485,20.285,7.336,26.111,7.769c3.404,0.252,18.447-6.348,34.582-14.157l4.477,0.994l32.154-17.263V72.28l-4.01-0.729c-0.218-5.928-0.521-9.844-0.521-9.844l-3.038-0.912l15.312-20.714c0,0,8.738-11.633,8.657-11.714c4.29-0.404,6.232,0.971,6.232-1.294     c0-15.709-11.41-17.479-11.41-17.479z M104.132,8.109c-0.012,0-0.023-0.001-0.035-0.002c-0.042-0.018-0.405-0.168-0.405-0.168c0.097,0.054,0.306,0.115,0.44,0.171z M131.481,26.371c-0.986-0.065-2.336-0.154-4.019,0.004l-1.021,0.171l-0.524,0.833     c-0.437,0.693-5.459,7.422-8.532,11.513l-15.673,21.99c0,0,3.534,1.206,4.369,1.457c0.106,2.012,0.397,10.591,0.397,10.591s2.667-0.271,3.812-0.063c0,2.799,0.143,23.707,0.143,25.75c-1.931,1.037-30.287,16.054-31.501,16.706     c-1.019-0.227-4.342-0.869-4.342-0.869c-18.205,8.812-32.433,13.37-32.433,13.37s2.24-12.583,0.907-33.25c-1.348,27.525-2.958,33.25-2.958,33.25s-13.307-0.264-25.214-6.891c-6.486-16.315-8.785-33.626-8.785-46.761c0-13.623,2.997-23.985,5.004-25.408     C14.721,46.209,47.931,32.91,69.7,25.042c1.039,0.212,19.262,3.764,19.262,3.764l15.718-17.472l0.042-0.638c0.044-0.665,0.122-1.606,0.196-2.283c3.704,1.138,13.023,2.55,17.233,3.154c0.391,0.066,9.381,1.774,9.701,14.815c-0.16-0.005-0.371-0.011-0.371-0.011z"
         id="path63" />
      <path
         style="fill:#FFFFFF;fill-rule:evenodd;"
         d="M104.132,8.109c-0.134-0.056-0.343-0.117-0.44-0.171c0,0,0.363,0.151,0.405,0.168c0.012,0.001,0.023,0.002,0.035,0.002z"
         id="path64" />
      <g
         style="fill:#898989;"
         id="g65">
        <g
           id="g66">
          <path
             style="fill:url(#aigrd3);fill-rule:evenodd;"
             d="M76.832,42.285l15.661-19.184l10.234-12.538c0,0,0.161-2.428,0.323-3.237s0.486-1.456,1.619-1.133c2.022,1.133,17.802,3.399,17.802,3.399s11.41,1.77,11.41,17.479c0,2.266-1.942,0.89-6.232,1.294c0.082,0.081-8.657,11.714-8.657,11.714       L100.137,65.59c0,0-9.814,8.588-11.409,5.764c-1.448-2.564,5.391-16.438,3.964-18.711c-2.994-4.773-3.803-5.583-5.179-6.473c-1.376-0.89-10.682-3.884-10.682-3.884z"
             id="path67" />
        </g>
        <linearGradient
           id="aigrd15"
           gradientUnits="userSpaceOnUse"
           x1="-26.3784"
           y1="8.8574"
           x2="55.1395"
           y2="71.8067">
          <stop
             offset="0"
             style="stop-color:#FFFFFF"
             id="stop69" />
          <stop
             offset="1"
             style="stop-color:#5454A2"
             id="stop70" />
        </linearGradient>
        <path
           style="fill:url(#aigrd15);fill-rule:evenodd;"
           d="M55.704,38.766l-0.018,0.007c-8.974,4.003-38.334,15.447-38.63,15.563l-0.126,0.049l-0.119,0.064C16.3,54.732,4.339,61.533,8.416,80.295c2.387,10.983,7.857,16.253,12.026,18.741c4.981,2.972,10.973,3.722,16.437,2.057      c6.846-2.086,13.259-4.868,18.411-7.102l4.699-2.01l-0.379,0.116c5.709-1.161,29.104-17.822,33.735-21.15l0.649-0.467l0.18-0.787c0.555-2.413,3.156-14.704-0.061-19.73c-3.223-5.038-5.803-8.279-17.717-11.305l-0.127-0.033l-3.131-0.379      c-9.23-1.127-12.685-1.548-17.434,0.52z"
           id="path71" />
        <linearGradient
           id="aigrd16"
           gradientUnits="userSpaceOnUse"
           x1="49.3872"
           y1="51.5239"
           x2="58.5391"
           y2="75.9277">
          <stop
             offset="0.0106"
             style="stop-color:#5454A2"
             id="stop73" />
          <stop
             offset="0.5053"
             style="stop-color:#FFFFFF"
             id="stop74" />
          <stop
             offset="1"
             style="stop-color:#5454A2"
             id="stop75" />
        </linearGradient>
        <path
           style="fill:url(#aigrd16);fill-rule:evenodd;"
           d="M22.611,55.455c0,0-10.44,5.826-6.89,22.441c3.66,17.135,15.868,20.93,24.219,18.341c8.352-2.589,15.869-6.257,21.505-8.631c5.22-1.08,30.902-19.852,30.902-19.852s2.922-12.946,0.208-17.262c-2.715-4.315-4.595-7.12-15.451-9.926      c-10.648-1.295-13.78-1.942-18.165,0c-8.561,3.884-36.33,14.889-36.33,14.889z"
           id="path76" />
        <path
           style="opacity:0.5;fill-rule:evenodd;"
           d="M35.731,49.26c-9.346,3.721-17.926,7.063-17.926,7.063s-11.127,6.105-7.344,23.515c3.901,17.954,16.913,21.931,25.815,19.217c6.772-2.063,13.03-4.782,18.28-7.059c3.469-5.023,5.565-14.716,1.608-26.773      c-1.396-4.256-12.422-19.153-20.434-15.962z"
           id="path77" />
        <linearGradient
           id="aigrd17"
           gradientUnits="userSpaceOnUse"
           x1="20.2446"
           y1="59.6353"
           x2="50.4465"
           y2="116.6904">
          <stop
             offset="0"
             style="stop-color:#FFFFFF"
             id="stop79" />
          <stop
             offset="1"
             style="stop-color:#8C8C8C"
             id="stop80" />
        </linearGradient>
        <path
           style="fill:url(#aigrd17);fill-rule:evenodd;"
           d="M26.463,52.928c-5.066,1.996-8.658,3.395-8.658,3.395s-11.127,6.105-7.344,23.515c3.901,17.954,16.913,21.931,25.815,19.217c2.068-0.63,4.089-1.322,6.046-2.042c5.929-2.709,9.188-15.004,5.231-27.062      c-5.353-15.604-18.327-18.11-21.091-17.022z"
           id="path81" />
        <path
           style="opacity:0.2;fill:#000000;fill-rule:evenodd;"
           d="M14.044,84.373c5.585,15.366,18.384,13.476,18.384,13.476s-12.245-0.346-17.222-16.078c-4.188-13.24,3.958-23.878,3.958-23.878s-12.335,7.565-5.12,26.48z"
           id="path82" />
        <path
           d="M25.679,56.71c7.927-0.804,16.291,12.059,16.989,17.495c0.93,4.019,3.257,21.043-7.215,21.515C14.975,94.065,15.44,71.841,15.44,71.841s0.931-14.186,10.239-15.131z"
           id="path83"
           style="fill-rule:evenodd;" />
        <radialGradient
           id="aigrd18"
           cx="60.6616"
           cy="387.0298"
           r="21.9896"
           fx="60.6616"
           fy="387.0298"
           gradientTransform="matrix(1.0784 0 0 1.0956 -34.3866 -339.4189)"
           gradientUnits="userSpaceOnUse">
          <stop
             offset="0"
             style="stop-color:#FFFFFF"
             id="stop85" />
          <stop
             offset="0.2191"
             style="stop-color:#CCF0FF"
             id="stop86" />
          <stop
             offset="0.6966"
             style="stop-color:#1D6CE9"
             id="stop87" />
        </radialGradient>
        <path
           style="fill:url(#aigrd18);fill-rule:evenodd;"
           d="M26.586,58.829c-7.29,0.739-8.311,12.559-8.354,13.11c0,0.028,0,0.05,0,0.096c0,1.995,0.497,20.032,17.945,21.544c1.697-0.104,2.943-0.743,3.897-2.025c1.604-2.153,2.091-5.611,2.091-8.909c0-3.306-0.491-6.449-0.837-7.954l-0.025-0.104      l-0.014-0.106c-0.592-4.608-8.267-16.307-14.703-15.652z"
           id="path88" />
        <radialGradient
           id="aigrd19"
           cx="-49.2041"
           cy="365.6655"
           r="43.7789"
           fx="-49.2041"
           fy="365.6655"
           gradientTransform="matrix(0.785 0 0 1.0956 65.5534 -339.4189)"
           gradientUnits="userSpaceOnUse">
          <stop
             offset="0"
             style="stop-color:#FFFFFF"
             id="stop90" />
          <stop
             offset="0.2191"
             style="stop-color:#CCF0FF"
             id="stop91" />
          <stop
             offset="0.6966"
             style="stop-color:#1D6CE9"
             id="stop92" />
        </radialGradient>
        <path
           style="fill:url(#aigrd19);fill-rule:evenodd;"
           d="M27.105,58.829c-5.305,0.739-6.049,12.559-6.081,13.11c-0.001,0.028-0.001,0.05-0.001,0.096c0,0.726,0.721,6.978,0.721,6.978s1.484-5.043,7.835-2.562c3.556,2.838,8.257-1.76,8.257-1.76l-0.018-0.104l-0.01-0.106      c-0.431-4.608-6.02-16.307-10.705-15.652z"
           id="path93" />
      </g>
      <path
         style="opacity:0.5;fill-rule:evenodd;"
         d="M108.715,27.153c-3.966-1.052-16.223-4.052-16.223-4.052l10.234-12.538c0,0,0.161-2.428,0.323-3.237s0.486-1.456,1.619-1.133c2.022,1.133,17.802,3.399,17.802,3.399s11.41,1.77,11.41,17.479c0,2.266-1.942,0.89-6.232,1.294     c0.082,0.081,0,0-8.657,11.714c-3.399-7.183-4.532-10.824-10.278-12.928z"
         id="path94" />
      <linearGradient
         id="aigrd20"
         gradientUnits="userSpaceOnUse"
         x1="90.6733"
         y1="81.0806"
         x2="97.268"
         y2="127.8431">
        <stop
           offset="0"
           style="stop-color:#FFFFFF"
           id="stop96" />
        <stop
           offset="1"
           style="stop-color:#000000"
           id="stop97" />
      </linearGradient>
      <path
         style="fill:url(#aigrd20);fill-rule:evenodd;"
         d="M74.18,85.002l31.509-11.132l4.614-1.027l0.13,25.774l-31.285,16.808l-4.558-0.97l-0.41-29.453z"
         id="path98" />
      <path
         style="fill:#B7B7B7;fill-rule:evenodd;"
         d="M74.129,84.997l4.567,0.787l0.452,29.641l-4.558-0.97l-0.461-29.458z"
         id="path99" />
      <path
         style="fill:#AAAAAA;fill-rule:evenodd;"
         d="M74.18,85.002l32.115-12.951l3.995,0.816L78.696,85.784l-4.516-0.782z"
         id="path100" />
    </g>
  </g>
</svg>
