<?xml version="1.0" encoding="iso-8859-1"?>
<!-- Generator: Adobe Illustrator 9.0, SVG Export Plug-In  -->
<!DOCTYPE svg PUBLIC "-//W3C//DTD SVG 20000303 Stylable//EN"   "http://www.w3.org/TR/2000/03/WD-SVG-20000303/DTD/svg-20000303-stylable.dtd" [
	<!ENTITY st0 "fill:url(#aigrd1);">
	<!ENTITY st1 "fill:url(#aigrd2);">
	<!ENTITY st2 "fill:url(#aigrd3);">
	<!ENTITY st3 "fill:url(#aigrd4);">
	<!ENTITY st4 "fill:url(#aigrd5);">
	<!ENTITY st5 "fill:url(#aigrd6);">
	<!ENTITY st6 "fill:url(#aigrd7);">
	<!ENTITY st7 "fill:url(#aigrd9);">
	<!ENTITY st8 "opacity:0.95;fill:url(#aigrd8);">
	<!ENTITY st9 "opacity:0.2;fill:#000030;">
	<!ENTITY st10 "fill:none;stroke:none;">
	<!ENTITY st11 "fill:#000000;">
	<!ENTITY st12 "fill-rule:nonzero;clip-rule:nonzero;fill:#FFFFFF;stroke:#FFFFFF;stroke-width:0;stroke-miterlimit:4;">
	<!ENTITY st13 "stroke:none;">
]>
<svg  width="48pt" height="48pt" viewBox="0 0 144 144" xml:space="preserve">
	<g id="Layer_x0020_1" style="&st12;">
		<path style="&st10;" d="M144,144H0V0h144v144z"/>
		<g style="&st13;">
			<g>
				<path style="&st9;" d="M13.785,95.031v-27.73l73.573-39.415l50.81,46.125v27.371l-74.293,39.413l-50.09-45.765z"/>
				<path d="M7.361,89.09V61.361l73.572-39.415l50.811,46.126v27.371l-74.293,39.413L7.361,89.09z"/>
				<linearGradient id="aigrd1" gradientUnits="userSpaceOnUse" x1="-48.7373" y1="-12.9014" x2="128.0486" y2="123.9651">
					<stop  offset="0" style="stop-color:#FFFFFF"/>
					<stop  offset="1" style="stop-color:#36364C"/>
				</linearGradient>
				<path style="&st0;" d="M83.392,20.966l49.414,44.857c0.835,0.758,1.316,1.838,1.316,2.966V94.48c0,1.481-0.781,2.821-2.089,3.514l-32.749,17.36c-18.125,9.602-38.668,20.485-39.681,21.037c-1.499,0.816-3.351,0.592-4.611-0.56L6.288,91.331
					c-0.829-0.758-1.304-1.831-1.304-2.955V62.318c0-1.458,0.793-2.8,2.07-3.504c0.776-0.427,15.51-8.309,32.571-17.435c17.877-9.563,38.139-20.401,39.144-20.956c1.498-0.826,3.356-0.607,4.623,0.542z M8.984,62.318c0,1.841,0,24.679,0,26.059
					C10,89.303,56.058,131.388,57.69,132.879c1.942-1.058,70.811-37.517,72.433-38.398c0-1.853,0-24.306,0-25.691c-1.025-0.928-47.782-43.374-49.421-44.863c-1.937,1.068-70.11,37.506-71.718,38.392z"/>
				<linearGradient id="aigrd2" gradientUnits="userSpaceOnUse" x1="13.6597" y1="67.7319" x2="66.54" y2="144.7978">
					<stop  offset="0" style="stop-color:#FFFFFF"/>
					<stop  offset="1" style="stop-color:#4B4B73"/>
				</linearGradient>
				<path style="&st1;" d="M57.552,109.88l0.036,19.77L10.67,88.097l-0.043-24.016l44.578,39.478c0,0,1.498,1.097,1.938,2.973c0.44,1.876,0.409,3.349,0.409,3.349z"/>
				<g>
					<linearGradient id="aigrd3" gradientUnits="userSpaceOnUse" x1="21.4077" y1="87.3262" x2="15.0931" y2="75.5799">
						<stop  offset="0" style="stop-color:#FFFFFF"/>
						<stop  offset="1" style="stop-color:#8C8C8C"/>
					</linearGradient>
					<path style="&st2;" d="M25.178,87.457c0,0,0.362,0.266,0.469,0.719c0.106,0.455,0.099,0.812,0.099,0.812l0.008,4.134l0.736,0.651l-0.01-5.479c0,0,0.009-0.409-0.113-0.93c-0.122-0.519-0.538-0.824-0.538-0.824L14.028,76.152l0.013,6.658l0.912,0.807
						l-0.011-5.162l10.236,9.001z"/>
					<linearGradient id="aigrd4" gradientUnits="userSpaceOnUse" x1="13.6255" y1="79.0225" x2="27.4173" y2="99.1221">
						<stop  offset="0" style="stop-color:#FFFFFF"/>
						<stop  offset="1" style="stop-color:#8C8CA4"/>
					</linearGradient>
					<path style="&st3;" d="M14.041,82.81l0.001,0.651l12.27,10.867l-0.001-0.652L14.041,82.81z"/>
					<linearGradient id="aigrd5" gradientUnits="userSpaceOnUse" x1="22.7739" y1="90.3213" x2="12.6377" y2="71.1759">
						<stop  offset="0.0112" style="stop-color:#008B00"/>
						<stop  offset="0.5225" style="stop-color:#00FF00"/>
						<stop  offset="1" style="stop-color:#006F00"/>
					</linearGradient>
					<path style="&st4;" d="M26.302,89.543c0,0,0.008-0.357-0.099-0.812c-0.106-0.454-0.47-0.719-0.47-0.719l-10.792-9.556l0.011,5.162L26.31,93.676l-0.008-4.133z"/>
				</g>
				<linearGradient id="aigrd6" gradientUnits="userSpaceOnUse" x1="124.2295" y1="88.6045" x2="49.9909" y2="117.1865">
					<stop  offset="0" style="stop-color:#FFFFFF"/>
					<stop  offset="1" style="stop-color:#4B4B73"/>
				</linearGradient>
				<path style="&st5;" d="M59.843,110.435l-0.038,19.768l69.292-36.268l0.043-24.017l-66.869,34.194c0,0-1.551,1.099-2.006,2.974c-0.455,1.877-0.422,3.349-0.422,3.349z"/>
				<linearGradient id="aigrd7" gradientUnits="userSpaceOnUse" x1="68.9414" y1="37.7959" x2="72.1415" y2="132.1982">
					<stop  offset="0" style="stop-color:#FFFFFF"/>
					<stop  offset="1" style="stop-color:#4B4B73"/>
				</linearGradient>
				<path style="&st6;" d="M80.511,25.341l47.366,43.542l-65.622,33.533c0,0-2.14,0.719-3.507,0.594c-1.37-0.128-3.041-1.51-3.041-1.51l-43.818-39.24l68.622-36.919z"/>
				<linearGradient id="aigrd8" gradientUnits="userSpaceOnUse" x1="91.6924" y1="17.4624" x2="91.6924" y2="119.7753">
					<stop  offset="0" style="stop-color:#FFFFFF"/>
					<stop  offset="1" style="stop-color:#4B4B73"/>
				</linearGradient>
				<path style="&st8;" d="M77.211,56.084c17.733-12.57,2.77-26.07,3.3-30.743l46.277,43.419l-67.224,33.525c0,0-13.799-23.91,17.646-46.201z"/>
			</g>
			<path style="&st11;" d="M22.034,63.183l37.689,32.188l57.655-28.725L79.281,32.42L22.034,63.183z"/>
			<linearGradient id="aigrd9" gradientUnits="userSpaceOnUse" x1="29.0776" y1="63.8579" x2="78.0591" y2="63.8579">
				<stop  offset="0" style="stop-color:#FFFFFF"/>
				<stop  offset="1" style="stop-color:#000000"/>
			</linearGradient>
			<path style="&st7;" d="M78.059,37.105c-8.144,4.376-48.981,26.833-48.981,26.833s28.073,23.976,31.23,26.672c1.161-0.579,5.259-2.62,10.674-5.318c7.996-3.983,5.243-13.96,0.965-23.739c-2.83-6.468-8.543-16.478,6.112-24.448z"/>
			<path d="M61.326,66.679L60.71,81.257l-4.398-3.654l0.495-10.092l-12.179,0.386l-4.398-3.653l17.592-0.475l3.503,2.911z"/>
			<path d="M85.519,71.863l-10.698,5.839l-2.654-3.239l10.698-5.839l2.654,3.239z"/>
		</g>
	</g>
</svg>
