<?xml version="1.0" encoding="UTF-8" standalone="no"?>
<!-- Generator: Adobe Illustrator 9.0, SVG Export Plug-In  -->
<svg
   xmlns:dc="http://purl.org/dc/elements/1.1/"
   xmlns:cc="http://creativecommons.org/ns#"
   xmlns:rdf="http://www.w3.org/1999/02/22-rdf-syntax-ns#"
   xmlns:svg="http://www.w3.org/2000/svg"
   xmlns="http://www.w3.org/2000/svg"
   xmlns:sodipodi="http://sodipodi.sourceforge.net/DTD/sodipodi-0.dtd"
   xmlns:inkscape="http://www.inkscape.org/namespaces/inkscape"
   width="60"
   height="60"
   viewBox="0 0 66 48"
   xml:space="preserve"
   id="svg2437"
   sodipodi:version="0.32"
   inkscape:version="0.46"
   sodipodi:docname="folder-drag-accept.svg"
   inkscape:output_extension="org.inkscape.output.svg.inkscape"
   version="1.0"><metadata
   id="metadata2483"><rdf:RDF><cc:Work
       rdf:about=""><dc:format>image/svg+xml</dc:format><dc:type
         rdf:resource="http://purl.org/dc/dcmitype/StillImage" /></cc:Work></rdf:RDF></metadata><defs
   id="defs2481"><inkscape:perspective
     sodipodi:type="inkscape:persp3d"
     inkscape:vp_x="0 : 30 : 1"
     inkscape:vp_y="0 : 1000 : 0"
     inkscape:vp_z="82.5 : 30 : 1"
     inkscape:persp3d-origin="41.25 : 20 : 1"
     id="perspective2485" /></defs><sodipodi:namedview
   inkscape:window-height="975"
   inkscape:window-width="1278"
   inkscape:pageshadow="2"
   inkscape:pageopacity="0.0"
   guidetolerance="10.0"
   gridtolerance="10.0"
   objecttolerance="10.0"
   borderopacity="1.0"
   bordercolor="#666666"
   pagecolor="#ffffff"
   id="base"
   showgrid="true"
   inkscape:snap-global="false"
   inkscape:zoom="6.6181818"
   inkscape:cx="30.911149"
   inkscape:cy="30.13135"
   inkscape:window-x="0"
   inkscape:window-y="25"
   inkscape:current-layer="svg2437"><inkscape:grid
     type="xygrid"
     visible="true"
     enabled="true"
     id="grid2487" /></sodipodi:namedview>
	<g
   id="Layer_x0020_3"
   style="fill-rule:nonzero;stroke:#000000;stroke-width:0.88808078;stroke-miterlimit:4"
   transform="matrix(1.1254838,0,0,1.1265639,-1.1877794,-5.0376705)">
		<path
   style="stroke:none"
   d="M 39.7,8.6 C 38.6,8.9 37.8,9.4 37,9.9 C 36.4,10.3 35.8,10.6 35.4,10.6 C 35.1,10.6 33.6,10.3 32.7,10.1 C 29,9.2 23.8,8 20.8,9.2 C 19.5,9.7 18.1,11.2 16.6,13.9 C 16.4,13.8 16.1,13.8 16.1,13.8 C 12.8,13 10.2,12.3 8.4,12 C 5,11.3 3.7,11.2 2.7,12.3 C 2.3,12.7 1.9,13.3 1.9,14.3 C 1.9,14.9 1.9,16.6 5.9,24.1 C 7.6,27.4 10.1,31.6 11.4,32.9 C 11.7,33.2 12.2,33.5 12.9,33.9 C 14.4,34.8 17,35.9 21,37.3 C 26.1,39 31.7,40.6 36.1,41.4 C 43.7,42.9 45.9,42.1 47,41.1 C 49.6,38.9 51.7,33.3 52.9,29 C 53.5,26.8 54.8,22.1 54.8,19.3 C 54.8,18.6 54.7,18.1 54.6,17.7 C 53.7,15.6 51.9,15.2 50.9,15 C 50.8,15 50.6,14.9 50.5,14.9 C 50.5,14.8 50.5,14.7 50.5,14.6 C 50.4,13.7 50.3,12.2 49,10.8 C 46.8,8.6 42,8.2 39.7,8.8 L 39.7,8.6 z"
   id="path2440" />
		<path
   style="opacity:0.35;stroke:none"
   d="M 42.4,44.9 C 38.5,45.6 14,39.3 12,37.2 C 10,35.1 20.5,31.7 25.5,31.1 C 30.6,30.5 55.4,33.8 58.1,36.5 C 60.8,39.2 46.2,44.2 42.4,45 L 42.4,44.9 z"
   id="path2442" />
		<path
   style="stroke:none"
   d="M 39.5,9.7 C 38.6,10 37.8,10.4 37.1,10.9 C 36.3,11.4 35.7,11.8 35,11.8 C 34.6,11.8 33.3,11.5 32.1,11.2 C 28.4,10.4 23.4,9.3 20.7,10.3 C 17.8,11.4 14.5,19.6 13.6,22.1 C 12.8,24.2 12.2,26.1 11.8,27.7 C 11.2,30.3 11.4,31.3 11.7,31.8 C 12,32.3 12.5,33.4 20.8,36.2 C 25.8,37.9 31.4,39.4 35.8,40.3 C 43,41.7 45,41 45.9,40.2 C 48.4,38.1 50.5,32 51.5,28.6 C 51.8,27.7 54,19.8 53.2,17.9 C 52.5,16.3 51.2,16 50.2,15.8 C 49.7,15.7 49.4,15.6 49.2,15.4 C 49.1,15.3 49,15.1 49,14.5 C 48.9,13.7 48.9,12.5 47.8,11.4 C 46,9.6 41.5,9.1 39.5,9.7 L 39.5,9.7 z"
   id="path2444" />
		<linearGradient
   id="aigrd1"
   gradientUnits="userSpaceOnUse"
   x1="36.778301"
   y1="12.9629"
   x2="29.5527"
   y2="32.317299">
			<stop
   offset="0"
   style="stop-color:#989C80"
   id="stop2447" />
			<stop
   offset="1"
   style="stop-color:#000000"
   id="stop2449" />
		</linearGradient>
		<path
   style="fill:url(#aigrd1);stroke:none"
   d="M 20.9,11 C 17.8,12.2 11.5,28.5 12.6,30.7 C 13.7,32.9 41.4,41.6 44.8,38.7 C 48.6,35.5 52.4,19.6 51.7,17.9 C 51,16.2 49.1,16.9 48,15.9 C 46.9,14.8 48,13.3 46.6,11.9 C 45.2,10.5 41.4,10 39.6,10.5 C 37.8,11 36.5,12.6 34.7,12.6 C 32.9,12.6 24.2,9.7 20.9,11 L 20.9,11 z"
   id="path2451" />
		<path
   style="fill:#c1c2b4;stroke:none"
   d="M 12.6,30.6 C 12.9,25.2 17.8,12.5 20.6,11 C 23.4,9.5 33.1,12.6 34.7,12.6 C 36.3,12.6 37.5,11.1 39.6,10.5 C 41.7,9.9 45.3,10.6 46.6,11.9 C 47.7,13 47.3,15.1 47.8,15.7 C 48.3,16.2 50.9,16.9 51.4,17.5 C 51.4,17.5 48.4,16.7 47.6,15.9 C 46.8,15.1 47,13.4 46.3,12.7 C 45.7,12.1 40.6,11 39.2,11.5 C 37.8,12.1 36.7,13.6 34.8,13.9 C 33,14.2 24.1,11 21.4,12.6 C 18.7,14.2 12.7,30.6 12.7,30.6 L 12.6,30.6 z"
   id="path2453" />
		<path
   style="stroke:none"
   d="M 3,13.1 C 2.8,13.3 2.5,13.7 2.5,14.4 C 2.5,16.1 4.6,20.4 6.4,23.7 C 8.2,27.2 10.6,31.1 11.7,32.3 C 13.5,34.1 25.6,37.6 27,38 C 32.1,39.5 41.2,41.8 44,41.2 C 44.5,41.1 45.6,40.6 45.6,38.6 C 45.6,36.2 44,31.8 42.4,28.5 C 41.5,26.6 40.6,24.9 39.8,23.6 C 38.4,21.4 37.5,21 36.9,20.8 C 36.4,20.7 34.8,20.2 32.7,19.6 C 28.2,18.3 21.4,16.5 15.5,15 C 12.2,14.2 9.6,13.5 7.8,13.2 C 4.4,12.5 3.6,12.6 3.1,13.2 L 3,13.1 z"
   id="path2455" />
		<linearGradient
   id="aigrd2"
   gradientUnits="userSpaceOnUse"
   x1="23.096201"
   y1="24.3228"
   x2="27.409401"
   y2="39.6422">
			<stop
   offset="0"
   style="stop-color:#DEDFCE"
   id="stop2458" />
			<stop
   offset="1"
   style="stop-color:#C2C4B5"
   id="stop2460" />
		</linearGradient>
		<path
   style="fill:url(#aigrd2);stroke:none"
   d="M 42.9,39.2 C 45.6,38.5 38.3,22.1 35.8,21.5 C 33.3,20.9 4.2,12.5 3.2,13.5 C 2.2,14.5 10,28.8 11.9,30.7 C 13.8,32.6 38.8,40.2 42.8,39.2 L 42.9,39.2 z"
   id="path2462" />
		<linearGradient
   id="aigrd3"
   gradientUnits="userSpaceOnUse"
   x1="17.033701"
   y1="20.6353"
   x2="19.894501"
   y2="30.796101">
			<stop
   offset="0"
   style="stop-color:#DEDFCE"
   id="stop2465" />
			<stop
   offset="1"
   style="stop-color:#FFFFFF"
   id="stop2467" />
		</linearGradient>
		<path
   style="fill:url(#aigrd3);stroke:none"
   d="M 18.9,33.7 C 13.3,21.4 32.6,32.7 28.6,19.4 C 28.6,19.4 3.8,11.9 3.1,13.7 C 2.4,15.6 10.6,29.4 11.9,30.8 C 13.2,32.1 18.9,33.8 18.9,33.8 L 18.9,33.7 z"
   id="path2469" />
		<path
   style="fill:#f1f2e1;stroke:none"
   d="M 11.9,30.7 C 11.9,30.7 4.6,17.1 5.5,15.7 C 6.4,14.3 36.1,21.6 36.1,21.6 C 34.9,21 4.4,12.2 3.2,13.5 C 2.1,14.7 10.4,29.2 11.9,30.7 L 11.9,30.7 z"
   id="path2471" />
		<path
   style="fill:#808078;stroke:none"
   d="M 50.9,17 C 52.3,18.2 49.4,31.3 45.5,38.1 C 49.8,32.1 51.9,20.3 51.9,18.8 C 51.9,18.4 51.7,17.4 50.9,17.1 L 50.9,17 z"
   id="path2473" />
		<path
   style="fill:none;stroke:none"
   d="M 1.8,45 L 58.4,45 L 58.4,6.6 L 1.8,6.6 L 1.8,45 z"
   id="path2475" />
	</g>
	<g
   id="bbox"
   style="fill-rule:nonzero;stroke:#000000;stroke-miterlimit:4">
		<path
   style="fill:none;stroke:none"
   d="M 66,48 L 0,48 L 0,0 L 66,0 L 66,48 z"
   id="path2478" />
	</g>
</svg>