<?xml version="1.0" encoding="UTF-8" standalone="no"?>
<!-- Created with Inkscape (http://www.inkscape.org/) -->
<svg id="svg1" height="48" xmlns:dc="http://purl.org/dc/elements/1.1/" width="48" version="1.0" xmlns:xlink="http://www.w3.org/1999/xlink" xmlns:cc="http://web.resource.org/cc/" xmlns:rdf="http://www.w3.org/1999/02/22-rdf-syntax-ns#" xmlns="http://www.w3.org/2000/svg" y="0" x="0">
 <metadata id="metadata162">
  <rdf:RDF>
   <cc:Work rdf:about="">
    <dc:format>image/svg+xml</dc:format>
    <dc:type rdf:resource="http://purl.org/dc/dcmitype/StillImage"/>
    <dc:title>Document Open</dc:title>
    <dc:creator>
     <cc:Agent>
      <dc:title>Lapo Calamandrei</dc:title>
     </cc:Agent>
    </dc:creator>
    <dc:date/>
    <cc:license rdf:resource="http://creativecommons.org/licenses/GPL/2.0/"/>
    <dc:identifier/>
    <dc:subject>
     <rdf:Bag>
      <rdf:li>document</rdf:li>
      <rdf:li>open</rdf:li>
      <rdf:li>file</rdf:li>
      <rdf:li>folder</rdf:li>
      <rdf:li>sheet</rdf:li>
      <rdf:li>paper</rdf:li>
     </rdf:Bag>
    </dc:subject>
   </cc:Work>
   <cc:License rdf:about="http://creativecommons.org/licenses/GPL/2.0/">
    <cc:permits rdf:resource="http://web.resource.org/cc/Reproduction"/>
    <cc:permits rdf:resource="http://web.resource.org/cc/Distribution"/>
    <cc:requires rdf:resource="http://web.resource.org/cc/Notice"/>
    <cc:permits rdf:resource="http://web.resource.org/cc/DerivativeWorks"/>
    <cc:requires rdf:resource="http://web.resource.org/cc/ShareAlike"/>
    <cc:requires rdf:resource="http://web.resource.org/cc/SourceCode"/>
   </cc:License>
  </rdf:RDF>
 </metadata>
 <defs id="defs3">
  <linearGradient id="linearGradient24117" y2="30.009" gradientUnits="userSpaceOnUse" x2="7.875" y1="8.8349" x1="7.875">
   <stop id="stop3020" stop-color="#fff" offset="0"/>
   <stop id="stop3022" stop-color="#fff" stop-opacity="0" offset="1"/>
  </linearGradient>
  <linearGradient id="linearGradient24202" y2="-73.592" gradientUnits="userSpaceOnUse" x2="20.625" gradientTransform="translate(707.5 -194.43)" y1="-89.501" x1="20.625">
   <stop id="stop3313" stop-color="#888a85" offset="0"/>
   <stop id="stop3315" stop-color="#555753" offset="1"/>
  </linearGradient>
  <radialGradient id="radialGradient24534" gradientUnits="userSpaceOnUse" cy="16.085" cx="10.805" gradientTransform="matrix(2.9092 .0046334 0 .19663 687.69 -272.15)" r="22.731">
   <stop id="stop3150" stop-color="#fff" offset="0"/>
   <stop id="stop3152" stop-color="#fff" stop-opacity="0" offset="1"/>
  </radialGradient>
  <linearGradient id="linearGradient24537" y2="-29.345" gradientUnits="userSpaceOnUse" x2="17.02" gradientTransform="matrix(1 0 0 .50779 707.5 -252.82)" y1="-16.221" x1="17.02">
   <stop id="stop3102" stop-color="#fff" offset="0"/>
   <stop id="stop2071" stop-color="#fff" stop-opacity="0" offset="1"/>
  </linearGradient>
  <linearGradient id="linearGradient24540" y2="25.304" gradientUnits="userSpaceOnUse" x2="20.538" gradientTransform="matrix(1 0 0 .56332 707.5 -281.44)" y1="34.941" x1="20.663">
   <stop id="stop4102" stop-color="#75507b" offset="0"/>
   <stop id="stop4104" stop-color="#5c3566" offset="1"/>
  </linearGradient>
  <linearGradient id="linearGradient24542" y2="-60.72" gradientUnits="userSpaceOnUse" x2="9.4176" gradientTransform="matrix(1 0 0 .54096 707.5 -234.46)" y1="-44.499" x1="9.4176">
   <stop id="stop2896" stop-color="#39213f" offset="0"/>
   <stop id="stop2900" stop-color="#75507b" offset=".47619"/>
   <stop id="stop2898" stop-color="#5c3566" offset="1"/>
  </linearGradient>
  <linearGradient id="linearGradient25136" y2="-27.444" gradientUnits="userSpaceOnUse" x2="84.25" gradientTransform="matrix(.96774 0 0 1 646.84 -241.43)" y1="-51.881" x1="84.25">
   <stop id="stop2504" stop-color="#babdb6" offset="0"/>
   <stop id="stop13256" stop-color="#eeeeec" offset=".26672"/>
   <stop id="stop2460" stop-color="#fff" offset=".37147"/>
   <stop id="stop2506" stop-color="#888a85" offset="1"/>
  </linearGradient>
  <linearGradient id="linearGradient25138" y2="-21.438" gradientUnits="userSpaceOnUse" x2="103.81" gradientTransform="translate(643.5 -248.43)" y1="-41.689" x1="103.81">
   <stop id="stop11427" stop-color="#555753" offset="0"/>
   <stop id="stop11429" stop-color="#2e3436" offset="1"/>
  </linearGradient>
  <linearGradient id="linearGradient16520" y2="-51.375" gradientUnits="userSpaceOnUse" x2="100.75" y1="-26.999" x1="100.75">
   <stop id="stop16516" stop-color="#fff" stop-opacity=".18293" offset="0"/>
   <stop id="stop2824" stop-color="#fff" offset=".82143"/>
   <stop id="stop16518" stop-color="#fff" stop-opacity="0" offset="1"/>
  </linearGradient>
 </defs>
 <g id="layer2">
  <g id="g25170" transform="translate(-708.5 297.43)">
   <path id="path23297" stroke-linejoin="miter" d="m716-289.93c-0.9 0-1.33 0.31-1.5 1.45-1.88 9.98-1.78 18.08-1.5 28.18 0 0.75 0.62 1.37 1.38 1.37h35.25c0.75 0 1.32-0.62 1.37-1.37 1-18.04-1-23.27-1-23.27 0-0.75-0.62-1.36-1.37-1.36h-17.63l-1-3.4c-0.25-0.83-0.6-1.6-1.5-1.6h-12.5z" stroke="#555753" stroke-linecap="round" stroke-miterlimit="4" stroke-dasharray="none" stroke-width="1" fill="url(#linearGradient24202)"/>
   <path id="path23299" opacity=".48627" stroke-linejoin="miter" d="m8.5 8.5c-0.3322 0-0.3469 0.0341-0.3438 0.0312 0.0032-0.0028-0.119 0.129-0.1874 0.5938 0.0001 0.0104 0.0001 0.0208 0 0.0312-1.8584 9.8478-1.7527 19.849-1.4688 29.938 0.0002 0.01 0.0002 0.021 0 0.031 0 0.208 0.1589 0.375 0.375 0.375h35.25c0.215 0 0.355-0.145 0.375-0.438 0.995-17.959-0.938-24.937-0.938-24.937-0.031-0.08-0.052-0.164-0.062-0.25 0-0.208-0.159-0.375-0.375-0.375h-17.625c-0.437-0.005-0.819-0.298-0.938-0.719l-1-3.406c-0.109-0.3716-0.252-0.6649-0.343-0.7812-0.092-0.1164-0.045-0.0938-0.219-0.0938h-12.5z" transform="translate(707.5 -297.43)" stroke="url(#linearGradient24117)" stroke-linecap="round" stroke-miterlimit="4" stroke-dasharray="none" stroke-width="1" fill="none"/>
   <path id="path23303" opacity=".047872" d="m713.67-265.43c-2.24 0-4.05 2.2-4.05 4.93s1.81 4.93 4.05 4.93h37.28c2.24 0 4.05-2.2 4.05-4.93s-1.81-4.93-4.05-4.93h-37.28z" fill-rule="evenodd" stroke-width="3pt"/>
   <path id="path23305" opacity=".047872" d="m713.67-265.1c-2.09 0-3.78 2.05-3.78 4.6s1.69 4.6 3.78 4.6h37.28c2.09 0 3.78-2.05 3.78-4.6s-1.69-4.6-3.78-4.6h-37.28z" fill-rule="evenodd" stroke-width="3pt"/>
   <path id="path23307" opacity=".047872" d="m713.67-264.78c-1.94 0-3.51 1.91-3.51 4.28s1.57 4.28 3.51 4.28h37.28c1.94 0 3.51-1.91 3.51-4.28s-1.57-4.28-3.51-4.28h-37.28z" fill-rule="evenodd" stroke-width="3pt"/>
   <path id="path23309" opacity=".047872" d="m713.67-264.45c-1.79 0-3.24 1.76-3.24 3.95s1.45 3.95 3.24 3.95h37.28c1.79 0 3.24-1.76 3.24-3.95s-1.45-3.95-3.24-3.95h-37.28z" fill-rule="evenodd" stroke-width="3pt"/>
   <path id="path23311" opacity=".047872" d="m713.67-264.12c-1.64 0-2.97 1.62-2.97 3.62s1.33 3.62 2.97 3.62h37.28c1.64 0 2.97-1.62 2.97-3.62s-1.33-3.62-2.97-3.62h-37.28z" fill-rule="evenodd" stroke-width="3pt"/>
   <path id="path23313" opacity=".047872" d="m713.67-263.79c-1.49 0-2.7 1.47-2.7 3.29s1.21 3.29 2.7 3.29h37.28c1.49 0 2.7-1.47 2.7-3.29s-1.21-3.29-2.7-3.29h-37.28z" fill-rule="evenodd" stroke-width="3pt"/>
   <path id="path23315" opacity=".047872" d="m713.67-263.46c-1.34 0-2.43 1.32-2.43 2.96s1.09 2.96 2.43 2.96h37.28c1.35 0 2.43-1.32 2.43-2.96s-1.08-2.96-2.43-2.96h-37.28z" fill-rule="evenodd" stroke-width="3pt"/>
   <path id="path23317" opacity=".047872" d="m713.67-263.13c-1.19 0-2.16 1.17-2.16 2.63s0.97 2.63 2.16 2.63h37.28c1.2 0 2.16-1.17 2.16-2.63s-0.96-2.63-2.16-2.63h-37.28z" fill-rule="evenodd" stroke-width="3pt"/>
   <rect id="rect23319" stroke-linejoin="round" stroke-dasharray="none" rx="1.5" ry="1.5" height="3" width="10" stroke="#d3d7cf" stroke-linecap="round" stroke-miterlimit="4" y="-286.93" x="717" stroke-width="1" fill="#eeeeec"/>
   <path id="path23321" d="m12 11.5a0.25 0.5 0 1 1 -0.5 0 0.25 0.5 0 1 1 0.5 0z" transform="matrix(2 0 0 1 694.5 -296.43)" fill="#000"/>
   <path id="path23323" d="m12 11.5a0.25 0.5 0 1 1 -0.5 0 0.25 0.5 0 1 1 0.5 0z" transform="matrix(2 0 0 1 696.5 -296.43)" fill="#000"/>
   <path id="path23325" d="m12 11.5a0.25 0.5 0 1 1 -0.5 0 0.25 0.5 0 1 1 0.5 0z" transform="matrix(2 0 0 1 698.5 -296.43)" fill="#000"/>
   <path id="path23327" d="m12 11.5a0.25 0.5 0 1 1 -0.5 0 0.25 0.5 0 1 1 0.5 0z" transform="matrix(2 0 0 1 700.5 -296.43)" fill="#000"/>
   <path id="path23329" d="m12 11.5a0.25 0.5 0 1 1 -0.5 0 0.25 0.5 0 1 1 0.5 0z" transform="matrix(2 0 0 1 702.5 -296.43)" fill="#000"/>
   <path id="path23333" stroke-linejoin="round" d="m716-294.93h32s-1.5 2.5-1 27h-30c0.5-24.5-1-27-1-27z" stroke-dashoffset="10" stroke="url(#linearGradient25138)" stroke-linecap="round" stroke-miterlimit="4" stroke-width="1" fill="url(#linearGradient25136)"/>
   <path id="path2517" opacity=".7" stroke-linejoin="round" d="m73.781-52.5c0.134 0.693 0.267 1.571 0.407 3.219 0.306 3.613 0.52 10.315 0.312 21.781h28c-0.21-11.466 0.01-18.168 0.31-21.781 0.14-1.648 0.27-2.526 0.41-3.219h-29.439z" transform="translate(643.5 -241.43)" stroke-dashoffset="10" stroke="url(#linearGradient16520)" stroke-linecap="round" stroke-miterlimit="4" stroke-width="1" fill="none"/>
   <path id="path23336" stroke-linejoin="miter" d="m717-293.93h30" stroke="#fff" stroke-linecap="round" stroke-width="1px" fill="none"/>
   <path id="path23340" opacity=".2" stroke-linejoin="miter" d="m720.5-290.93h23" stroke="#000" stroke-linecap="round" stroke-width="1px" fill="none"/>
   <path id="path23342" opacity=".2" stroke-linejoin="miter" d="m721-286.93h22" stroke="#000" stroke-linecap="round" stroke-width="1px" fill="none"/>
   <path id="path23344" opacity=".2" stroke-linejoin="miter" d="m721-282.93h22" stroke="#000" stroke-linecap="round" stroke-width="1px" fill="none"/>
   <path id="path23346" opacity=".2" stroke-linejoin="miter" d="m721-278.93h22" stroke="#000" stroke-linecap="round" stroke-width="1px" fill="none"/>
   <path id="path23348" opacity=".2" stroke-linejoin="miter" d="m721-274.93h22" stroke="#000" stroke-linecap="round" stroke-width="1px" fill="none"/>
   <path id="path23352" stroke-linejoin="miter" d="m710.15-269.89h43.7c0.64 0 1.15 0.2 1.15 0.44-3 4.16-3 6.02-3 7.56 0 0.96-0.5 2.82-2.15 2.86h-35.7c-1.15-0.04-2.15-1.9-2.15-2.86-0.06-1.54 0-3.4-3-7.56 0-0.24 0.51-0.44 1.15-0.44z" stroke="url(#linearGradient24542)" stroke-linecap="round" stroke-miterlimit="4" stroke-width="1" fill="url(#linearGradient24540)"/>
   <path id="path23354" opacity=".1" stroke-linejoin="miter" d="m710.13-269.33c2.73 3.62 2.87 3.61 2.87 6.93 0.04 1.34 0.42 1.66 1.22 2.25h35.59 0.03c1.08-0.27 1-1.03 1.16-2.25 0-2.35 0.07-3.18 2.88-6.93h-0.04-43.68-0.03z" stroke="url(#linearGradient24537)" stroke-linecap="round" stroke-miterlimit="4" stroke-width="1" fill="none"/>
   <path id="path23356" opacity=".35" stroke-linejoin="miter" d="m710-268.93h44" stroke="url(#radialGradient24534)" stroke-linecap="round" stroke-width="1px" fill="none"/>
  </g>
 </g>
</svg>
