<?xml version="1.0" encoding="UTF-8" standalone="no"?>
<!-- Created with Inkscape (http://www.inkscape.org/) -->
<svg id="svg2" xmlns:rdf="http://www.w3.org/1999/02/22-rdf-syntax-ns#" xmlns="http://www.w3.org/2000/svg" height="48" width="48" version="1.0" xmlns:cc="http://web.resource.org/cc/" xmlns:xlink="http://www.w3.org/1999/xlink" xmlns:dc="http://purl.org/dc/elements/1.1/">
 <defs id="defs4">
  <linearGradient id="linearGradient3488">
   <stop id="stop3490" stop-color="#000" stop-opacity=".39216" offset="0"/>
   <stop id="stop3492" stop-color="#fff" offset="1"/>
  </linearGradient>
  <linearGradient id="linearGradient3317">
   <stop id="stop3319" stop-color="#d3d7cf" offset="0"/>
   <stop id="stop3321" stop-color="#888a85" offset="1"/>
  </linearGradient>
  <linearGradient id="linearGradient3919" y2="152.12" xlink:href="#linearGradient3488" gradientUnits="userSpaceOnUse" x2="63.198" y1="145.05" x1="63.198"/>
  <linearGradient id="linearGradient3921" y2="89.129" xlink:href="#linearGradient3488" gradientUnits="userSpaceOnUse" x2="25.179" gradientTransform="matrix(0,1,-1,0,155,110)" y1="89.129" x1="19.031"/>
  <linearGradient id="linearGradient3923" y2="7.4072" gradientUnits="userSpaceOnUse" x2="9.2494" gradientTransform="matrix(0 1.7131 -1.7596 0 90.99 111.17)" y1="16.016" x1="10.125">
   <stop id="stop1987" stop-color="#ad7fa8" offset="0"/>
   <stop id="stop1989" stop-color="#fff" offset="1"/>
  </linearGradient>
  <linearGradient id="linearGradient3925" y2="9.785" gradientUnits="userSpaceOnUse" x2="11.996" gradientTransform="matrix(0 2.5696 -1.7596 0 90.99 95.326)" y1="14.98" x1="19.682">
   <stop id="stop3333" stop-color="#2e3436" offset="0"/>
   <stop id="stop3335" stop-color="#5c3566" offset="1"/>
  </linearGradient>
  <linearGradient id="linearGradient3927" y2="74.152" xlink:href="#linearGradient3317" gradientUnits="userSpaceOnUse" x2="18.341" gradientTransform="matrix(0,1,-1,0,155,110)" y1="91.791" x1="13.614"/>
  <linearGradient id="linearGradient3929" y2="81.938" xlink:href="#linearGradient3317" gradientUnits="userSpaceOnUse" x2="40" gradientTransform="translate(110,-155)" y1="97.875" x1="40"/>
  <radialGradient id="radialGradient3931" gradientUnits="userSpaceOnUse" cy="10.5" cx="5.0273" gradientTransform="matrix(0 2.6998 -.31004 0 75.77 103.26)" r="9">
   <stop id="stop2797" stop-color="#fff" offset="0"/>
   <stop id="stop2799" stop-color="#eeeeec" offset="1"/>
  </radialGradient>
  <linearGradient id="linearGradient3933" y2="84.534" gradientUnits="userSpaceOnUse" x2="33.469" y1="80.469" x1="33.469">
   <stop id="stop3698" stop-color="#fff" offset="0"/>
   <stop id="stop3700" stop-color="#fff" stop-opacity=".40996" offset="1"/>
  </linearGradient>
 </defs>
 <metadata id="metadata7">
  <rdf:RDF>
   <cc:Work rdf:about="">
    <dc:format>image/svg+xml</dc:format>
    <dc:type rdf:resource="http://purl.org/dc/dcmitype/StillImage"/>
    <dc:creator>
     <cc:Agent>
      <dc:title>Lapo Calamandrei</dc:title>
     </cc:Agent>
    </dc:creator>
    <cc:license rdf:resource="http://creativecommons.org/licenses/GPL/2.0/"/>
   </cc:Work>
   <cc:License rdf:about="http://creativecommons.org/licenses/GPL/2.0/">
    <cc:permits rdf:resource="http://web.resource.org/cc/Reproduction"/>
    <cc:permits rdf:resource="http://web.resource.org/cc/Distribution"/>
    <cc:requires rdf:resource="http://web.resource.org/cc/Notice"/>
    <cc:permits rdf:resource="http://web.resource.org/cc/DerivativeWorks"/>
    <cc:requires rdf:resource="http://web.resource.org/cc/ShareAlike"/>
    <cc:requires rdf:resource="http://web.resource.org/cc/SourceCode"/>
   </cc:License>
  </rdf:RDF>
 </metadata>
 <g id="layer2">
  <g id="g3909" transform="matrix(-1,0,0,1,96,-109)">
   <g id="g3905" opacity=".5">
    <rect id="rect3895" rx="2.5" ry="2.5" height="9" width="33" y="144" x="56" fill="url(#linearGradient3919)"/>
    <path id="path3826" fill="url(#linearGradient3921)" d="m78.562 144l9.844-11.94c0.37-0.45 0.57-1.01 0.563-1.59-0.01-1.36-1.115-2.45-2.469-2.44h-4.562l0.031-12.53c0.003-0.66-0.255-1.29-0.719-1.75s-1.094-0.72-1.75-0.72h-14c-0.656 0-1.286 0.26-1.75 0.72s-0.722 1.09-0.719 1.75v12.53h-4.531c-0.958-0.01-1.841 0.54-2.25 1.41-0.409 0.86-0.271 1.89 0.344 2.62l9.844 11.94 4.192 2h3.741l4.191-2z"/>
   </g>
   <path id="path3828" stroke-linejoin="round" d="m86.5 130.5h-7.031l0.031-15h-14v15h-7l13.188 16h-13.188v4h28v-4h-13.188l13.188-16z" stroke-dashoffset="1.2" stroke="url(#linearGradient3925)" stroke-linecap="round" stroke-miterlimit="4" stroke-dasharray="none" stroke-width="1" fill="url(#linearGradient3923)"/>
   <path id="path3830" fill="url(#linearGradient3927)" d="m72.5 116h-6.5v14.5c-0.002 0.28-0.225 0.5-0.5 0.5h-5.969l12.969 15.72v-30.72z"/>
   <rect id="rect3832" transform="matrix(0,1,-1,0,0,0)" height="13.5" width="3" y="-72.5" x="147" fill="url(#linearGradient3929)"/>
   <path id="path3834" stroke-linejoin="miter" d="m72.5 116.5v33" stroke="url(#radialGradient3931)" stroke-linecap="square" stroke-width="1px" fill="none"/>
   <path id="path3836" stroke-linejoin="miter" d="m37.5 69.5v12.188c-0.004 0.326-0.168 0.629-0.438 0.812 0.27 0.183 0.434 0.486 0.438 0.812v12.188h2v-26h-2zm-16 1.125v4.906c0.001 0.266-0.104 0.521-0.292 0.708-0.188 0.188-0.443 0.293-0.708 0.292l-14-0.031v12h14c0.265-0.001 0.52 0.104 0.708 0.292s0.293 0.443 0.292 0.708v4.875l14.375-11.844 0.031-0.031-0.031-0.031-14.375-11.844z" transform="matrix(0,1,-1,0,155,110)" stroke-dashoffset="1.2" stroke="url(#linearGradient3933)" stroke-linecap="round" stroke-miterlimit="4" stroke-dasharray="none" stroke-width="1" fill="none"/>
  </g>
 </g>
</svg>
