<?xml version="1.0" encoding="UTF-8" standalone="no"?>
<!-- Created with Inkscape (http://www.inkscape.org/) -->
<svg id="svg2" xmlns:rdf="http://www.w3.org/1999/02/22-rdf-syntax-ns#" xmlns="http://www.w3.org/2000/svg" height="48" width="48" version="1.0" xmlns:cc="http://web.resource.org/cc/" xmlns:xlink="http://www.w3.org/1999/xlink" xmlns:dc="http://purl.org/dc/elements/1.1/">
 <defs id="defs4">
  <linearGradient id="linearGradient3488">
   <stop id="stop3490" stop-color="#000" stop-opacity=".39216" offset="0"/>
   <stop id="stop3492" stop-color="#fff" offset="1"/>
  </linearGradient>
  <linearGradient id="linearGradient3317">
   <stop id="stop3319" stop-color="#d3d7cf" offset="0"/>
   <stop id="stop3321" stop-color="#888a85" offset="1"/>
  </linearGradient>
  <linearGradient id="linearGradient3569" y2="268.68" xlink:href="#linearGradient3488" gradientUnits="userSpaceOnUse" x2="-84.125" gradientTransform="translate(4 -207.03)" y1="262.16" x1="-84.125"/>
  <linearGradient id="linearGradient3574" y2="89.129" xlink:href="#linearGradient3488" gradientUnits="userSpaceOnUse" x2="19.508" gradientTransform="matrix(0 -1 1 0 -159 97.031)" y1="89.129" x1="36.643"/>
  <linearGradient id="linearGradient3576" y2="7.4072" gradientUnits="userSpaceOnUse" x2="9.2494" gradientTransform="matrix(0 1.7131 1.7596 0 -94.49 52.141)" y1="16.016" x1="10.125">
   <stop id="stop1987" stop-color="#ad7fa8" offset="0"/>
   <stop id="stop1989" stop-color="#fff" offset="1"/>
  </linearGradient>
  <linearGradient id="linearGradient3578" y2="12.869" gradientUnits="userSpaceOnUse" x2="11.776" gradientTransform="matrix(0 2.5696 1.7596 0 -94.49 36.295)" y1="15.441" x1="18.566">
   <stop id="stop3333" stop-color="#2e3436" offset="0"/>
   <stop id="stop3335" stop-color="#5c3566" offset="1"/>
  </linearGradient>
  <linearGradient id="linearGradient3580" y2="74.152" xlink:href="#linearGradient3317" gradientUnits="userSpaceOnUse" x2="18.341" gradientTransform="matrix(0 1 1 0 -158.5 50.969)" y1="91.791" x1="13.614"/>
  <linearGradient id="linearGradient3583" y2="81.938" xlink:href="#linearGradient3317" gradientUnits="userSpaceOnUse" x2="40" gradientTransform="matrix(-1 0 0 1 -50.969 -158.5)" y1="97.875" x1="40"/>
  <radialGradient id="radialGradient3585" gradientUnits="userSpaceOnUse" cy="10.5" cx="4.729" gradientTransform="matrix(0 2.6998 .31004 0 -79.27 44.233)" r="9">
   <stop id="stop2797" stop-color="#fff" offset="0"/>
   <stop id="stop2799" stop-color="#eeeeec" offset="1"/>
  </radialGradient>
  <linearGradient id="linearGradient3587" y2="84.534" gradientUnits="userSpaceOnUse" x2="33.469" gradientTransform="matrix(-1 0 0 1 46.031 0)" y1="80.469" x1="33.469">
   <stop id="stop3698" stop-color="#fff" offset="0"/>
   <stop id="stop3700" stop-color="#fff" stop-opacity=".40996" offset="1"/>
  </linearGradient>
 </defs>
 <metadata id="metadata7">
  <rdf:RDF>
   <cc:Work rdf:about="">
    <dc:format>image/svg+xml</dc:format>
    <dc:type rdf:resource="http://purl.org/dc/dcmitype/StillImage"/>
    <dc:creator>
     <cc:Agent>
      <dc:title>Lapo Calamandrei</dc:title>
     </cc:Agent>
    </dc:creator>
    <cc:license rdf:resource="http://creativecommons.org/licenses/GPL/2.0/"/>
   </cc:Work>
   <cc:License rdf:about="http://creativecommons.org/licenses/GPL/2.0/">
    <cc:permits rdf:resource="http://web.resource.org/cc/Reproduction"/>
    <cc:permits rdf:resource="http://web.resource.org/cc/Distribution"/>
    <cc:requires rdf:resource="http://web.resource.org/cc/Notice"/>
    <cc:permits rdf:resource="http://web.resource.org/cc/DerivativeWorks"/>
    <cc:requires rdf:resource="http://web.resource.org/cc/ShareAlike"/>
    <cc:requires rdf:resource="http://web.resource.org/cc/SourceCode"/>
   </cc:License>
  </rdf:RDF>
 </metadata>
 <g id="layer2">
  <g id="g3597" transform="translate(100,-50)">
   <g id="g2586" opacity=".5" transform="matrix(-1,0,0,1,-153,0)">
    <path id="rect2568" fill="url(#linearGradient3569)" d="m-90.5 54.031c-1.385 0-2.5 1.115-2.5 2.5v4c0 1.385 1.115 2.5 2.5 2.5h7.938l4.187-2h3.75l4.187 2h7.938c1.385 0 2.5-1.115 2.5-2.5v-4c0-1.385-1.115-2.5-2.5-2.5h-28z"/>
    <path id="path2570" fill="url(#linearGradient3574)" d="m-82.562 63.031l-9.844 11.938c-0.37 0.448-0.57 1.012-0.563 1.593 0.01 1.355 1.115 2.445 2.469 2.438h4.562l-0.031 12.531c-0.003 0.656 0.255 1.286 0.719 1.75s1.094 0.723 1.75 0.719h14c0.656 0.004 1.286-0.255 1.75-0.719s0.722-1.094 0.719-1.75v-12.531h4.531c0.958 0.009 1.841-0.54 2.25-1.406s0.271-1.891-0.344-2.625l-9.844-11.938-4.192-1.998-3.741-0.002-4.191 2z"/>
   </g>
   <g id="g3578" transform="translate(-.5 -.000014238)">
    <path id="path2495" stroke-linejoin="round" d="m-90 76.5h7.031l-0.031 15h14v-15h7l-13.188-16h13.188v-4h-28v4h13.188l-13.188 16z" stroke-dashoffset="1.2" stroke="url(#linearGradient3578)" stroke-linecap="round" stroke-miterlimit="4" stroke-dasharray="none" stroke-width="1" fill="url(#linearGradient3576)"/>
    <path id="path2497" fill="url(#linearGradient3580)" d="m-76 91h6.5v-14.5c0.002-0.275 0.225-0.498 0.5-0.5h5.969l-12.969-15.719v30.719z"/>
    <rect id="rect2499" transform="matrix(0,-1,1,0,0,0)" height="13.5" width="3" y="-76" x="-60" fill="url(#linearGradient3583)"/>
    <path id="path2501" stroke-linejoin="miter" d="m-76 90.5v-33" stroke="url(#radialGradient3585)" stroke-linecap="square" stroke-width="1px" fill="none"/>
    <path id="path2503" stroke-linejoin="miter" d="m37.5 69.5v12.188c-0.004 0.326-0.168 0.629-0.438 0.812 0.27 0.183 0.434 0.486 0.438 0.812v12.188h2v-26h-2zm-16 1.125v4.906c0.001 0.266-0.104 0.521-0.292 0.708-0.188 0.188-0.443 0.293-0.708 0.292l-14-0.031v12h14c0.265-0.001 0.52 0.104 0.708 0.292s0.293 0.443 0.292 0.708v4.875l14.375-11.844 0.031-0.031-0.031-0.031-14.375-11.844z" transform="matrix(0 -1 1 0 -158.5 97)" stroke-dashoffset="1.2" stroke="url(#linearGradient3587)" stroke-linecap="round" stroke-miterlimit="4" stroke-dasharray="none" stroke-width="1" fill="none"/>
   </g>
  </g>
 </g>
</svg>
