<?xml version="1.0" encoding="UTF-8" standalone="no"?>
<!DOCTYPE svg PUBLIC "-//W3C//DTD SVG 20010904//EN"
"http://www.w3.org/TR/2001/REC-SVG-20010904/DTD/svg10.dtd">
<!-- Created with Sodipodi ("http://www.sodipodi.com/") -->
<svg
   width="48pt"
   height="48pt"
   viewBox="0 0 144 144"
   xml:space="preserve"
   id="svg1"
   sodipodi:version="0.29"
   sodipodi:docname="/home/cschalle/SphereCrystal/SphereCrystal/icons/scalable/emblems/emblem-video.svg"
   sodipodi:docbase="/home/cschalle/SphereCrystal/SphereCrystal/icons/scalable/emblems/"
   xmlns="http://www.w3.org/2000/svg"
   xmlns:sodipodi="http://sodipodi.sourceforge.net/DTD/sodipodi-0.dtd"
   xmlns:xml="http://www.w3.org/XML/1998/namespace"
   xmlns:xlink="http://www.w3.org/1999/xlink">
  <defs
     id="defs71" />
  <sodipodi:namedview
     id="base" />
  <path
     style="font-size:12;fill:none;fill-rule:evenodd;stroke-width:0;"
     d="M144,144H0V0h144v144z"
     id="path3"
     transform="matrix(1.14107,0,0,1.0538,-24.4512,-13.9158)" />
  <g
     id="g56"
     style="font-size:12;fill:#ffffff;stroke:#ffffff;stroke-width:0;"
     transform="matrix(1.58896,-0.510966,0.49478,1.15714,-104.519,13.0342)">
    <linearGradient
       id="aigrd10"
       gradientUnits="userSpaceOnUse"
       x1="122.9277"
       y1="69.1309"
       x2="23.722"
       y2="116.0799">
      <stop
         offset="0"
         style="stop-color:#FF9500"
         id="stop58" />
      <stop
         offset="0.4719"
         style="stop-color:#FFFF7E"
         id="stop59" />
      <stop
         offset="1"
         style="stop-color:#FF8100"
         id="stop60" />
    </linearGradient>
    <path
       style="opacity:0.75;fill:url(#aigrd10);stroke:none;fill-rule:evenodd;"
       d="M101.092,90.411L85.447,69.979l16.479-12.619l15.646,20.435l-16.479,12.616z M99.172,91.883L83.525,71.449L67.046,84.067l15.647,20.436l16.479-12.62z M80.773,105.974L65.124,85.538l-16.478,12.62l15.65,20.432l16.477-12.616z      M62.371,120.059l-15.646-20.43l-16.478,12.617l15.647,20.434l16.476-12.621z M135.971,63.705l-15.649-20.435l-16.475,12.618l15.649,20.435l16.475-12.618z"
       id="path61" />
    <linearGradient
       id="aigrd11"
       gradientUnits="userSpaceOnUse"
       x1="-4.9414"
       y1="31.1982"
       x2="98.4876"
       y2="99.4183">
      <stop
         offset="0"
         style="stop-color:#FFFFFF"
         id="stop63" />
      <stop
         offset="1"
         style="stop-color:#000000"
         id="stop64" />
    </linearGradient>
    <path
       style="fill:none;stroke:none;"
       d="M24.623,116.553l3.705-2.837l15.646,20.436l-3.704,2.835l3.438,4.489l99.501-76.189l-3.438-4.489l-1.88,1.438l-15.643-20.436l1.875-1.439l-3.438-4.488l-99.5,76.19l3.437,4.491 M138.832,63.246l1.76,2.299l-2.292,1.754l-1.761-2.294     l2.293-1.759 M135.072,66.131l1.758,2.293l-2.295,1.756l-1.76-2.293l2.297-1.756 M131.308,69.012l1.759,2.293l-2.295,1.756l-1.758-2.295l2.294-1.754 M127.545,71.893l1.76,2.295l-2.298,1.757l-1.757-2.294l2.295-1.758 M123.781,74.773l1.76,2.295l-2.295,1.756     l-1.756-2.293l2.291-1.758 M120.018,77.654l1.76,2.297l-2.295,1.758l-1.758-2.297l2.293-1.758 M116.256,80.537l1.759,2.297l-2.298,1.755l-1.755-2.295l2.294-1.757 M112.492,83.418l1.758,2.295l-2.293,1.757l-1.758-2.294l2.293-1.758 M108.731,86.3l1.757,2.297     l-2.298,1.755l-1.753-2.295l2.294-1.757 M104.965,89.18l1.759,2.297l-2.294,1.759l-1.757-2.298l2.292-1.758 M101.203,92.063l1.76,2.296l-2.296,1.754l-1.759-2.292l2.295-1.758 M97.443,94.945l1.756,2.293L96.9,98.996l-1.754-2.294l2.297-1.757 M93.679,97.824     l1.757,2.295l-2.296,1.758l-1.756-2.293l2.295-1.76 M89.916,100.707l1.755,2.295l-2.296,1.758l-1.75-2.296l2.291-1.757 M86.152,103.59l1.758,2.295l-2.293,1.756l-1.756-2.295l2.291-1.756 M82.391,106.471l1.754,2.297l-2.295,1.754l-1.754-2.294l2.295-1.757      M78.626,109.352l1.757,2.295l-2.293,1.758l-1.756-2.296l2.292-1.757 M74.863,112.232l1.757,2.296l-2.293,1.757l-1.757-2.295l2.293-1.758 M71.104,115.115l1.754,2.294l-2.294,1.759l-1.757-2.294l2.297-1.759 M67.338,117.996l1.758,2.293l-2.294,1.758     l-1.758-2.293l2.294-1.758 M63.575,120.879l1.755,2.293l-2.292,1.758l-1.758-2.295l2.295-1.756 M59.814,123.758l1.756,2.297l-2.295,1.758l-1.757-2.297l2.296-1.758 M56.05,126.641l1.755,2.295l-2.295,1.76l-1.755-2.296l2.295-1.759 M52.287,129.521l1.754,2.297     l-2.292,1.756l-1.76-2.295l2.298-1.758 M48.525,132.403l1.755,2.296l-2.294,1.758l-1.755-2.297l2.295-1.757 M44.761,135.286l1.756,2.295l-2.294,1.757l-1.757-2.297l2.295-1.755 M120.321,43.271l15.649,20.435l-16.475,12.618l-15.649-20.435l16.475-12.618      M101.926,57.36l15.646,20.435l-16.479,12.616L85.447,69.979l16.479-12.619 M83.525,71.449l15.646,20.434l-16.479,12.62L67.046,84.067l16.479-12.618 M65.124,85.538l15.649,20.436L64.297,118.59l-15.65-20.432l16.478-12.62 M46.725,99.629l15.646,20.43     L45.895,132.68l-15.647-20.434l16.478-12.617 M119.83,38.425l1.754,2.293l-2.295,1.757l-1.756-2.293l2.297-1.758 M116.064,41.307l1.758,2.292l-2.295,1.759l-1.755-2.293l2.292-1.758 M112.302,44.188l1.759,2.297l-2.295,1.757l-1.758-2.297l2.294-1.757      M108.538,47.071l1.755,2.293L108,51.122l-1.758-2.297l2.296-1.754 M104.774,49.952l1.756,2.293l-2.29,1.76l-1.758-2.294l2.292-1.758 M101.013,52.834l1.759,2.294l-2.297,1.755l-1.758-2.295l2.296-1.754 M97.25,55.715l1.756,2.294l-2.294,1.757l-1.757-2.293     l2.295-1.758 M93.485,58.596l1.761,2.294l-2.297,1.757l-1.758-2.293l2.294-1.758 M89.723,61.48l1.758,2.291l-2.294,1.758l-1.758-2.295l2.294-1.754 M85.961,64.36l1.756,2.294l-2.294,1.756l-1.757-2.294l2.295-1.756 M82.196,67.24l1.76,2.295l-2.296,1.758     l-1.758-2.294l2.294-1.759 M78.434,70.121l1.758,2.295l-2.295,1.758L76.14,71.88l2.294-1.759 M74.672,73.004l1.758,2.297l-2.295,1.754l-1.759-2.294l2.296-1.757 M70.907,75.887l1.757,2.293l-2.293,1.756l-1.76-2.294l2.296-1.755 M67.146,78.768l1.757,2.293     l-2.293,1.758l-1.759-2.294l2.295-1.757 M63.381,81.648l1.759,2.293l-2.296,1.76l-1.756-2.295l2.294-1.758 M59.62,84.531l1.756,2.293l-2.293,1.756l-1.757-2.293l2.294-1.756 M55.855,87.412l1.758,2.293l-2.292,1.76L53.56,89.17l2.295-1.758 M52.093,90.293     l1.758,2.295l-2.294,1.758l-1.759-2.297l2.295-1.756 M48.33,93.174l1.755,2.297l-2.294,1.754l-1.755-2.297l2.294-1.754 M44.564,96.057l1.759,2.295l-2.293,1.754l-1.76-2.293l2.294-1.756 M40.804,98.939l1.756,2.292l-2.295,1.759l-1.756-2.295l2.295-1.756      M37.041,101.82l1.757,2.293l-2.297,1.758l-1.754-2.295l2.294-1.756 M33.275,104.699l1.76,2.299l-2.294,1.754l-1.758-2.295l2.292-1.758 M29.515,107.584l1.757,2.293l-2.294,1.756l-1.755-2.293l2.292-1.756 M25.753,110.463l1.756,2.295l-2.297,1.758l-1.755-2.295     l2.296-1.758z"
       id="path65" />
    <linearGradient
       id="aigrd12"
       gradientUnits="userSpaceOnUse"
       x1="-5.0332"
       y1="32.8169"
       x2="98.3968"
       y2="101.0377">
      <stop
         offset="0"
         style="stop-color:#FFFFFF"
         id="stop67" />
      <stop
         offset="1"
         style="stop-color:#000000"
         id="stop68" />
    </linearGradient>
    <path
       style="opacity:0.1;fill:none;stroke:none;"
       d="M24.537,118.172l3.702-2.834l15.646,20.434l-3.701,2.835l3.438,4.489l99.498-76.191l-3.438-4.488l-1.877,1.438l-15.646-20.435l1.879-1.439l-3.439-4.486l-99.5,76.19l3.438,4.488 M138.742,64.869l1.762,2.295l-2.295,1.756l-1.76-2.295     l2.293-1.756 M134.984,67.75l1.758,2.295l-2.298,1.757l-1.756-2.296l2.296-1.756 M131.221,70.633l1.76,2.294l-2.297,1.756l-1.759-2.294l2.296-1.756 M127.455,73.515l1.76,2.295l-2.295,1.754l-1.756-2.294l2.291-1.755 M123.693,76.396l1.758,2.295l-2.293,1.754     l-1.758-2.292l2.293-1.757 M119.93,79.276l1.758,2.294l-2.295,1.759l-1.759-2.296l2.296-1.757 M116.168,82.157l1.758,2.294l-2.294,1.759l-1.757-2.298l2.293-1.755 M112.404,85.039l1.756,2.293l-2.293,1.758l-1.756-2.293l2.293-1.758 M108.643,87.922l1.754,2.294     l-2.294,1.755l-1.753-2.293l2.293-1.756 M104.877,90.802l1.76,2.295l-2.299,1.759l-1.756-2.299l2.295-1.755 M101.117,93.684l1.756,2.293l-2.295,1.758l-1.758-2.295l2.297-1.756 M97.354,96.563l1.76,2.297l-2.297,1.756l-1.758-2.294l2.295-1.759 M93.592,99.448     l1.753,2.292l-2.295,1.756l-1.753-2.294l2.295-1.754 M89.828,102.327l1.754,2.296l-2.291,1.757l-1.756-2.296l2.293-1.757 M86.063,105.209l1.76,2.293l-2.295,1.759l-1.756-2.294l2.291-1.758 M82.303,108.09l1.754,2.297l-2.292,1.758l-1.756-2.297l2.294-1.758      M78.537,110.969l1.756,2.298l-2.291,1.759l-1.756-2.297l2.291-1.76 M74.773,113.854l1.759,2.295l-2.296,1.758l-1.754-2.297l2.291-1.756 M71.016,116.734l1.753,2.295l-2.292,1.759l-1.755-2.296l2.294-1.758 M67.249,119.617l1.76,2.291l-2.297,1.759l-1.757-2.294     l2.293-1.756 M63.488,122.499l1.755,2.294l-2.294,1.758l-1.756-2.293l2.294-1.759 M59.726,125.379l1.756,2.295l-2.296,1.758l-1.755-2.296l2.295-1.757 M55.962,128.26l1.755,2.297l-2.294,1.756l-1.756-2.295l2.295-1.758 M52.197,131.141l1.756,2.299l-2.292,1.756     l-1.757-2.297l2.292-1.758 M48.437,134.023l1.757,2.295l-2.296,1.758l-1.756-2.293l2.296-1.76 M44.673,136.906l1.756,2.293l-2.296,1.758l-1.757-2.295l2.297-1.756 M120.236,44.89l15.646,20.435l-16.477,12.621L103.758,57.51l16.479-12.621 M101.836,58.98     l15.646,20.432l-16.479,12.619L85.359,71.598l16.477-12.618 M83.438,73.069l15.648,20.434l-16.48,12.621L66.958,85.686l16.479-12.616 M65.036,87.158l15.647,20.434l-16.476,12.619L48.56,99.777l16.476-12.619 M46.637,101.248l15.646,20.434l-16.477,12.619     l-15.646-20.435l16.476-12.618 M119.741,40.048l1.753,2.29l-2.293,1.757l-1.756-2.292l2.296-1.755 M115.977,42.926l1.756,2.297l-2.297,1.756l-1.752-2.293l2.293-1.76 M112.214,45.809l1.757,2.294l-2.295,1.758l-1.755-2.294l2.293-1.758 M108.451,48.69     l1.752,2.293l-2.291,1.758l-1.757-2.294l2.296-1.757 M104.684,51.573l1.759,2.293l-2.29,1.756l-1.762-2.294l2.293-1.755 M100.926,54.454l1.754,2.294l-2.295,1.757l-1.755-2.296l2.296-1.755 M97.162,57.334l1.756,2.294l-2.293,1.758l-1.758-2.294l2.295-1.758      M93.395,60.215l1.762,2.296l-2.295,1.756l-1.761-2.295l2.294-1.757 M89.635,63.1l1.757,2.293l-2.294,1.756l-1.756-2.293l2.293-1.756 M85.872,65.98l1.757,2.294l-2.295,1.758l-1.758-2.298l2.296-1.754 M82.109,68.859l1.757,2.295l-2.294,1.758l-1.759-2.294     l2.296-1.759 M78.346,71.742l1.758,2.293l-2.295,1.758L76.053,73.5l2.293-1.758 M74.582,74.625l1.759,2.295l-2.294,1.754l-1.758-2.294l2.293-1.755 M70.82,77.505l1.758,2.294l-2.295,1.756l-1.759-2.291l2.296-1.759 M67.056,80.388l1.762,2.293l-2.297,1.757     l-1.758-2.294l2.293-1.756 M63.295,83.268l1.757,2.297l-2.296,1.754L61,85.025l2.294-1.758 M59.532,86.15l1.755,2.295l-2.293,1.757l-1.757-2.294l2.296-1.758 M55.766,89.031l1.763,2.295l-2.299,1.758l-1.758-2.295l2.294-1.758 M52.007,91.912l1.756,2.295     l-2.294,1.758L49.71,93.67l2.297-1.758 M48.242,94.795L50,97.09l-2.295,1.755l-1.758-2.294l2.295-1.756 M44.479,97.678l1.758,2.293l-2.297,1.756l-1.756-2.294l2.294-1.755 M40.715,100.557l1.758,2.295l-2.295,1.758l-1.757-2.294l2.294-1.759 M36.952,103.438     l1.757,2.295l-2.293,1.76l-1.757-2.297l2.293-1.758 M33.188,106.321l1.761,2.295l-2.297,1.755l-1.756-2.295l2.292-1.755 M29.426,109.201l1.758,2.295l-2.294,1.759l-1.756-2.294l2.292-1.76 M25.665,112.083l1.756,2.294l-2.295,1.759l-1.756-2.296l2.296-1.757z"
       id="path69" />
  </g>
</svg>
