<?xml version="1.0" encoding="UTF-8" standalone="no"?>
<!DOCTYPE svg PUBLIC "-//W3C//DTD SVG 20010904//EN"
"http://www.w3.org/TR/2001/REC-SVG-20010904/DTD/svg10.dtd">
<!-- Created with Sodipodi ("http://www.sodipodi.com/") -->
<svg
   width="48pt"
   height="48pt"
   viewBox="0 0 144 144"
   xml:space="preserve"
   id="svg392"
   sodipodi:version="0.29"
   sodipodi:docname="/home/cschalle/SphereCrystal/SphereCrystal/icons/scalable/emblems/emblem-games.svg"
   sodipodi:docbase="/home/cschalle/SphereCrystal/SphereCrystal/icons/scalable/emblems/"
   xmlns="http://www.w3.org/2000/svg"
   xmlns:sodipodi="http://sodipodi.sourceforge.net/DTD/sodipodi-0.dtd"
   xmlns:xml="http://www.w3.org/XML/1998/namespace"
   xmlns:xlink="http://www.w3.org/1999/xlink">
  <defs
     id="defs485" />
  <sodipodi:namedview
     id="base" />
  <g
     id="Layer_x0020_1"
     style="fill-rule:nonzero;clip-rule:nonzero;stroke:#FFFFFF;stroke-width:0;stroke-miterlimit:4;"
     transform="matrix(0.911111,0,0,0.974603,0,-1.14441e-05)">
    <path
       style="fill:none;stroke:none;fill-rule:evenodd;"
       d="M144,144H0V0h144v144z"
       id="path394" />
    <g
       style="stroke:none;"
       id="g395">
      <g
         id="g396">
        <linearGradient
           id="aigrd1"
           gradientUnits="userSpaceOnUse"
           x1="-58.208"
           y1="60.6685"
           x2="-13.9663"
           y2="68.5784"
           gradientTransform="matrix(0.9996 0.0294 -0.0294 0.9996 98.4321 -35.5641)">
          <stop
             offset="0"
             style="stop-color:#ACCDFF"
             id="stop398" />
          <stop
             offset="1"
             style="stop-color:#FFFFFF"
             id="stop399" />
        </linearGradient>
        <path
           style="fill:url(#aigrd1);fill-rule:evenodd;"
           d="M82.099,7.468c0.171,0.455,0.248,0.942,0.232,1.462c-0.114,3.9-5.496,9.656-16.675,17.891c-9.692,7.139-14.814,13.525-14.963,18.607c-0.017,0.574,0.029,1.13,0.141,1.669c1.425,6.969,12.833,9.461,13.503,9.602      c0.012,0,0.369,0.011,0.445,0.013c-3.989-1.958-9.108-5.469-9.84-10.821c-0.07-0.521-0.098-1.043-0.083-1.571c0.168-5.692,5.344-11.912,15.42-18.519c12.357-8.099,15.433-13.085,15.519-16.012c0.012-0.364-0.022-0.695-0.092-0.996      c-0.697-3.025-5.238-4.577-8.512-5.231l-0.858,0.772c2.558,0.29,5.007,1.118,5.763,3.134z"
           id="path400" />
        <g
           id="g401">
          <linearGradient
             id="aigrd2"
             gradientUnits="userSpaceOnUse"
             x1="-48.4014"
             y1="58.7856"
             x2="-20.7348"
             y2="68.16"
             gradientTransform="matrix(0.9996 0.0294 -0.0294 0.9996 98.4321 -35.5641)">
            <stop
               offset="0"
               style="stop-color:#9AB1FF"
               id="stop403" />
            <stop
               offset="1"
               style="stop-color:#626AA4"
               id="stop404" />
          </linearGradient>
          <path
             style="fill:url(#aigrd2);fill-rule:evenodd;"
             d="M87.384,8.36c-0.848-3.675-5.219-5.448-8.547-6.278l-0.816,0.736l-0.826,0.743c3.273,0.654,7.814,2.206,8.512,5.231c0.069,0.301,0.104,0.632,0.092,0.996c-0.086,2.927-3.162,7.913-15.519,16.012c-10.076,6.606-15.252,12.826-15.42,18.519       c-0.015,0.528,0.012,1.051,0.083,1.571c0.731,5.352,5.851,8.863,9.84,10.821l-0.445-0.013c-0.669-0.141-12.078-2.633-13.503-9.602c-0.112-0.539-0.157-1.096-0.141-1.669c0.149-5.082,5.271-11.468,14.963-18.607C76.835,18.586,82.217,12.83,82.332,8.93       c0.016-0.52-0.062-1.007-0.232-1.462c-0.756-2.016-3.205-2.844-5.763-3.134l-0.919,0.828l-0.944,0.851c2.817,0.082,5.465,0.644,6.018,2.122c0.489,1.308-0.07,5.603-15.826,17.209C53.1,33.861,47.879,41.31,49.146,47.485c1.704,8.31,14.388,10.899,14.928,11.005       l0.066,0.013l5.654,0.166l0.26-1.777c-0.125-0.036-12.372-3.693-13.403-11.266c-0.727-5.338,4.167-11.493,14.542-18.293c12.021-7.88,17.318-14.086,16.191-18.973z"
             id="path405" />
        </g>
      </g>
      <g
         id="g406">
        <linearGradient
           id="aigrd3"
           gradientUnits="userSpaceOnUse"
           x1="2254.3608"
           y1="-1373.0327"
           x2="2265.5188"
           y2="-1390.5319"
           gradientTransform="matrix(0.89 -0.4559 0.4559 0.89 -1321.5675 2314.0181)">
          <stop
             offset="0.1629"
             style="stop-color:#ACCDFF"
             id="stop408" />
          <stop
             offset="1"
             style="stop-color:#FFFFFF"
             id="stop409" />
        </linearGradient>
        <path
           style="fill:url(#aigrd3);fill-rule:evenodd;"
           d="M67.993,54.58c1.96,3.827-0.323,8.914-5.1,11.359c-4.775,2.446-10.236,1.328-12.196-2.5c-1.96-3.828,0.322-8.915,5.099-11.36c4.777-2.446,10.237-1.327,12.198,2.5z"
           id="path410" />
        <linearGradient
           id="aigrd4"
           gradientUnits="userSpaceOnUse"
           x1="44.291"
           y1="53.9087"
           x2="65.5866"
           y2="61.1243">
          <stop
             offset="0"
             style="stop-color:#9AB1FF"
             id="stop412" />
          <stop
             offset="1"
             style="stop-color:#626AA4"
             id="stop413" />
        </linearGradient>
        <path
           style="fill:url(#aigrd4);fill-rule:evenodd;"
           d="M49.225,64.193c2.284,4.458,8.681,5.761,14.262,2.901c5.581-2.857,8.263-8.81,5.979-13.269c-2.283-4.458-8.681-5.76-14.263-2.901c-5.58,2.858-8.261,8.811-5.978,13.269z M52.168,62.685c-1.631-3.183,0.261-7.423,4.218-9.451      c3.957-2.025,8.504-1.083,10.135,2.1c1.631,3.185-0.261,7.425-4.218,9.451c-3.957,2.028-8.504,1.085-10.134-2.1z"
           id="path414" />
      </g>
      <g
         id="g415">
        <g
           id="g416">
          <linearGradient
             id="aigrd5"
             gradientUnits="userSpaceOnUse"
             x1="-41.1968"
             y1="162.5859"
             x2="26.7502"
             y2="56.0245"
             gradientTransform="matrix(0.9996 0.0294 -0.0294 0.9996 98.4321 -35.5641)">
            <stop
               offset="0.1629"
               style="stop-color:#ACCDFF"
               id="stop418" />
            <stop
               offset="1"
               style="stop-color:#FFFFFF"
               id="stop419" />
          </linearGradient>
          <path
             style="fill:url(#aigrd5);fill-rule:evenodd;"
             d="M137.247,91.046c-0.046-0.435-0.644-1.982-1.678-4.227c-0.905-1.971-2.147-4.478-3.665-7.268c0.428,1.032,0.674,1.74,0.701,2.012c0.188,1.758-0.572,5.789-3.783,8.449c-2.346,1.947-5.999,3.164-11.561,2.227       c-0.138-0.023-0.318-0.084-0.518-0.165c-1.523-0.617-4.74-2.809-8.036-5.204c-3.965-2.881-8.023-6.041-9.353-7.082c-0.288-0.227-0.455-0.357-0.455-0.357L75.689,91.253l-22.597,9.52c0,0,1.599,21.788,0.171,24.678c-0.295,0.596-1.683,1.793-3.674,2.949       c-2.508,1.459-5.978,2.847-9.459,2.896c-0.825-1.659-1.679-3.759-2.536-6.161c-5.795-16.25-15.045-43.511-12.555-45.745c8.711-7.815,37.508-23.327,58.497-32.263c-21.072,8.248-54.847,26.105-64.41,34.686c-1.787,1.604,0.83,16.06,5.52,30.12       c1.845,5.534,5.398,11.035,7.035,15.625c1.374,3.854,2.742,6.928,3.992,8.66c5.122,7.102,13.653,4.512,18.542,1.675c1.999-1.161,3.393-2.363,3.688-2.96c0.797-1.615-1.652-7.133-1.016-14.245c0.502-5.622,0.844-10.432,0.844-10.432l0.308-0.128l22.289-9.393       l23.214-11.822c0,0,0.164,0.131,0.454,0.357c2.578,2.02,15.469,12.043,17.905,12.452c5.563,0.937,9.214-0.28,11.562-2.226c3.211-2.664,3.971-6.692,3.784-8.451z"
             id="path420" />
        </g>
        <g
           id="g421">
          <linearGradient
             id="aigrd6"
             gradientUnits="userSpaceOnUse"
             x1="-125.6826"
             y1="105.4346"
             x2="36.3774"
             y2="134.4093"
             gradientTransform="matrix(0.9996 0.0294 -0.0294 0.9996 98.4321 -35.5641)">
            <stop
               offset="0"
               style="stop-color:#ACCDFF"
               id="stop423" />
            <stop
               offset="1"
               style="stop-color:#FFFFFF"
               id="stop424" />
          </linearGradient>
          <path
             style="fill:url(#aigrd6);fill-rule:evenodd;"
             d="M132.605,81.563c-0.027-0.271-0.273-0.979-0.701-2.012c-2.949-5.428-6.921-11.902-11.408-17.471c-8.98-11.14-19.873-19.243-21.455-19.298c-2.826-0.1-8.455,1.585-15.504,4.344C62.548,56.063,33.75,71.575,25.04,79.39       c-2.49,2.234,6.759,29.495,12.555,45.745c0.857,2.402,1.711,4.502,2.536,6.161c3.482-0.05,6.951-1.438,9.459-2.896c1.991-1.156,3.378-2.354,3.674-2.949c1.428-2.89-0.171-24.678-0.171-24.678l22.597-9.52L98.9,79.431c0,0,0.167,0.131,0.455,0.357       c1.329,1.041,5.388,4.201,9.353,7.082c3.296,2.396,6.513,4.587,8.036,5.204c0.199,0.081,0.38,0.142,0.518,0.165c5.562,0.938,9.215-0.279,11.561-2.227c3.211-2.66,3.971-6.691,3.783-8.449z"
             id="path425" />
        </g>
        <linearGradient
           id="aigrd7"
           gradientUnits="userSpaceOnUse"
           x1="-11.9565"
           y1="63.75"
           x2="112.6202"
           y2="105.9608">
          <stop
             offset="0"
             style="stop-color:#9AB1FF"
             id="stop427" />
          <stop
             offset="1"
             style="stop-color:#626AA4"
             id="stop428" />
        </linearGradient>
        <path
           style="fill:url(#aigrd7);fill-rule:evenodd;"
           d="M17.825,80.364c-0.943,0.846-1.78,2.357-0.784,10.531c0.581,4.779,1.713,11.045,3.188,17.64c2.678,11.997,10.197,23.735,13.865,28.821c2.807,3.892,6.888,5.732,11.802,5.325c6.34-0.526,12.712-4.782,13.753-6.886      c1.395-2.822-0.567-17.266-0.061-24.209c1.993-0.84,21.563-9.084,21.563-9.084s20.155-10.266,22.164-11.29c6.092,4.778,15.623,11.985,18.264,12.429c7.258,1.223,11.448-1.027,13.688-3.135c3.296-3.1,4.147-7.479,3.915-9.667      c-0.25-2.345-7.931-18.519-17.17-29.982c-8.061-9.999-19.928-19.916-22.902-20.021c-11.945-0.417-68.445,28.009-81.284,39.527z M98.808,44.733c1.958,0.738,11.773,8.149,20.172,18.567c9.108,11.301,15.898,26.157,16.332,28c0.012,0.13,0.018,0.275,0.012,0.445      c-0.039,1.382-0.674,3.998-2.725,5.926c-2.322,2.184-5.813,2.9-10.375,2.132c-1.609-0.427-10.336-6.78-17.479-12.419l-0.978-0.771c0,0-24.136,12.293-24.26,12.357c-0.128,0.055-23.635,9.955-23.635,9.955l-0.083,1.193c-0.834,11.771,1.182,22.045,0.384,23.902      c-0.691,0.946-6.04,4.766-11.479,4.822c-3.159,0.033-5.594-1.199-7.444-3.765c-2.663-3.691-8.315-13.016-11.605-22.646c-3.94-11.536-5.31-23.598-5.177-28.119c0.016-0.551,0.073-0.949,0.165-1.228c13.511-11.911,67.604-38.45,78.174-38.353z"
           id="path429" />
      </g>
      <g
         id="g430">
        <linearGradient
           id="aigrd8"
           gradientUnits="userSpaceOnUse"
           x1="-14.9775"
           y1="89.0547"
           x2="-9.7736"
           y2="99.2211"
           gradientTransform="matrix(0.9996 0.0294 -0.0294 0.9996 98.4321 -35.5641)">
          <stop
             offset="0.1629"
             style="stop-color:#ACCDFF"
             id="stop432" />
          <stop
             offset="1"
             style="stop-color:#FFFFFF"
             id="stop433" />
        </linearGradient>
        <path
           style="fill:url(#aigrd8);fill-rule:evenodd;"
           d="M90.307,55.93c1.017,2.437-1.181,5.666-4.905,7.219c-3.723,1.553-7.563,0.84-8.579-1.596c-1.014-2.433,1.181-5.666,4.905-7.218c3.724-1.554,7.563-0.839,8.579,1.595z"
           id="path434" />
        <linearGradient
           id="aigrd9"
           gradientUnits="userSpaceOnUse"
           x1="81.0415"
           y1="54.084"
           x2="84.1085"
           y2="59.7454">
          <stop
             offset="0"
             style="stop-color:#FFFFFF"
             id="stop436" />
          <stop
             offset="1"
             style="stop-color:#5E5EFF"
             id="stop437" />
        </linearGradient>
        <path
           style="fill:url(#aigrd9);fill-rule:evenodd;"
           d="M88.608,56.64c0.761,1.82-0.884,4.238-3.668,5.399c-2.785,1.162-5.658,0.627-6.417-1.193c-0.76-1.82,0.883-4.239,3.667-5.401c2.786-1.163,5.659-0.628,6.418,1.194z"
           id="path438" />
        <linearGradient
           id="aigrd10"
           gradientUnits="userSpaceOnUse"
           x1="-22.3296"
           y1="101.2051"
           x2="-17.1251"
           y2="111.3725"
           gradientTransform="matrix(0.9996 0.0294 -0.0294 0.9996 98.4321 -35.5641)">
          <stop
             offset="0.1629"
             style="stop-color:#ACCDFF"
             id="stop440" />
          <stop
             offset="1"
             style="stop-color:#FFFFFF"
             id="stop441" />
        </linearGradient>
        <path
           style="fill:url(#aigrd10);fill-rule:evenodd;"
           d="M82.601,67.861c1.017,2.436-1.182,5.667-4.905,7.219c-3.722,1.554-7.563,0.839-8.579-1.597c-1.013-2.433,1.181-5.664,4.904-7.219c3.724-1.552,7.564-0.838,8.58,1.597z"
           id="path442" />
        <linearGradient
           id="aigrd11"
           gradientUnits="userSpaceOnUse"
           x1="72.9771"
           y1="65.3198"
           x2="76.2796"
           y2="71.453">
          <stop
             offset="0"
             style="stop-color:#FFFFFF"
             id="stop444" />
          <stop
             offset="1"
             style="stop-color:#FF6200"
             id="stop445" />
        </linearGradient>
        <path
           style="fill:url(#aigrd11);fill-rule:evenodd;"
           d="M80.903,68.57c0.76,1.82-0.884,4.24-3.668,5.4c-2.786,1.16-5.66,0.627-6.419-1.195c-0.758-1.818,0.883-4.237,3.669-5.397c2.786-1.163,5.659-0.629,6.418,1.193z"
           id="path446" />
        <linearGradient
           id="aigrd12"
           gradientUnits="userSpaceOnUse"
           x1="0.2759"
           y1="91.6533"
           x2="5.4804"
           y2="101.8208"
           gradientTransform="matrix(0.9996 0.0294 -0.0294 0.9996 98.4321 -35.5641)">
          <stop
             offset="0.1629"
             style="stop-color:#ACCDFF"
             id="stop448" />
          <stop
             offset="1"
             style="stop-color:#FFFFFF"
             id="stop449" />
        </linearGradient>
        <path
           style="fill:url(#aigrd12);fill-rule:evenodd;"
           d="M105.478,58.978c1.017,2.437-1.181,5.667-4.904,7.219c-3.725,1.554-7.564,0.839-8.579-1.596c-1.016-2.433,1.179-5.665,4.903-7.219c3.724-1.553,7.563-0.838,8.58,1.596z"
           id="path450" />
        <linearGradient
           id="aigrd13"
           gradientUnits="userSpaceOnUse"
           x1="95.2954"
           y1="56.9404"
           x2="100.3433"
           y2="64.0544">
          <stop
             offset="0"
             style="stop-color:#FFFFFF"
             id="stop452" />
          <stop
             offset="1"
             style="stop-color:#009F00"
             id="stop453" />
        </linearGradient>
        <path
           style="fill:url(#aigrd13);fill-rule:evenodd;"
           d="M103.779,59.687c0.762,1.82-0.883,4.239-3.668,5.4c-2.784,1.16-5.658,0.627-6.416-1.194c-0.76-1.82,0.881-4.239,3.666-5.398c2.786-1.164,5.658-0.63,6.418,1.193z"
           id="path454" />
        <linearGradient
           id="aigrd14"
           gradientUnits="userSpaceOnUse"
           x1="-7.9419"
           y1="103.333"
           x2="-2.7374"
           y2="113.5005"
           gradientTransform="matrix(0.9996 0.0294 -0.0294 0.9996 98.4321 -35.5641)">
          <stop
             offset="0.1629"
             style="stop-color:#ACCDFF"
             id="stop456" />
          <stop
             offset="1"
             style="stop-color:#FFFFFF"
             id="stop457" />
        </linearGradient>
        <path
           style="fill:url(#aigrd14);fill-rule:evenodd;"
           d="M96.92,70.411c1.017,2.436-1.182,5.666-4.905,7.219c-3.723,1.553-7.563,0.838-8.579-1.596c-1.015-2.434,1.181-5.666,4.904-7.219s7.563-0.839,8.58,1.596z"
           id="path458" />
        <linearGradient
           id="aigrd15"
           gradientUnits="userSpaceOnUse"
           x1="87.6821"
           y1="69.2266"
           x2="90.995"
           y2="74.5301">
          <stop
             offset="0"
             style="stop-color:#FFFFFF"
             id="stop460" />
          <stop
             offset="0.9944"
             style="stop-color:#FFC500"
             id="stop461" />
        </linearGradient>
        <path
           style="fill:url(#aigrd15);fill-rule:evenodd;"
           d="M95.222,71.121c0.76,1.82-0.884,4.238-3.669,5.4c-2.784,1.16-5.658,0.627-6.418-1.195c-0.759-1.819,0.883-4.238,3.669-5.399c2.785-1.163,5.658-0.629,6.418,1.195z"
           id="path462" />
      </g>
      <g
         id="g463">
        <linearGradient
           id="aigrd16"
           gradientUnits="userSpaceOnUse"
           x1="251.3687"
           y1="-206.1479"
           x2="265.03"
           y2="-179.4595"
           gradientTransform="matrix(0.9988 -0.0496 0.0496 0.9988 -205.3041 290.387)">
          <stop
             offset="0.1629"
             style="stop-color:#ACCDFF"
             id="stop465" />
          <stop
             offset="1"
             style="stop-color:#FFFFFF"
             id="stop466" />
        </linearGradient>
        <path
           style="fill:url(#aigrd16);fill-rule:evenodd;"
           d="M59.114,78.509c4.212,5.553,0.791,13.607-7.641,17.988c-8.433,4.381-18.68,3.433-22.891-2.123c-4.212-5.554-0.792-13.607,7.642-17.989c8.431-4.379,18.677-3.431,22.89,2.124z"
           id="path467" />
        <linearGradient
           id="aigrd17"
           gradientUnits="userSpaceOnUse"
           x1="55.5532"
           y1="113.248"
           x2="42.2272"
           y2="82.7286">
          <stop
             offset="0"
             style="stop-color:#FFFFFF"
             id="stop469" />
          <stop
             offset="1"
             style="stop-color:#5E5E5E"
             id="stop470" />
        </linearGradient>
        <path
           style="fill:url(#aigrd17);fill-rule:evenodd;"
           d="M57.659,79.266c3.809,5.024,0.714,12.308-6.913,16.272c-7.627,3.964-16.898,3.104-20.708-1.922c-3.81-5.022-0.715-12.309,6.916-16.271c7.625-3.962,16.895-3.104,20.705,1.921z"
           id="path471" />
        <linearGradient
           id="aigrd18"
           gradientUnits="userSpaceOnUse"
           x1="34.9253"
           y1="75.0996"
           x2="51.4386"
           y2="96.0948">
          <stop
             offset="0"
             style="stop-color:#FFFFFF"
             id="stop473" />
          <stop
             offset="1"
             style="stop-color:#5E5E5E"
             id="stop474" />
        </linearGradient>
        <path
           style="fill:url(#aigrd18);fill-rule:evenodd;"
           d="M55.593,80.339c3.241,4.271,0.61,10.469-5.878,13.838c-6.488,3.373-14.373,2.641-17.613-1.631c-3.24-4.274-0.608-10.471,5.881-13.842c6.486-3.372,14.37-2.641,17.61,1.635z"
           id="path475" />
        <path
           style="opacity:0.2;fill-rule:evenodd;"
           d="M38.103,82.667l4.17-2.084l-3.841-1.305l-0.329,3.389z"
           id="path476" />
        <path
           style="opacity:0.15;fill-rule:evenodd;"
           d="M32.303,91.79l4.757-0.113l-2.488-2.684l-2.27,2.797z"
           id="path477" />
        <path
           style="opacity:0.2;fill-rule:evenodd;"
           d="M54.67,80.56l-1.152,3.439l-2.488-2.682l3.641-0.758z"
           id="path478" />
        <path
           style="opacity:0.2;fill-rule:evenodd;"
           d="M45.276,92.31l4.033-2.336l-0.123,3.287l-3.91-0.951z"
           id="path479" />
      </g>
    </g>
    <linearGradient
       id="aigrd19"
       gradientUnits="userSpaceOnUse"
       x1="53.4468"
       y1="136.1357"
       x2="53.4468"
       y2="136.1357">
      <stop
         offset="0.1629"
         style="stop-color:#ACCDFF"
         id="stop481" />
      <stop
         offset="1"
         style="stop-color:#FFFFFF"
         id="stop482" />
    </linearGradient>
    <path
       style="fill:url(#aigrd19);stroke:none;fill-rule:evenodd;"
       d="M53.447,136.136"
       id="path483" />
  </g>
</svg>
