<?xml version="1.0" encoding="UTF-8" standalone="no"?>
<!DOCTYPE svg PUBLIC "-//W3C//DTD SVG 20010904//EN"
"http://www.w3.org/TR/2001/REC-SVG-20010904/DTD/svg10.dtd">
<!-- Created with Sodipodi ("http://www.sodipodi.com/") -->
<svg
   width="48pt"
   height="48pt"
   viewBox="0 0 144 144"
   xml:space="preserve"
   id="svg1"
   sodipodi:version="0.29"
   sodipodi:docname="/home/cschalle/SphereCrystal/SphereCrystal/icons/scalable/emblems/emblem-important.svg"
   sodipodi:docbase="/home/cschalle/SphereCrystal/SphereCrystal/icons/scalable/emblems/"
   xmlns="http://www.w3.org/2000/svg"
   xmlns:sodipodi="http://sodipodi.sourceforge.net/DTD/sodipodi-0.dtd"
   xmlns:xml="http://www.w3.org/XML/1998/namespace"
   xmlns:xlink="http://www.w3.org/1999/xlink">
  <defs
     id="defs75">
    <linearGradient
       id="aigrd1"
       gradientUnits="userSpaceOnUse"
       x1="50.8936"
       y1="166.6953"
       x2="123.6109"
       y2="53.4643">
      <stop
         offset="0"
         style="stop-color:#FFFFFF"
         id="stop7" />
      <stop
         offset="1"
         style="stop-color:#8C8C8C"
         id="stop8" />
    </linearGradient>
    <linearGradient
       id="aigrd2"
       gradientUnits="userSpaceOnUse"
       x1="114.98"
       y1="16.8506"
       x2="90.1714"
       y2="38.8635">
      <stop
         offset="0"
         style="stop-color:#000000"
         id="stop11" />
      <stop
         offset="0.2872"
         style="stop-color:#FFFFFF"
         id="stop12" />
      <stop
         offset="0.4468"
         style="stop-color:#FFFFFF"
         id="stop13" />
      <stop
         offset="0.4893"
         style="stop-color:#DDDDDD"
         id="stop14" />
      <stop
         offset="0.5678"
         style="stop-color:#A3A3A3"
         id="stop15" />
      <stop
         offset="0.6465"
         style="stop-color:#717171"
         id="stop16" />
      <stop
         offset="0.7234"
         style="stop-color:#484848"
         id="stop17" />
      <stop
         offset="0.7983"
         style="stop-color:#292929"
         id="stop18" />
      <stop
         offset="0.8706"
         style="stop-color:#121212"
         id="stop19" />
      <stop
         offset="0.9392"
         style="stop-color:#050505"
         id="stop20" />
      <stop
         offset="1"
         style="stop-color:#000000"
         id="stop21" />
    </linearGradient>
    <linearGradient
       id="aigrd3"
       gradientUnits="userSpaceOnUse"
       x1="-9.5747"
       y1="-40.623"
       x2="111.4343"
       y2="127.9067">
      <stop
         offset="0"
         style="stop-color:#FFFFFF"
         id="stop24" />
      <stop
         offset="1"
         style="stop-color:#000000"
         id="stop25" />
    </linearGradient>
    <linearGradient
       id="aigrd5"
       gradientUnits="userSpaceOnUse"
       x1="-11.9858"
       y1="-32.7383"
       x2="159.9633"
       y2="185.9641">
      <stop
         offset="0"
         style="stop-color:#FFFFFF"
         id="stop29" />
      <stop
         offset="1"
         style="stop-color:#000000"
         id="stop30" />
    </linearGradient>
    <linearGradient
       id="aigrd6"
       gradientUnits="userSpaceOnUse"
       x1="54.3496"
       y1="43.6245"
       x2="240.2121"
       y2="328.1288">
      <stop
         offset="0"
         style="stop-color:#FFFFFF"
         id="stop33" />
      <stop
         offset="1"
         style="stop-color:#000000"
         id="stop34" />
    </linearGradient>
    <linearGradient
       id="aigrd7"
       gradientUnits="userSpaceOnUse"
       x1="-21.0122"
       y1="-56.9399"
       x2="129.0734"
       y2="151.3105">
      <stop
         offset="0"
         style="stop-color:#FFFFFF"
         id="stop37" />
      <stop
         offset="1"
         style="stop-color:#000000"
         id="stop38" />
    </linearGradient>
    <linearGradient
       id="aigrd8"
       gradientUnits="userSpaceOnUse"
       x1="164.5151"
       y1="191.9658"
       x2="101.134"
       y2="1.1629">
      <stop
         offset="0"
         style="stop-color:#FFFFFF"
         id="stop41" />
      <stop
         offset="1"
         style="stop-color:#000000"
         id="stop42" />
    </linearGradient>
    <linearGradient
       id="aigrd9"
       gradientUnits="userSpaceOnUse"
       x1="140.9282"
       y1="109.0854"
       x2="114.0488"
       y2="28.1676">
      <stop
         offset="0"
         style="stop-color:#FFFFFF"
         id="stop45" />
      <stop
         offset="1"
         style="stop-color:#000000"
         id="stop46" />
    </linearGradient>
    <linearGradient
       id="aigrd10"
       gradientUnits="userSpaceOnUse"
       x1="108.9717"
       y1="22.1318"
       x2="113.8882"
       y2="17.2154">
      <stop
         offset="0"
         style="stop-color:#FFFFFF"
         id="stop50" />
      <stop
         offset="0.4715"
         style="stop-color:#898989"
         id="stop51" />
      <stop
         offset="1"
         style="stop-color:#000000"
         id="stop52" />
    </linearGradient>
    <linearGradient
       id="aigrd11"
       gradientUnits="userSpaceOnUse"
       x1="81.0093"
       y1="52.6147"
       x2="147.9179"
       y2="-19.6309">
      <stop
         offset="0"
         style="stop-color:#FFFFFF"
         id="stop55" />
      <stop
         offset="1"
         style="stop-color:#000000"
         id="stop56" />
    </linearGradient>
    <linearGradient
       id="aigrd12"
       gradientUnits="userSpaceOnUse"
       x1="3.6479"
       y1="35.2217"
       x2="76.8062"
       y2="35.2217">
      <stop
         offset="0"
         style="stop-color:#FFFF62"
         id="stop59" />
      <stop
         offset="1"
         style="stop-color:#FFAC00"
         id="stop60" />
    </linearGradient>
    <linearGradient
       id="aigrd13"
       gradientUnits="userSpaceOnUse"
       x1="1.0688"
       y1="35.2217"
       x2="79.3877"
       y2="35.2217">
      <stop
         offset="0"
         style="stop-color:#744426"
         id="stop65" />
      <stop
         offset="1"
         style="stop-color:#DE972B"
         id="stop66" />
    </linearGradient>
    <linearGradient
       id="aigrd15"
       gradientUnits="userSpaceOnUse"
       x1="24.6807"
       y1="36.7822"
       x2="67.944"
       y2="60.7044">
      <stop
         offset="0"
         style="stop-color:#FFFFE1"
         id="stop70" />
      <stop
         offset="1"
         style="stop-color:#FFB800"
         id="stop71" />
    </linearGradient>
  </defs>
  <sodipodi:namedview
     id="base" />
  <path
     style="font-size:12;fill:none;fill-rule:evenodd;stroke-width:0;"
     d="M144,144H0V0h144v144z"
     id="path3" />
  <path
     style="font-size:12;fill:#ffffff;fill-rule:evenodd;stroke-width:0;"
     d="M124.852,29.746c-4.344-1.067-11.245-1.618-22.433-1.703c-0.113-10.495-0.814-16.877-2.021-20.834c4.297,2.598,10.059,6.491,14.491,10.865c2.277,2.248,6.643,7.38,9.963,11.673z"
     id="path48"
     transform="matrix(1.12867,0,0,1.0512,-13.272,-4.94054)" />
  <path
     style="font-size:12;fill:url(#aigrd12);fill-rule:evenodd;stroke-width:0;"
     d="M40.095,3.645z M39.972,3.716L3.667,66.578c-0.013,0.022-0.019,0.047-0.019,0.071c0,0.025,0.006,0.05,0.02,0.072c0.025,0.044,0.072,0.071,0.124,0.071l72.872,0.006c0.051,0,0.099-0.028,0.125-0.072c0.012-0.021,0.019-0.045,0.019-0.07    s-0.006-0.05-0.02-0.072L40.219,3.716c-0.025-0.044-0.073-0.071-0.123-0.071c-0.051,0-0.099,0.027-0.124,0.07z"
     id="path61"
     transform="matrix(1.73154,0,0,1.66271,1.04649,8.6009)" />
  <path
     style="font-size:12;fill:#ffffff;fill-rule:evenodd;stroke-width:0;"
     d="M6.265,68.079c0.193-0.334,0.312-0.504,0.387-0.67c-0.008,0.014-0.387,0.67-0.387,0.67z"
     id="path62"
     transform="matrix(1.73154,0,0,1.66271,1.04649,8.6009)" />
  <path
     style="font-size:12;opacity:0.4;fill:#ffffff;fill-rule:evenodd;stroke-width:0;"
     d="M62.213,45.466c0,12.299-9.97,22.269-22.269,22.269s-22.269-9.97-22.269-22.269s9.97-22.269,22.269-22.269s22.269,9.97,22.269,22.269z"
     id="path63"
     transform="matrix(1.73154,0,0,1.66271,1.04649,8.6009)" />
  <path
     style="font-size:12;fill:url(#aigrd13);fill-rule:evenodd;stroke-width:0;"
     d="M42.812,2.208L79.38,65.075c0.565,0.972,0.568,2.172,0.008,3.147c-0.561,0.975-1.6,1.576-2.725,1.576L3.791,69.792c-1.123,0-2.161-0.599-2.722-1.572c-0.561-0.972-0.561-2.17,0-3.143L37.374,2.216c0.56-0.97,1.595-1.569,2.717-1.571    c1.121-0.001,2.158,0.594,2.721,1.563z M40.095,3.645z M39.972,3.716L3.667,66.578c-0.013,0.022-0.019,0.047-0.019,0.071c0,0.025,0.006,0.05,0.02,0.072c0.025,0.044,0.072,0.071,0.124,0.071l72.872,0.006c0.051,0,0.099-0.028,0.125-0.072    c0.012-0.021,0.019-0.045,0.019-0.07s-0.006-0.05-0.02-0.072L40.219,3.716c-0.025-0.044-0.073-0.071-0.123-0.071c-0.051,0-0.099,0.027-0.124,0.07z"
     id="path67"
     transform="matrix(1.73154,0,0,1.66271,1.04649,8.6009)" />
  <path
     style="font-size:12;fill:url(#aigrd13);fill-rule:evenodd;stroke-width:0;"
     d="M42.812,2.208L79.38,65.075c0.565,0.972,0.568,2.172,0.008,3.147c-0.561,0.975-1.6,1.576-2.725,1.576L3.791,69.792c-1.123,0-2.161-0.599-2.722-1.572c-0.561-0.972-0.561-2.17,0-3.143L37.374,2.216c0.56-0.97,1.595-1.569,2.717-1.571    c1.121-0.001,2.158,0.594,2.721,1.563z M40.095,3.645z M39.972,3.716L3.667,66.578c-0.013,0.022-0.019,0.047-0.019,0.071c0,0.025,0.006,0.05,0.02,0.072c0.025,0.044,0.072,0.071,0.124,0.071l72.872,0.006c0.051,0,0.099-0.028,0.125-0.072    c0.012-0.021,0.019-0.045,0.019-0.07s-0.006-0.05-0.02-0.072L40.219,3.716c-0.025-0.044-0.073-0.071-0.123-0.071c-0.051,0-0.099,0.027-0.124,0.07z"
     id="path68"
     transform="matrix(1.73154,0,0,1.66271,1.04649,8.6009)" />
  <path
     style="font-size:12;fill:url(#aigrd15);fill-rule:evenodd;stroke-width:0;"
     d="M8.74,63.793c0.816,0,2.042,0,3.592,0c13.743-22.018,19.567-19.255,25.704-19.727c9.925-0.764,16.684-9.355,11.707-18.579c-5.401-9.286-8.032-13.239-9.639-16.001C36.133,16.362,12.725,56.893,8.74,63.793z"
     id="path72"
     transform="matrix(1.73154,0,0,1.66271,1.04649,8.6009)" />
  <path
     style="font-size:12;fill-rule:evenodd;stroke-width:0;"
     d="M40.579,46.907h-1.313c-0.137-2.225-0.587-4.917-1.349-8.078l-1.523-6.38c-0.919-3.824-1.378-6.566-1.378-8.225c0-1.502,0.448-2.712,1.347-3.629c0.897-0.917,2.068-1.376,3.514-1.376c1.405,0,2.571,0.464,3.499,1.391    c0.927,0.927,1.391,2.103,1.391,3.526c0,1.483-0.485,4.254-1.454,8.313l-1.541,6.38c-0.543,2.264-0.94,4.957-1.192,8.078z M39.985,51.095c1.318,0,2.444,0.466,3.379,1.397s1.402,2.064,1.402,3.398c0,1.314-0.468,2.438-1.402,3.369s-2.061,1.397-3.379,1.397    s-2.445-0.466-3.38-1.397s-1.401-2.055-1.401-3.369s0.462-2.442,1.387-3.384s2.057-1.412,3.395-1.412z"
     id="path73"
     transform="matrix(1.73154,0,0,1.66271,1.04649,8.6009)" />
</svg>
