<?xml version="1.0" encoding="UTF-8" standalone="no"?>
<!DOCTYPE svg PUBLIC "-//W3C//DTD SVG 20010904//EN"
"http://www.w3.org/TR/2001/REC-SVG-20010904/DTD/svg10.dtd">
<!-- Created with Sodipodi ("http://www.sodipodi.com/") -->
<svg
   width="48pt"
   height="48pt"
   viewBox="0 0 144 144"
   xml:space="preserve"
   id="svg580"
   sodipodi:version="0.29"
   sodipodi:docname="/home/cschalle/SphereCrystal/SphereCrystal/icons/scalable/emblems/emblem-star.svg"
   sodipodi:docbase="/home/cschalle/SphereCrystal/SphereCrystal/icons/scalable/emblems/"
   xmlns="http://www.w3.org/2000/svg"
   xmlns:sodipodi="http://sodipodi.sourceforge.net/DTD/sodipodi-0.dtd"
   xmlns:xml="http://www.w3.org/XML/1998/namespace"
   xmlns:xlink="http://www.w3.org/1999/xlink">
  <defs
     id="defs599" />
  <sodipodi:namedview
     id="base" />
  <g
     id="Layer_x0020_1"
     style="fill-rule:nonzero;clip-rule:nonzero;fill:#FFFFD2;stroke:#FFFFFF;stroke-width:0;stroke-miterlimit:4;"
     transform="matrix(1.0381,0,0,1.01905,-0.457148,0.914314)">
    <path
       style="fill:none;stroke:none;fill-rule:evenodd;"
       d="M144,144H0V0h144v144z"
       id="path582" />
    <path
       style="opacity:0.1;fill:none;stroke:none;"
       d="M94.265,48.453c-1.02-2.311-18.457-41.827-18.457-41.827c-0.368-0.833-1.193-1.371-2.104-1.371S71.967,5.793,71.6,6.625c0,0-17.438,39.517-18.458,41.827C50.629,48.708,7.66,53.081,7.66,53.081c-0.906,0.093-1.672,0.71-1.955,1.578    c-0.076,0.233-0.112,0.472-0.112,0.71c0,0.643,0.271,1.27,0.766,1.714c0,0,32.194,28.795,34.076,30.479c-0.533,2.469-9.653,44.687-9.653,44.687c-0.035,0.163-0.052,0.325-0.052,0.487c0,0.725,0.345,1.42,0.947,1.859c0.738,0.535,1.721,0.585,2.508,0.127    c0,0,37.334-21.72,39.517-22.99c2.183,1.271,39.518,22.99,39.518,22.99c0.787,0.458,1.771,0.408,2.508-0.127c0.603-0.439,0.948-1.135,0.948-1.859c0-0.162-0.019-0.324-0.053-0.487c0,0-9.119-42.218-9.652-44.687c1.882-1.684,34.076-30.479,34.076-30.479    c0.496-0.444,0.766-1.071,0.766-1.714c0-0.238-0.037-0.477-0.111-0.71c-0.283-0.867-1.05-1.485-1.955-1.578"
       id="path583" />
    <path
       style="stroke:none;fill-rule:evenodd;"
       d="M68.704,2.554l18.998,43.051l46.813,4.764l-35.072,31.37l9.936,45.996l-40.674-23.664L28.03,127.735l9.936-45.996L2.893,50.369l46.813-4.764L68.704,2.554z"
       id="path584" />
    <linearGradient
       id="aigrd1"
       gradientUnits="userSpaceOnUse"
       x1="73.0278"
       y1="51.2266"
       x2="73.0278"
       y2="117.531">
      <stop
         offset="0"
         style="stop-color:#FFFF62"
         id="stop586" />
      <stop
         offset="1"
         style="stop-color:#FFAC00"
         id="stop587" />
    </linearGradient>
    <path
       style="fill:url(#aigrd1);stroke:none;fill-rule:evenodd;"
       d="M68.466,21.547l13.972,31.663l43.554,3.133L97.909,80.026l11.469,47.709l-40.674-23.664l-39.572,20.904l10.368-44.949L20.063,56.713l34.431-3.504l13.972-31.663z"
       id="path588" />
    <path
       style="stroke:none;fill-rule:evenodd;"
       d="M7.098,49.94l-4.206,0.429l31.242,27.943l0.758-3.511L7.098,49.94z"
       id="path589" />
    <linearGradient
       id="aigrd2"
       gradientUnits="userSpaceOnUse"
       x1="81.2729"
       y1="71.9932"
       x2="81.2729"
       y2="120.3009">
      <stop
         offset="0"
         style="stop-color:#FFC262"
         id="stop591" />
      <stop
         offset="1"
         style="stop-color:#FF6F00"
         id="stop592" />
    </linearGradient>
    <path
       style="opacity:0.4;fill:url(#aigrd2);stroke:none;fill-rule:evenodd;"
       d="M134.514,50.369l-7.679,0.264L90.982,74.802l9.065,41.963l-37.11-21.588L30.63,120.326l-2.6,7.409l40.673-23.664l40.674,23.664l-9.936-45.996l35.072-31.37z"
       id="path593" />
    <linearGradient
       id="aigrd3"
       gradientUnits="userSpaceOnUse"
       x1="12.7188"
       y1="40.2163"
       x2="155.5607"
       y2="140.9082">
      <stop
         offset="0"
         style="stop-color:#FFAE00"
         id="stop595" />
      <stop
         offset="1"
         style="stop-color:#BB4400"
         id="stop596" />
    </linearGradient>
    <path
       style="fill:none;stroke:none;"
       d="M89.265,43.453c-1.02-2.311-18.458-41.827-18.458-41.827c-0.368-0.833-1.193-1.371-2.104-1.371c-0.911,0-1.736,0.538-2.104,1.371c0,0-17.438,39.517-18.458,41.827C45.629,43.708,2.66,48.081,2.66,48.081c-0.906,0.093-1.672,0.71-1.955,1.578    c-0.076,0.233-0.112,0.472-0.112,0.71c0,0.643,0.271,1.27,0.766,1.714c0,0,32.194,28.795,34.076,30.479c-0.533,2.469-9.653,44.687-9.653,44.687c-0.035,0.163-0.052,0.325-0.052,0.487c0,0.725,0.345,1.42,0.947,1.859c0.738,0.535,1.721,0.585,2.508,0.127    c0,0,37.334-21.72,39.517-22.99c2.183,1.271,39.518,22.99,39.518,22.99c0.787,0.458,1.771,0.408,2.508-0.127c0.603-0.439,0.948-1.135,0.948-1.859c0-0.162-0.019-0.324-0.053-0.487c0,0-9.119-42.218-9.652-44.687c1.882-1.684,34.076-30.479,34.076-30.479    c0.496-0.444,0.766-1.071,0.766-1.714c0-0.238-0.037-0.477-0.111-0.71c-0.283-0.867-1.05-1.485-1.955-1.578 M49.938,47.893c0.823-0.083,1.537-0.603,1.871-1.359c0,0,13.567-30.744,16.894-38.283c3.327,7.54,16.895,38.283,16.895,38.283    c0.334,0.756,1.048,1.275,1.871,1.359c0,0,33.429,3.402,41.628,4.236c-6.143,5.495-31.188,27.897-31.188,27.897c-0.493,0.44-0.767,1.066-0.767,1.713c0,0.162,0.018,0.324,0.053,0.486c0,0,7.094,32.846,8.835,40.9c-7.124-4.144-36.17-21.042-36.17-21.042    c-0.714-0.416-1.597-0.416-2.312,0c0,0-29.046,16.898-36.17,21.042c1.741-8.055,8.835-40.9,8.835-40.9c0.035-0.162,0.052-0.324,0.052-0.486c0-0.646-0.273-1.272-0.766-1.713c0,0-25.047-22.403-31.189-27.897c8.199-0.834,41.628-4.236,41.628-4.236z"
       id="path597" />
  </g>
</svg>
