<?xml version="1.0" encoding="UTF-8" standalone="no"?>
<!DOCTYPE svg PUBLIC "-//W3C//DTD SVG 20010904//EN"
"http://www.w3.org/TR/2001/REC-SVG-20010904/DTD/svg10.dtd">
<!-- Created with Sodipodi ("http://www.sodipodi.com/") -->
<svg
   id="svg403"
   sodipodi:version="0.29"
   width="48pt"
   height="48pt"
   sodipodi:docbase="/home/cschalle/SphereCrystal/SphereCrystal/icons/scalable/emblems/"
   sodipodi:docname="/home/cschalle/SphereCrystal/SphereCrystal/icons/scalable/emblems/emblem-documents.svg"
   xmlns="http://www.w3.org/2000/svg"
   xmlns:sodipodi="http://sodipodi.sourceforge.net/DTD/sodipodi-0.dtd"
   xmlns:xlink="http://www.w3.org/1999/xlink">
  <defs
     id="defs405" />
  <sodipodi:namedview
     id="base" />
  <g
     style="font-size:12;fill:#ffffff;stroke-width:0;"
     id="g56"
     transform="matrix(0.629812,0,0,0.566085,-32.5317,-28.4411)">
    <linearGradient
       id="aigrd10"
       gradientUnits="userSpaceOnUse"
       x1="83.311"
       y1="96.2998"
       x2="127.8853"
       y2="117.2647">
      <stop
         offset="0"
         style="stop-color:#CFF0FF"
         id="stop58" />
      <stop
         offset="1"
         style="stop-color:#6DB8FF"
         id="stop59" />
    </linearGradient>
    <path
       style="fill:url(#aigrd10);fill-rule:evenodd;"
       d="M143.37,126.053l-21.002-52.502L82.204,90.877l-9.086-0.26L55.987,67.775l21,52.504l17.094,21.851l0.112,0.283l0.101,0.003l0.195,0.26l-0.104-0.256l8.995,0.256l39.989-16.623z"
       id="path60" />
    <linearGradient
       id="aigrd11"
       gradientUnits="userSpaceOnUse"
       x1="127.147"
       y1="124.8906"
       x2="69.4648"
       y2="73.3887">
      <stop
         offset="0"
         style="stop-color:#0032A4"
         id="stop62" />
      <stop
         offset="1"
         style="stop-color:#3995E5"
         id="stop63" />
    </linearGradient>
    <path
       style="fill:url(#aigrd11);fill-rule:evenodd;"
       d="M56.17,67.358c-0.417,0.235-0.658,0.669-0.658,1.124c0,0.16,0.031,0.321,0.093,0.478l20.608,51.522c0.043,0.105,0.098,0.203,0.166,0.295c0,0,16.473,21.025,16.675,21.295c0.022,0.058,0.423,0.533,0.643,0.676     c0.229,0.213,1.561,0.299,1.587,0.281c1.366,0.039,7.994,0.229,7.994,0.229c0.188,0.005,0.375-0.03,0.547-0.104l39.238-16.299c0.64-0.276,0.945-1.013,0.686-1.661L123.14,73.67c-0.13-0.322-0.384-0.578-0.705-0.711s-0.682-0.13-1.001,0.008     c0,0-38.637,16.666-39.154,16.89c-0.495-0.015-6.972-0.2-8.011-0.229c-0.713-0.95-16.438-21.918-16.438-21.918c-0.388-0.516-1.098-0.666-1.662-0.35z M82.723,92.082c0,0,36.602-15.789,38.928-16.791c0.932,2.33,19.141,47.852,20.025,50.063     c-2.197,0.948-38.037,15.78-38.549,16.001c-0.51-0.015-7.239-0.207-8.162-0.232c-0.322-0.43-16.621-21.223-16.824-21.492c-0.105-0.266-12.258-30.646-17.251-43.128c5.07,6.759,11.177,14.901,11.177,14.901c0.24,0.32,0.613,0.515,1.014,0.525l9.086,0.259     c0.191,0.007,0.381-0.03,0.557-0.106z"
       id="path64" />
    <path
       d="M99.18,133.404"
       id="path65"
       style="fill-rule:evenodd;" />
    <g
       id="g66">
      <g
         id="g67">
        <g
           id="g68">
          <linearGradient
             id="aigrd12"
             gradientUnits="userSpaceOnUse"
             x1="78.7476"
             y1="105.5879"
             x2="96.3646"
             y2="131.3534">
            <stop
               offset="0"
               style="stop-color:#D9D9D9"
               id="stop70" />
            <stop
               offset="1"
               style="stop-color:#8C99C9"
               id="stop71" />
          </linearGradient>
          <path
             style="fill:url(#aigrd12);fill-rule:evenodd;"
             d="M79.585,117.644l15.554,20.778l8.447,0.43L76.953,92.133L61.398,71.355l18.187,46.289z"
             id="path72" />
          <path
             style="fill:url(#aigrd12);fill-rule:evenodd;"
             d="M61.148,70.906c-0.22,0.128-0.314,0.402-0.22,0.641l18.186,46.289c0.018,0.044,0.039,0.085,0.068,0.122l15.555,20.777c0.152,0.205,9.697,0.633,9.697,0.633L77.423,91.941c-0.017-0.043-0.04-0.084-0.067-0.121L61.802,71.042        c-0.154-0.206-0.433-0.264-0.654-0.137z M63.25,74.68c3.288,4.391,13.186,17.615,13.258,17.711c0.035,0.088,26.148,45.341,26.148,45.771c0,0.173-7.456-0.119-7.609-0.344c-3.289-4.391-14.946-20.336-15.018-20.432c-0.047-0.119-14.422-36.709-16.779-42.707z"
             id="path73" />
        </g>
        <g
           id="g74">
          <path
             d="M79.585,117.644l15.554,20.778l8.447,0.43L76.953,92.133L61.398,71.355l18.187,46.289z"
             id="path75"
             style="fill-rule:evenodd;" />
          <linearGradient
             id="aigrd14"
             gradientUnits="userSpaceOnUse"
             x1="140.0698"
             y1="142.7363"
             x2="88.8392"
             y2="111.3615">
            <stop
               offset="0"
               style="stop-color:#D9D9D9"
               id="stop77" />
            <stop
               offset="1"
               style="stop-color:#8C99C9"
               id="stop78" />
          </linearGradient>
          <path
             style="fill:url(#aigrd14);fill-rule:evenodd;"
             d="M61.148,70.906c-0.22,0.128-0.314,0.402-0.22,0.641l18.186,46.289c0.018,0.044,0.039,0.085,0.068,0.122l15.555,20.777c0.152,0.205,9.697,0.633,9.697,0.633L77.423,91.941c-0.017-0.043-0.04-0.084-0.067-0.121L61.802,71.042        c-0.154-0.206-0.433-0.264-0.654-0.137z M63.25,74.68c3.288,4.391,13.186,17.615,13.258,17.711c0.035,0.088,26.148,45.341,26.148,45.771c0,0.173-7.456-0.119-7.609-0.344c-3.289-4.391-14.946-20.336-15.018-20.432c-0.047-0.119-14.422-36.709-16.779-42.707z"
             id="path79" />
        </g>
      </g>
      <g
         id="g80">
        <path
           d="M138.135,124.096l-34.31,15.068l-17.94-45.663l34.311-15.067l17.939,45.662z"
           id="path81"
           style="fill-rule:evenodd;" />
        <linearGradient
           id="aigrd15"
           gradientUnits="userSpaceOnUse"
           x1="82.6655"
           y1="108.7988"
           x2="118.8118"
           y2="108.7988">
          <stop
             offset="0"
             style="stop-color:#D9D9D9"
             id="stop83" />
          <stop
             offset="1"
             style="stop-color:#8C99C9"
             id="stop84" />
        </linearGradient>
        <path
           style="fill:url(#aigrd15);fill-rule:evenodd;"
           d="M119.998,77.966L85.687,93.034c-0.248,0.108-0.368,0.4-0.267,0.656l17.939,45.663c0.051,0.127,0.149,0.229,0.274,0.281c0.124,0.053,0.265,0.051,0.389-0.004l34.31-15.068c0.25-0.108,0.367-0.398,0.268-0.656l-17.94-45.662       c-0.05-0.127-0.148-0.229-0.274-0.281c-0.123-0.053-0.264-0.052-0.388,0.003z M119.922,79.107c0.369,0.94,17.219,43.825,17.568,44.718c-0.859,0.377-32.488,14.267-33.393,14.665c-0.369-0.94-17.217-43.826-17.568-44.718       c0.858-0.377,32.487-14.268,33.393-14.665z"
           id="path85" />
      </g>
      <g
         id="g86">
        <path
           d="M136.42,122.887l-34.309,15.068L84.17,92.293l34.312-15.068l17.938,45.662z"
           id="path87"
           style="fill-rule:evenodd;" />
        <linearGradient
           id="aigrd16"
           gradientUnits="userSpaceOnUse"
           x1="80.9526"
           y1="107.5898"
           x2="117.0975"
           y2="107.5898">
          <stop
             offset="0"
             style="stop-color:#D9D9D9"
             id="stop89" />
          <stop
             offset="1"
             style="stop-color:#8C99C9"
             id="stop90" />
        </linearGradient>
        <path
           style="fill:url(#aigrd16);fill-rule:evenodd;"
           d="M118.284,76.758L83.973,91.826c-0.249,0.109-0.367,0.4-0.266,0.656l17.939,45.662c0.051,0.129,0.148,0.229,0.273,0.281s0.265,0.053,0.39-0.002l34.31-15.07c0.25-0.107,0.367-0.398,0.266-0.654l-17.939-45.663       c-0.05-0.128-0.149-0.229-0.273-0.282c-0.125-0.053-0.265-0.051-0.389,0.004z M118.208,77.898c0.37,0.941,17.219,43.826,17.568,44.718c-0.857,0.377-32.486,14.269-33.392,14.666c-0.369-0.941-17.218-43.825-17.569-44.718       c0.859-0.377,32.488-14.268,33.393-14.666z"
           id="path91" />
      </g>
      <g
         id="g92">
        <path
           d="M135.367,121.411l-34.31,15.068L83.116,90.816l34.312-15.068l17.939,45.663z"
           id="path93"
           style="fill-rule:evenodd;" />
        <linearGradient
           id="aigrd17"
           gradientUnits="userSpaceOnUse"
           x1="79.8979"
           y1="106.1133"
           x2="116.0429"
           y2="106.1133">
          <stop
             offset="0"
             style="stop-color:#D9D9D9"
             id="stop95" />
          <stop
             offset="1"
             style="stop-color:#8C99C9"
             id="stop96" />
        </linearGradient>
        <path
           style="fill:url(#aigrd17);fill-rule:evenodd;"
           d="M117.229,75.281L82.918,90.35c-0.249,0.109-0.367,0.4-0.266,0.656l17.939,45.662c0.051,0.128,0.148,0.229,0.273,0.281c0.124,0.053,0.265,0.053,0.389-0.003l34.311-15.069c0.249-0.107,0.367-0.398,0.266-0.654L117.891,75.56       c-0.051-0.128-0.149-0.229-0.273-0.282c-0.125-0.053-0.266-0.051-0.389,0.004z M117.153,76.423c0.369,0.94,17.219,43.825,17.569,44.718c-0.858,0.375-32.487,14.268-33.392,14.664c-0.37-0.939-17.219-43.824-17.569-44.717       c0.858-0.377,32.487-14.268,33.392-14.665z"
           id="path97" />
      </g>
      <path
         d="M134.123,120.439l-34.931,15.342L80.928,89.293l34.931-15.341l18.264,46.487z"
         id="path98"
         style="fill-rule:evenodd;" />
      <linearGradient
         id="aigrd18"
         gradientUnits="userSpaceOnUse"
         x1="78.0522"
         y1="104.7715"
         x2="114.1978"
         y2="104.7715">
        <stop
           offset="0"
           style="stop-color:#D9D9D9"
           id="stop100" />
        <stop
           offset="1"
           style="stop-color:#8C99C9"
           id="stop101" />
      </linearGradient>
      <path
         style="fill:url(#aigrd18);fill-rule:evenodd;"
         d="M115.383,73.938L81.073,89.008c-0.248,0.109-0.367,0.4-0.266,0.656l17.939,45.662c0.049,0.127,0.148,0.229,0.273,0.281c0.125,0.053,0.265,0.051,0.389-0.004l34.311-15.068c0.248-0.109,0.367-0.399,0.267-0.656l-17.94-45.661      c-0.051-0.13-0.149-0.229-0.273-0.282c-0.125-0.052-0.265-0.051-0.389,0.003z M115.307,75.08c0.369,0.939,17.219,43.825,17.568,44.717c-0.857,0.377-32.486,14.268-33.392,14.665c-0.37-0.938-17.218-43.823-17.568-44.716c0.858-0.377,32.487-14.27,33.392-14.666z      "
         id="path102" />
      <linearGradient
         id="aigrd19"
         gradientUnits="userSpaceOnUse"
         x1="86.9478"
         y1="93.3506"
         x2="124.0903"
         y2="114.1365">
        <stop
           offset="0"
           style="stop-color:#FFFFFF"
           id="stop104" />
        <stop
           offset="1"
           style="stop-color:#DFDFEC"
           id="stop105" />
      </linearGradient>
      <path
         style="fill:url(#aigrd19);fill-rule:evenodd;"
         d="M130.731,118.453l-30.475,13.384L84.322,91.28l30.474-13.384l15.936,40.557z"
         id="path106" />
      <g
         id="g107">
        <g
           id="g108">
          <linearGradient
             id="aigrd20"
             gradientUnits="userSpaceOnUse"
             x1="80.4956"
             y1="104.4063"
             x2="98.1296"
             y2="130.1966">
            <stop
               offset="0"
               style="stop-color:#D9D9D9"
               id="stop110" />
            <stop
               offset="1"
               style="stop-color:#8C99C9"
               id="stop111" />
          </linearGradient>
          <path
             style="fill:url(#aigrd20);fill-rule:evenodd;"
             d="M81.672,116.956l15.553,20.778L79.04,91.445L63.485,70.667l18.187,46.289z"
             id="path112" />
          <path
             style="fill:url(#aigrd20);fill-rule:evenodd;"
             d="M63.236,70.218c-0.221,0.127-0.315,0.401-0.221,0.64l18.186,46.289c0.017,0.045,0.039,0.086,0.066,0.123l15.555,20.777c0.153,0.206,0.432,0.263,0.652,0.136c0.222-0.128,0.316-0.4,0.223-0.641L79.51,91.254        c-0.018-0.042-0.039-0.084-0.067-0.121L63.889,70.354c-0.154-0.205-0.433-0.263-0.653-0.136z M65.337,73.992c3.288,4.393,13.187,17.614,13.258,17.711c0.048,0.119,14.422,36.709,16.779,42.705c-3.288-4.391-13.187-17.613-13.257-17.709        c-0.048-0.119-14.424-36.709-16.78-42.707z"
             id="path113" />
        </g>
        <g
           id="g114">
          <path
             d="M81.672,116.956l15.553,20.778L79.04,91.445L63.485,70.667l18.187,46.289z"
             id="path115"
             style="fill-rule:evenodd;" />
          <linearGradient
             id="aigrd22"
             gradientUnits="userSpaceOnUse"
             x1="141.0142"
             y1="141.3486"
             x2="89.7287"
             y2="109.9402">
            <stop
               offset="0"
               style="stop-color:#D9D9D9"
               id="stop117" />
            <stop
               offset="1"
               style="stop-color:#8C99C9"
               id="stop118" />
          </linearGradient>
          <path
             style="fill:url(#aigrd22);fill-rule:evenodd;"
             d="M63.236,70.218c-0.221,0.127-0.315,0.401-0.221,0.64l18.186,46.289c0.017,0.045,0.039,0.086,0.066,0.123l15.555,20.777c0.153,0.206,0.432,0.263,0.652,0.136c0.222-0.128,0.316-0.4,0.223-0.641L79.51,91.254        c-0.018-0.042-0.039-0.084-0.067-0.121L63.889,70.354c-0.154-0.205-0.433-0.263-0.653-0.136z M65.337,73.992c3.288,4.393,13.187,17.614,13.258,17.711c0.048,0.119,14.422,36.709,16.779,42.705c-3.288-4.391-13.187-17.613-13.257-17.709        c-0.048-0.119-14.424-36.709-16.78-42.707z"
             id="path119" />
        </g>
      </g>
      <g
         id="g120">
        <g
           id="g121">
          <linearGradient
             id="aigrd23"
             gradientUnits="userSpaceOnUse"
             x1="82.4517"
             y1="103.0479"
             x2="100.0861"
             y2="128.8388">
            <stop
               offset="0"
               style="stop-color:#D9D9D9"
               id="stop123" />
            <stop
               offset="1"
               style="stop-color:#8C99C9"
               id="stop124" />
          </linearGradient>
          <path
             style="fill:url(#aigrd23);fill-rule:evenodd;"
             d="M84.322,117.131l15.554,20.777L81.69,91.621l-15.555-20.78l18.187,46.29z"
             id="path125" />
          <path
             style="fill:url(#aigrd23);fill-rule:evenodd;"
             d="M65.885,69.874c-0.221,0.126-0.314,0.401-0.221,0.64l18.187,46.289c0.017,0.045,0.039,0.084,0.067,0.123l15.554,20.777c0.153,0.205,0.433,0.263,0.653,0.137c0.221-0.129,0.314-0.402,0.221-0.641L82.16,90.911        c-0.017-0.044-0.04-0.085-0.067-0.122L66.539,70.01c-0.154-0.206-0.433-0.264-0.653-0.136z M67.987,73.648c3.288,4.391,13.185,17.615,13.257,17.711c0.047,0.119,14.422,36.709,16.778,42.705c-3.286-4.391-13.186-17.615-13.257-17.709        c-0.047-0.121-14.422-36.711-16.779-42.707z"
             id="path126" />
        </g>
        <g
           id="g127">
          <path
             d="M84.322,117.131l15.554,20.777L81.69,91.621l-15.555-20.78l18.187,46.29z"
             id="path128"
             style="fill-rule:evenodd;" />
          <linearGradient
             id="aigrd25"
             gradientUnits="userSpaceOnUse"
             x1="141.8735"
             y1="139.9092"
             x2="90.5857"
             y2="108.4993">
            <stop
               offset="0"
               style="stop-color:#D9D9D9"
               id="stop130" />
            <stop
               offset="1"
               style="stop-color:#8C99C9"
               id="stop131" />
          </linearGradient>
          <path
             style="fill:url(#aigrd25);fill-rule:evenodd;"
             d="M65.885,69.874c-0.221,0.126-0.314,0.401-0.221,0.64l18.187,46.289c0.017,0.045,0.039,0.084,0.067,0.123l15.554,20.777c0.153,0.205,0.433,0.263,0.653,0.137c0.221-0.129,0.314-0.402,0.221-0.641L82.16,90.911        c-0.017-0.044-0.04-0.085-0.067-0.122L66.539,70.01c-0.154-0.206-0.433-0.264-0.653-0.136z M67.987,73.648c3.288,4.391,13.185,17.615,13.257,17.711c0.047,0.119,14.422,36.709,16.778,42.705c-3.286-4.391-13.186-17.615-13.257-17.709        c-0.047-0.121-14.422-36.711-16.779-42.707z"
             id="path132" />
        </g>
      </g>
      <g
         id="g133">
        <path
           d="M119.278,105.986l-19.291,29.938L81.754,89.83l19.291-29.936l18.232,46.092z"
           id="path134"
           style="fill-rule:evenodd;" />
        <linearGradient
           id="aigrd26"
           gradientUnits="userSpaceOnUse"
           x1="71.3838"
           y1="164.5645"
           x2="96.1173"
           y2="107.9732">
          <stop
             offset="0"
             style="stop-color:#D9D9D9"
             id="stop136" />
          <stop
             offset="1"
             style="stop-color:#8C99C9"
             id="stop137" />
        </linearGradient>
        <path
           style="fill:url(#aigrd26);fill-rule:evenodd;"
           d="M100.407,59.473L81.116,89.411c-0.135,0.21-0.16,0.474-0.068,0.706l18.232,46.092c0.106,0.268,0.35,0.453,0.633,0.481s0.559-0.106,0.714-0.347l19.29-29.937c0.135-0.21,0.162-0.474,0.068-0.707l-18.231-46.092       c-0.106-0.267-0.35-0.453-0.633-0.481c-0.284-0.028-0.558,0.105-0.714,0.346z M100.883,61.558c1.017,2.57,17.259,43.633,17.54,44.342c-0.405,0.629-16.819,26.102-18.274,28.358c-1.016-2.571-17.26-43.634-17.54-44.343c0.405-0.628,16.819-26.101,18.274-28.358z       "
           id="path138" />
        <linearGradient
           id="aigrd27"
           gradientUnits="userSpaceOnUse"
           x1="87.4048"
           y1="91.8848"
           x2="110.1542"
           y2="104.6159">
          <stop
             offset="0"
             style="stop-color:#FFFFFF"
             id="stop140" />
          <stop
             offset="1"
             style="stop-color:#DFDFEC"
             id="stop141" />
        </linearGradient>
        <path
           style="fill:url(#aigrd27);fill-rule:evenodd;"
           d="M115.214,105.484L99.58,129.747L84.803,92.392l15.634-24.263l14.777,37.355z"
           id="path142" />
      </g>
    </g>
  </g>
</svg>
