<?xml version="1.0" encoding="UTF-8" standalone="no"?>
<!DOCTYPE svg PUBLIC "-//W3C//DTD SVG 20010904//EN"
"http://www.w3.org/TR/2001/REC-SVG-20010904/DTD/svg10.dtd">
<!-- Created with Sodipodi ("http://www.sodipodi.com/") -->
<svg
   width="48pt"
   height="48pt"
   viewBox="0 0 144 144"
   xml:space="preserve"
   id="svg1"
   sodipodi:version="0.29"
   sodipodi:docname="/home/cschalle/SphereCrystal/SphereCrystal/icons/scalable/emblems/emblem-web.svg"
   sodipodi:docbase="/home/cschalle/SphereCrystal/SphereCrystal/icons/scalable/emblems/"
   xmlns="http://www.w3.org/2000/svg"
   xmlns:sodipodi="http://sodipodi.sourceforge.net/DTD/sodipodi-0.dtd"
   xmlns:xml="http://www.w3.org/XML/1998/namespace"
   xmlns:xlink="http://www.w3.org/1999/xlink">
  <defs
     id="defs150" />
  <sodipodi:namedview
     id="base" />
  <path
     style="font-size:12;fill:none;fill-rule:evenodd;stroke-width:0;"
     d="M144,144H0V0h144v144z"
     id="path3" />
  <g
     style="font-size:12;stroke-width:0;"
     id="g56"
     transform="matrix(1.75785,0,0,1.79347,-112.73,-116.674)">
    <path
       style="opacity:0.1;fill-rule:evenodd;clip-rule:evenodd;"
       d="M68.844,106.293c0,20.563,16.705,37.294,37.237,37.294c20.535,0,37.24-16.73,37.24-37.294c0-20.498-16.705-37.174-37.24-37.174c-20.532,0-37.237,16.676-37.237,37.174z"
       id="path57" />
    <radialGradient
       id="aigrd10"
       cx="74.9355"
       cy="72.1777"
       r="66.3946"
       fx="74.9355"
       fy="72.1777"
       gradientUnits="userSpaceOnUse">
      <stop
         offset="0"
         style="stop-color:#FFFFFF"
         id="stop59" />
      <stop
         offset="0.1685"
         style="stop-color:#D4FFFF"
         id="stop60" />
      <stop
         offset="0.7921"
         style="stop-color:#51A8FF"
         id="stop61" />
    </radialGradient>
    <path
       style="fill-rule:evenodd;clip-rule:evenodd;fill:url(#aigrd10);"
       d="M66.11,103.56c0,20.563,16.705,37.293,37.238,37.293s37.239-16.729,37.239-37.293c0-20.498-16.706-37.175-37.239-37.175S66.11,83.062,66.11,103.56z"
       id="path62" />
    <radialGradient
       id="aigrd11"
       cx="84.0244"
       cy="116.6738"
       r="44.1933"
       fx="84.0244"
       fy="116.6738"
       gradientTransform="matrix(1.1009 0 0 1.0433 9.1137 5.5685)"
       gradientUnits="userSpaceOnUse">
      <stop
         offset="0"
         style="stop-color:#FFFFFF"
         id="stop64" />
      <stop
         offset="0.3034"
         style="stop-color:#CCF0FF"
         id="stop65" />
      <stop
         offset="1"
         style="stop-color:#1D6CE9"
         id="stop66" />
    </radialGradient>
    <path
       style="fill-rule:evenodd;clip-rule:evenodd;fill:url(#aigrd11);"
       d="M103.349,138.665c19.354,0,35.053-15.765,35.053-35.105c0-19.219-15.699-34.988-35.053-34.988c-19.217,0-35.051,15.769-35.051,34.988c0,19.341,15.834,35.105,35.051,35.105z"
       id="path67" />
    <path
       style="opacity:0.1;fill:#0000CF;fill-rule:evenodd;"
       d="M84.958,104.178c-0.321-0.304-0.107-1.632-0.107-1.632s-4.807-2.549-10.041-4.078c-0.646-0.189-0.32-1.529,0.32-2.039l-0.215-1.431c-0.105-0.712,1.07-4.179,2.244-4.484c1.175-0.307-0.107,2.039-0.107,2.039l-1.174,0.714     c0,0,1.389,1.631,1.71,1.631c0.319,0,0.854-0.816,0.854-0.816l-1.496-1.018l1.388-0.613l0.087-0.538l0.234-0.075l2.299-3.51c1.588-0.656,3.543-1.469,3.791-1.588c0.427-0.203,3.418-1.937,3.952-2.344c0.534-0.409,1.708-0.307,2.136-0.307s1.068-0.203,1.176-1.327     c0.107-1.12,0.533-1.325,0.855-1.019c0.319,0.305-0.322,0.814,0.426,1.019c0.748,0.205,1.388,0.716,1.922,0.205c0.393-0.374-0.131-0.799-0.482-1.122h5.932l0.642-1.838l-1.388-0.203l-5.13-0.508v-0.613l-0.409,0.07c0.555-3.077,3.854-2.57,1.372-4.352     c-0.152-0.107-2.324,3.452-2.876,3.383c-1.002-0.133-2.297-0.145-2.574,0.185c-0.361,0.434,0.821-1.491,1.84-2.075c-1.625,0.483-6.766,2.256-12.201,8.093c-5.195,5.579-7.266,13.097-7.266,13.358c0,0.51,1.07,0.715,1.178,1.327c0.105,0.61-2.03,2.649-2.03,3.67     c0,0.47-0.504,6.755,1.28,11.933c2.086,6.043,6.534,11.09,7.053,11.421l1.067-0.509c0,0-2.456-4.387-2.563-4.795c-0.107-0.406,2.777-6.322,4.166-6.117c1.389,0.202,1.068,0.612,1.924,0.102c0.854-0.51,1.388-4.693,2.348-5.098     c0.963-0.409,2.031-0.918,1.926-1.938c-0.107-1.022-3.74-2.855-4.061-3.163z M92.649,75.726c-0.158,0-0.332,0.065-0.512,0.168c0.42-0.125,0.617-0.168,0.512-0.168z M103.013,77.765l0.104-1.529l-1.601,0.103l0.213,1.427h1.283z M108.14,74.196l-2.885-1.021     l0.535,1.634l2.35-0.612z M97.35,77.969c0.322,0,6.731-4.282,6.089-4.385c-0.641-0.101-0.746,0-2.457-0.204c-1.709-0.205-3.526,2.448-3.953,2.855c-0.426,0.409-0.282,1.733,0.321,1.733z M114.769,115.993c0,0-0.724,0.193,0.104,0.49     c0.826,0.296,4.135-4.815,4.135-4.815l-2.791,1.768l-1.447,2.558z M134.724,100.364l-0.539-1.055c-0.641-3.635-2.105-8.29-5.25-13.1c-4.729-7.229-17.889-11.398-17.889-11.398l-0.724,0.882l-0.413-0.685l-1.035-0.396v0.884l0.931,0.787l-0.619,0.295l-2.38,0.195     l-5.375,2.95l0.516,2.358l-0.621,0.199l-0.309,0.488l1.758,2.653l0.103,0.886l-1.446,0.294v1.769l-0.827,0.197l0.103,1.375l-7.031,4.916l0.206,2.751c0.518,0.688,4.552,4.817,4.552,4.817s4.65,0.193,5.686-0.393c1.033-0.592,0.311,0.586,0.621,0.883     c0.309,0.297,0.412,2.357,0.723,2.557c0.311,0.195,0,1.373,0.414,1.768c0.414,0.393,0.414,5.113,0.414,5.113s2.481,4.225,2.481,5.307c0,1.08-0.104,0.982,1.86,0.885c1.967-0.099,2.377-0.885,2.791-1.18c0.416-0.295,0.416-0.982,0.829-1.574     c0.415-0.589,1.136-2.848,2.067-3.634c0.931-0.789,3.412-1.379,3.618-2.753c0.206-1.377,1.138-2.459,1.138-2.459l4.471-4.768l-0.127,0.641l-0.104,2.455l1.344-0.49l-0.104-2.654l-0.483-0.516l0.069-0.073c0,0-0.31-0.589-0.723-0.589     c-0.414,0-2.896,0.589-3.309,0.49c-0.415-0.098-2.173-4.815-2.482-5.011c-0.311-0.197-2.273-3.44-2.273-3.44s4.548,5.505,5.271,7.666c0.42,1.258,1.998,0.086,3.283-1.227l0.338,0.834l0.826-0.198l-0.104-0.983h0.932v1.475l-0.311,0.787l-0.107,1.275l0.83,0.789     l0.414-0.688l1.342-1.279l1.553-0.785l0.412,0.785l0.209,1.083l-0.415,1.177L131,104.394l-0.413,1.77v0.883l-0.93-0.588l-0.103-1.866l-1.343,0.099l-0.621,1.668l0.929,1.379l2.171,0.293l1.76-1.672l0.205-3.24l0.783-1.041c0.508,1.32,0.873,2.702,0.873,3.988     c0,1.412,0.639-0.978,0.096-5.281l0.316-0.42z M108.668,90.339l-5.583-0.197l2.377-1.966h1.24l1.966,1.374v0.789z M115.493,89.651v0.885h-2.379l0.207,0.59l-1.449,0.198l-0.102,0.489l-1.034-0.195l-1.862-0.395l0.312-0.49l0.31-0.592l1.033-1.08l0.414,0.785     l1.552-0.098l0.827-0.885l3.203,0.588l-1.031,0.199z M115.698,88.372l-1.241,0.197l-0.205-0.885l1.549-0.195l0.208-0.886l1.139,1.181l-1.449,0.588z M126.763,108.718l0.828-1.082l-0.828-0.293l-0.621,0.785l-0.723,1.081l0.619,0.296l0.725-0.787z      M121.695,118.939l-0.724,0.591l0.104,1.475h0.931v-1.277l0.827-1.082v-2.26l-0.518-0.102l-0.62,2.655z M130.382,112.258l-0.209-1.572h-1.342l-0.104,1.176l-1.244-0.193l-0.307-1.278l-0.621-0.392l-0.724,0.884l-0.723-0.196l-0.208,0.686l0.828,0.198v6.389     l2.928,0.71c-0.068,0.118-0.12,0.217-0.138,0.271c-0.206,0.688,0.828,0.983,1.55,0.688c0.27-0.109,1.12-0.976,1.655-2.26c0.744-1.785,1.396-4.144,1.526-4.977l0.334-0.724l-2.067,0.786l-1.136-0.196z"
       id="path68" />
    <radialGradient
       id="aigrd12"
       cx="96.0254"
       cy="83.3311"
       r="39.2959"
       fx="96.0254"
       fy="83.3311"
       gradientUnits="userSpaceOnUse">
      <stop
         offset="0.2978"
         style="stop-color:#14CF3C"
         id="stop70" />
      <stop
         offset="0.4484"
         style="stop-color:#13CB3B"
         id="stop71" />
      <stop
         offset="0.5841"
         style="stop-color:#11C037"
         id="stop72" />
      <stop
         offset="0.7141"
         style="stop-color:#0EAE31"
         id="stop73" />
      <stop
         offset="0.8407"
         style="stop-color:#099427"
         id="stop74" />
      <stop
         offset="0.9635"
         style="stop-color:#02731C"
         id="stop75" />
      <stop
         offset="1"
         style="stop-color:#006818"
         id="stop76" />
    </radialGradient>
    <path
       style="fill:url(#aigrd12);fill-rule:evenodd;"
       d="M91.704,72.427c-0.173,0-0.362,0.072-0.557,0.182c0.457-0.134,0.672-0.182,0.557-0.182z M102.991,74.63l0.113-1.652l-1.743,0.11l0.231,1.542h1.398z M83.327,103.16c-0.35-0.329-0.115-1.763-0.115-1.763s-5.236-2.752-10.938-4.406     c-0.703-0.203-0.348-1.65,0.348-2.2l-0.231-1.547c-0.116-0.769,1.165-4.514,2.444-4.843c1.279-0.332-0.117,2.201-0.117,2.201l-1.279,0.771c0,0,1.512,1.762,1.861,1.762c0.349,0,0.931-0.882,0.931-0.882l-1.629-1.099l1.513-0.663l0.096-0.581l0.253-0.08     l2.504-3.793c1.73-0.708,3.857-1.586,4.128-1.715c0.466-0.219,3.723-2.09,4.305-2.531c0.583-0.441,1.861-0.33,2.326-0.33c0.467,0,1.164-0.221,1.28-1.435c0.116-1.211,0.583-1.433,0.931-1.101c0.35,0.328-0.35,0.881,0.466,1.101     c0.815,0.222,1.511,0.772,2.095,0.222c0.426-0.404-0.145-0.863-0.528-1.211h6.46l0.699-1.985l-1.512-0.22l-5.586-0.55v-0.661l-0.445,0.074c0.604-3.322,4.197-2.775,1.493-4.699c-0.165-0.117-2.53,3.729-3.132,3.654c-1.092-0.145-2.501-0.156-2.802,0.199     c-0.396,0.468,0.893-1.611,2.003-2.242c-1.771,0.521-7.369,2.438-13.288,8.742c-5.658,6.026-7.913,14.146-7.913,14.43c0,0.55,1.164,0.771,1.28,1.434c0.116,0.657-2.209,2.862-2.209,3.963c0,0.508-0.55,7.297,1.394,12.89c2.271,6.528,7.116,11.979,7.681,12.337     l1.162-0.552c0,0-2.676-4.736-2.792-5.178c-0.116-0.438,3.025-6.829,4.538-6.607c1.512,0.218,1.163,0.661,2.094,0.11s1.512-5.069,2.559-5.508c1.049-0.441,2.211-0.992,2.097-2.094c-0.118-1.104-4.073-3.083-4.423-3.415z M108.575,70.775l-3.142-1.103l0.583,1.764     l2.559-0.662z M96.823,74.851c0.35,0,7.33-4.625,6.632-4.737c-0.696-0.109-0.813,0-2.677-0.22c-1.86-0.221-3.84,2.645-4.305,3.084c-0.463,0.442-0.309,1.873,0.35,1.873z M128.856,108.064l0.902-1.169l-0.902-0.317l-0.675,0.851l-0.787,1.165l0.674,0.32     l0.788-0.85z M132.798,111.889l-0.227-1.698h-1.462l-0.112,1.271l-1.354-0.21l-0.336-1.382l-0.674-0.423l-0.79,0.955l-0.786-0.211l-0.228,0.74l0.901,0.215v6.899l3.188,0.767c-0.072,0.129-0.129,0.234-0.147,0.293c-0.228,0.744,0.901,1.064,1.688,0.744     c0.294-0.117,1.22-1.054,1.802-2.439c0.813-1.929,1.521-4.477,1.662-5.378l0.365-0.78l-2.252,0.85l-1.238-0.212z M137.528,99.041l-0.588-1.14c-0.697-3.926-2.293-8.955-5.717-14.148c-5.151-7.809-19.484-12.314-19.484-12.314l-0.787,0.953l-0.451-0.74     l-1.127-0.427v0.956l1.015,0.851l-0.675,0.318l-2.591,0.212l-5.856,3.186l0.563,2.547l-0.676,0.214l-0.337,0.53l1.915,2.864l0.111,0.958l-1.576,0.317v1.911l-0.899,0.211l0.112,1.486l-7.658,5.311l0.225,2.971c0.563,0.744,4.957,5.203,4.957,5.203     s5.064,0.211,6.191-0.425c1.127-0.637,0.338,0.636,0.677,0.955c0.337,0.32,0.45,2.547,0.787,2.761c0.338,0.212,0,1.484,0.45,1.911c0.451,0.423,0.451,5.522,0.451,5.522s2.702,4.563,2.702,5.73s-0.112,1.063,2.028,0.957c2.14-0.107,2.588-0.957,3.039-1.273     c0.451-0.32,0.451-1.063,0.902-1.701c0.451-0.637,1.237-3.078,2.251-3.926c1.015-0.852,3.716-1.488,3.941-2.974c0.226-1.487,1.238-2.655,1.238-2.655l4.869-5.15l-0.137,0.693l-0.114,2.651l1.465-0.529l-0.111-2.868l-0.527-0.556l0.075-0.081     c0,0-0.338-0.636-0.787-0.636c-0.452,0-3.155,0.636-3.605,0.531c-0.45-0.106-2.365-5.203-2.703-5.413c-0.338-0.213-2.478-3.718-2.478-3.718s4.955,5.946,5.744,8.28c0.457,1.359,2.176,0.094,3.574-1.324l0.368,0.9l0.901-0.213l-0.113-1.062h1.014v1.593     l-0.338,0.85l-0.115,1.379l0.9,0.851l0.453-0.741l1.462-1.382l1.689-0.851l0.45,0.851l0.227,1.169l-0.451,1.272l-0.902,0.743l-0.449,1.912v0.953l-1.012-0.637l-0.113-2.016l-1.463,0.106l-0.676,1.802l1.013,1.49l2.363,0.316l1.917-1.807l0.225-3.5l0.851-1.124     c0.556,1.426,0.951,2.919,0.951,4.31c0,1.523,0.696-1.057,0.104-5.705l0.346-0.454z M109.149,88.213l-6.08-0.215l2.589-2.122h1.352l2.14,1.484v0.853z M116.583,87.47v0.955h-2.59l0.225,0.637l-1.577,0.215l-0.112,0.529l-1.127-0.212l-2.027-0.427l0.34-0.529     l0.337-0.64l1.126-1.167l0.451,0.851l1.689-0.106l0.9-0.956l3.49,0.637l-1.125,0.214z M116.807,86.089l-1.351,0.211l-0.225-0.956l1.686-0.211l0.229-0.955l1.239,1.276l-1.578,0.635z M123.339,119.104l-0.789,0.638l0.112,1.594h1.015v-1.378l0.901-1.17v-2.441     l-0.563-0.109l-0.676,2.867z M115.796,115.923c0,0-0.79,0.208,0.11,0.529c0.9,0.319,4.505-5.201,4.505-5.201l-3.041,1.91l-1.574,2.762z M109.665,136.271l-0.674-0.643l-1.351-0.215l-0.226,0.643l-1.801-0.211l-0.112-0.855h-1.351l-1.463,0.855H100.1l-0.224-0.644     l-4.165-0.429l-0.677,0.641l-1.688-0.424l-0.225-1.5l-0.787-0.109l-0.9,1.609l-3.039-0.109c0.543,0.258,5.082,2.965,12.041,3.531c9.229,0.745,13.619-1.498,13.619-1.498l-0.338-0.322l-4.053-0.32z"
       id="path77" />
    <path
       style="fill:none;fill-rule:evenodd;"
       d="M73.96,91.196c-0.004-0.16-0.017-0.316-0.017-0.479c0-0.502,0.034-1,0.083-1.494c-0.9,1.232-1.606,3.521-1.519,4.105l0.231,1.558c-0.696,0.556-1.051,2.015-0.347,2.222c1.203,0.351,2.382,0.753,3.499,1.168     c-1.059-1.986-1.717-4.113-1.895-6.332c-0.256-0.283-0.441-0.5-0.441-0.5l0.404-0.248z"
       id="path78" />
    <path
       d="M73.997,91.944c-0.021-0.248-0.028-0.498-0.037-0.748"
       id="path79" />
    <path
       d="M120.526,111.483"
       id="path80"
       style="fill-rule:evenodd;" />
    <path
       d="M100.896,69.784c-0.215-0.026-0.433-0.006-0.65,0.043c0.23-0.015,0.46-0.027,0.689-0.039c-0.014-0.002-0.023-0.003-0.039-0.005z"
       id="path81"
       style="fill-rule:evenodd;" />
    <radialGradient
       id="aigrd13"
       cx="84.3945"
       cy="83.8438"
       r="52.5117"
       fx="84.3945"
       fy="83.8438"
       gradientTransform="matrix(1.1009 0 0 1.0433 9.1137 5.5685)"
       gradientUnits="userSpaceOnUse">
      <stop
         offset="0"
         style="stop-color:#FFFFFF"
         id="stop83" />
      <stop
         offset="0.3034"
         style="stop-color:#CCF0FF"
         id="stop84" />
      <stop
         offset="1"
         style="stop-color:#1DB0FF"
         id="stop85" />
    </radialGradient>
    <path
       style="fill-rule:evenodd;clip-rule:evenodd;fill:url(#aigrd13);"
       d="M73.96,91.196l0.875-0.531c0,0,1.396-2.555,0.117-2.221c-0.316,0.082-0.631,0.374-0.926,0.779c-0.049,0.494-0.083,0.992-0.083,1.494c0,0.162,0.013,0.318,0.017,0.479z"
       id="path86" />
    <radialGradient
       id="aigrd14"
       cx="82.7754"
       cy="69.4355"
       r="93.2838"
       fx="82.7754"
       fy="69.4355"
       gradientTransform="matrix(1.1009 0 0 1.0433 9.1137 5.5685)"
       gradientUnits="userSpaceOnUse">
      <stop
         offset="0"
         style="stop-color:#FFFFFF"
         id="stop88" />
      <stop
         offset="0.3034"
         style="stop-color:#CCF0FF"
         id="stop89" />
      <stop
         offset="1"
         style="stop-color:#1D6CE9"
         id="stop90" />
    </radialGradient>
    <path
       style="fill-rule:evenodd;clip-rule:evenodd;fill:url(#aigrd14);"
       d="M105.775,85.899l-2.589,2.14l6.081,0.217v-0.86l-2.141-1.496h-1.352z"
       id="path91" />
    <radialGradient
       id="aigrd15"
       cx="82.7744"
       cy="69.436"
       r="93.28"
       fx="82.7744"
       fy="69.436"
       gradientTransform="matrix(1.1009 0 0 1.0433 9.1137 5.5685)"
       gradientUnits="userSpaceOnUse">
      <stop
         offset="0"
         style="stop-color:#FFFFFF"
         id="stop93" />
      <stop
         offset="0.3034"
         style="stop-color:#CCF0FF"
         id="stop94" />
      <stop
         offset="1"
         style="stop-color:#1D6CE9"
         id="stop95" />
    </radialGradient>
    <path
       style="fill-rule:evenodd;clip-rule:evenodd;fill:url(#aigrd15);"
       d="M117.035,85.149l-1.687,0.213l0.225,0.964l1.35-0.214l1.578-0.639l-1.24-1.287l-0.226,0.963z"
       id="path96" />
    <radialGradient
       id="aigrd16"
       cx="100.2412"
       cy="78.0137"
       r="99.2962"
       fx="100.2412"
       fy="78.0137"
       gradientUnits="userSpaceOnUse">
      <stop
         offset="0"
         style="stop-color:#FFFFFF"
         id="stop98" />
      <stop
         offset="0.3034"
         style="stop-color:#CCF0FF"
         id="stop99" />
      <stop
         offset="1"
         style="stop-color:#1D6CE9"
         id="stop100" />
    </radialGradient>
    <path
       style="fill-rule:evenodd;clip-rule:evenodd;fill:url(#aigrd16);"
       d="M105.775,104.739c-0.339-0.215-0.45-2.461-0.788-2.784c-0.337-0.322,0.449-1.605-0.676-0.962c-1.127,0.64-6.192,0.43-6.192,0.43s-4.393-4.498-4.956-5.248l-0.226-2.994l7.659-5.355l-0.113-1.499l0.9-0.214v-1.926l1.576-0.319l-0.111-0.966     l-1.916-2.889l0.338-0.533l0.676-0.217l-0.563-2.568l5.855-3.211l2.592-0.215l0.674-0.32l-1.014-0.858v-0.963l1.128,0.429l0.45,0.747l0.787-0.96c0,0,8.938,2.835,15.234,7.906c-4.543-5.018-11.965-8.553-20.563-9.341l2.164,0.767l-2.56,0.666l-0.493-1.508     c-0.906-0.063-1.824-0.097-2.754-0.097c-0.656,0-1.305,0.022-1.951,0.054c1.824,0.216,1.945,0.108,2.639,0.217c0.698,0.113-6.283,4.775-6.633,4.775c-0.658,0-0.813-1.441-0.349-1.887c0.409-0.394,2.005-2.693,3.653-3.067     c-12.033,0.804-22.034,7.042-25.227,15.273c0.859-1.285,1.842-2.566,2.957-3.766c5.92-6.356,11.519-8.287,13.289-8.813c0.193-0.11,0.384-0.182,0.557-0.182c0.115,0-0.102,0.047-0.557,0.182c-1.11,0.636-2.398,2.733-2.003,2.26c0.3-0.357,1.712-0.345,2.802-0.2     c0.602,0.075,2.967-3.803,3.133-3.684c2.702,1.939-0.89,1.387-1.494,4.738l0.445-0.075v0.666l5.586,0.556l1.512,0.221l-0.699,2.002h-6.459c0.383,0.351,0.952,0.813,0.526,1.221c-0.582,0.555-1.28,0-2.094-0.223c-0.815-0.223-0.115-0.778-0.464-1.11     c-0.35-0.335-0.816-0.111-0.932,1.11c-0.118,1.223-0.815,1.445-1.281,1.445s-1.744-0.113-2.326,0.334c-0.582,0.443-3.84,2.331-4.305,2.551c-0.27,0.131-2.398,1.017-4.128,1.73l-2.504,3.823l-0.255,0.081l-0.094,0.586l-1.514,0.669l1.629,1.107     c0,0-0.582,0.889-0.93,0.889c-0.227,0-0.945-0.749-1.42-1.274c0.178,2.219,0.836,4.346,1.895,6.332c4.175,1.547,7.438,3.273,7.438,3.273s-0.234,1.445,0.115,1.777c0.35,0.334,4.305,2.33,4.422,3.443c0.07,0.674-0.334,1.142-0.894,1.506     c4.579,2.211,10.054,3.504,15.913,3.504c1.283,0,2.546-0.068,3.785-0.188c-0.016-1.386-0.093-4.594-0.445-4.928c-0.45-0.429-0.111-1.711-0.45-1.926z M103.222,72.895l-0.114,1.664h-1.397l-0.23-1.553l1.742-0.111z"
       id="path101" />
    <radialGradient
       id="aigrd17"
       cx="82.7734"
       cy="69.436"
       r="93.2855"
       fx="82.7734"
       fy="69.436"
       gradientTransform="matrix(1.1009 0 0 1.0433 9.1137 5.5685)"
       gradientUnits="userSpaceOnUse">
      <stop
         offset="0"
         style="stop-color:#FFFFFF"
         id="stop103" />
      <stop
         offset="0.3034"
         style="stop-color:#CCF0FF"
         id="stop104" />
      <stop
         offset="1"
         style="stop-color:#1D6CE9"
         id="stop105" />
    </radialGradient>
    <path
       style="fill-rule:evenodd;clip-rule:evenodd;fill:url(#aigrd17);"
       d="M113.435,87.612l-1.691,0.106l-0.449-0.856l-1.126,1.177l-0.337,0.645l-0.34,0.534l2.028,0.43l1.126,0.213l0.111-0.533l1.578-0.217l-0.225-0.643h2.59v-0.963l1.125-0.216l-3.49-0.641l-0.9,0.964z"
       id="path106" />
    <radialGradient
       id="aigrd18"
       cx="82.7754"
       cy="69.4355"
       r="93.2767"
       fx="82.7754"
       fy="69.4355"
       gradientTransform="matrix(1.1009 0 0 1.0433 9.1137 5.5685)"
       gradientUnits="userSpaceOnUse">
      <stop
         offset="0"
         style="stop-color:#FFFFFF"
         id="stop108" />
      <stop
         offset="0.3034"
         style="stop-color:#CCF0FF"
         id="stop109" />
      <stop
         offset="1"
         style="stop-color:#1D6CE9"
         id="stop110" />
    </radialGradient>
    <path
       style="fill-rule:evenodd;clip-rule:evenodd;fill:url(#aigrd18);"
       d="M129.313,98.851l-0.901,0.216l-0.367-0.909c-1.399,1.432-3.117,2.707-3.574,1.336c-0.789-2.354-5.742-8.35-5.742-8.35s2.139,3.533,2.477,3.748c0.338,0.213,2.252,5.351,2.702,5.458c0.45,0.106,3.153-0.534,3.604-0.534     s0.787,0.641,0.787,0.641l-0.074,0.08l0.146,0.158c0.691-0.932,1.286-1.906,1.78-2.914h-0.95l0.112,1.07z"
       id="path111" />
    <radialGradient
       id="aigrd19"
       cx="82.7666"
       cy="69.4375"
       r="93.2915"
       fx="82.7666"
       fy="69.4375"
       gradientTransform="matrix(1.1009 0 0 1.0433 9.1137 5.5685)"
       gradientUnits="userSpaceOnUse">
      <stop
         offset="0"
         style="stop-color:#FFFFFF"
         id="stop113" />
      <stop
         offset="0.3034"
         style="stop-color:#CCF0FF"
         id="stop114" />
      <stop
         offset="1"
         style="stop-color:#1D6CE9"
         id="stop115" />
    </radialGradient>
    <path
       style="fill-rule:evenodd;clip-rule:evenodd;fill:url(#aigrd19);"
       d="M123.796,105.259c1.406-1.07,2.661-2.246,3.734-3.51l0.118-0.599l-3.853,4.108z"
       id="path116" />
    <g
       id="g117">
      <radialGradient
         id="aigrd20"
         cx="83.8125"
         cy="75.3535"
         r="28.7973"
         fx="83.8125"
         fy="75.3535"
         gradientTransform="matrix(1.1009 0 0 1.0433 9.1137 5.5685)"
         gradientUnits="userSpaceOnUse">
        <stop
           offset="0"
           style="stop-color:#FFFFFF"
           id="stop119" />
        <stop
           offset="0.1685"
           style="stop-color:#D4FFBD"
           id="stop120" />
        <stop
           offset="0.7921"
           style="stop-color:#51C200"
           id="stop121" />
      </radialGradient>
      <path
         style="fill-rule:evenodd;clip-rule:evenodd;fill:url(#aigrd20);"
         d="M96.592,72.895c-0.464,0.445-0.31,1.887,0.349,1.887c0.35,0,7.331-4.662,6.633-4.775c-0.693-0.109-0.814-0.001-2.639-0.217c-0.229,0.011-0.459,0.023-0.689,0.039c-1.648,0.374-3.244,2.673-3.653,3.067z"
         id="path122" />
      <radialGradient
         id="aigrd21"
         cx="83.8125"
         cy="75.3535"
         r="28.7965"
         fx="83.8125"
         fy="75.3535"
         gradientTransform="matrix(1.1009 0 0 1.0433 9.1137 5.5685)"
         gradientUnits="userSpaceOnUse">
        <stop
           offset="0"
           style="stop-color:#FFFFFF"
           id="stop124" />
        <stop
           offset="0.1685"
           style="stop-color:#D4FFBD"
           id="stop125" />
        <stop
           offset="0.7921"
           style="stop-color:#51C200"
           id="stop126" />
      </radialGradient>
      <path
         style="fill-rule:evenodd;clip-rule:evenodd;fill:url(#aigrd21);"
         d="M103.107,74.559l0.114-1.664l-1.742,0.111l0.23,1.553h1.397z"
         id="path127" />
      <radialGradient
         id="aigrd22"
         cx="101.3848"
         cy="84.1855"
         r="30.9295"
         fx="101.3848"
         fy="84.1855"
         gradientUnits="userSpaceOnUse">
        <stop
           offset="0"
           style="stop-color:#FFFFFF"
           id="stop129" />
        <stop
           offset="0.1685"
           style="stop-color:#D4FFBD"
           id="stop130" />
        <stop
           offset="0.7921"
           style="stop-color:#51C200"
           id="stop131" />
      </radialGradient>
      <path
         style="fill-rule:evenodd;clip-rule:evenodd;fill:url(#aigrd22);"
         d="M127.091,79.249c-6.296-5.07-15.234-7.906-15.234-7.906l-0.787,0.96l-0.45-0.747l-1.128-0.429v0.963l1.014,0.858l-0.674,0.32l-2.592,0.215l-5.855,3.211l0.563,2.568l-0.676,0.217l-0.338,0.533l1.916,2.889l0.111,0.966l-1.576,0.319v1.926      l-0.9,0.214l0.113,1.499l-7.659,5.355l0.226,2.994c0.563,0.75,4.956,5.248,4.956,5.248s5.065,0.21,6.192-0.43c1.125-0.644,0.339,0.64,0.676,0.962c0.338,0.323,0.449,2.569,0.788,2.784s0,1.497,0.45,1.926c0.353,0.334,0.43,3.542,0.445,4.928      c6.701-0.639,12.68-2.947,17.125-6.334l3.853-4.108l-0.118,0.599c0.293-0.346,0.574-0.697,0.84-1.055l-0.146-0.158l0.074-0.08c0,0-0.336-0.641-0.787-0.641s-3.154,0.641-3.604,0.534c-0.45-0.107-2.364-5.245-2.702-5.458c-0.338-0.215-2.477-3.748-2.477-3.748      s4.953,5.996,5.742,8.35c0.457,1.371,2.175,0.096,3.574-1.336l0.367,0.909l0.901-0.216l-0.112-1.07h0.95c1.083-2.209,1.679-4.586,1.679-7.063c0-4.223-1.746-8.164-4.738-11.469z M109.268,88.256l-6.081-0.217l2.589-2.14h1.352l2.141,1.496v0.86z M116.7,87.505      v0.963h-2.59l0.225,0.643l-1.578,0.217l-0.111,0.533l-1.126-0.213l-2.028-0.43l0.34-0.534l0.337-0.645l1.126-1.177l0.449,0.856l1.691-0.106l0.9-0.964l3.49,0.641l-1.125,0.216z M116.923,86.112l-1.35,0.214l-0.225-0.964l1.687-0.213l0.226-0.963l1.24,1.287      l-1.578,0.639z"
         id="path132" />
      <radialGradient
         id="aigrd23"
         cx="83.8105"
         cy="75.3555"
         r="28.7975"
         fx="83.8105"
         fy="75.3555"
         gradientTransform="matrix(1.1009 0 0 1.0433 9.1137 5.5685)"
         gradientUnits="userSpaceOnUse">
        <stop
           offset="0"
           style="stop-color:#FFFFFF"
           id="stop134" />
        <stop
           offset="0.1685"
           style="stop-color:#D4FFBD"
           id="stop135" />
        <stop
           offset="0.7921"
           style="stop-color:#51C200"
           id="stop136" />
      </radialGradient>
      <path
         style="fill-rule:evenodd;clip-rule:evenodd;fill:url(#aigrd23);"
         d="M87.866,106.771c-0.117-1.113-4.072-3.109-4.422-3.443c-0.35-0.332-0.115-1.777-0.115-1.777s-3.263-1.727-7.438-3.273c2.191,4.106,6.102,7.597,11.081,10c0.56-0.364,0.964-0.832,0.894-1.506z"
         id="path137" />
      <radialGradient
         id="aigrd24"
         cx="83.8125"
         cy="75.3555"
         r="28.797"
         fx="83.8125"
         fy="75.3555"
         gradientTransform="matrix(1.1009 0 0 1.0433 9.1137 5.5685)"
         gradientUnits="userSpaceOnUse">
        <stop
           offset="0"
           style="stop-color:#FFFFFF"
           id="stop139" />
        <stop
           offset="0.1685"
           style="stop-color:#D4FFBD"
           id="stop140" />
        <stop
           offset="0.7921"
           style="stop-color:#51C200"
           id="stop141" />
      </radialGradient>
      <path
         style="fill-rule:evenodd;clip-rule:evenodd;fill:url(#aigrd24);"
         d="M74.952,88.444c1.279-0.334-0.117,2.221-0.117,2.221l-0.875,0.531c0.009,0.25,0.017,0.5,0.037,0.748c0.475,0.525,1.193,1.274,1.42,1.274c0.348,0,0.93-0.889,0.93-0.889l-1.629-1.107l1.514-0.669l0.094-0.586l0.255-0.081l2.504-3.823      c1.729-0.714,3.858-1.6,4.128-1.73c0.465-0.22,3.723-2.107,4.305-2.551c0.582-0.447,1.86-0.334,2.326-0.334s1.163-0.223,1.281-1.445c0.115-1.222,0.582-1.445,0.932-1.11c0.349,0.332-0.352,0.888,0.464,1.11c0.813,0.223,1.512,0.777,2.094,0.223      c0.426-0.408-0.144-0.87-0.526-1.221h6.459l0.699-2.002l-1.512-0.221l-5.586-0.556v-0.666l-0.445,0.075c0.604-3.352,4.196-2.799,1.494-4.738c-0.166-0.119-2.531,3.759-3.133,3.684c-1.09-0.145-2.502-0.157-2.802,0.2c-0.396,0.474,0.893-1.624,2.003-2.26      c-1.771,0.526-7.369,2.457-13.289,8.813c-1.115,1.199-2.098,2.48-2.957,3.766c-0.516,1.328-0.852,2.706-0.992,4.123c0.295-0.405,0.609-0.697,0.926-0.779z"
         id="path142" />
      <radialGradient
         id="aigrd25"
         cx="83.8115"
         cy="75.3516"
         r="28.7965"
         fx="83.8115"
         fy="75.3516"
         gradientTransform="matrix(1.1009 0 0 1.0433 9.1137 5.5685)"
         gradientUnits="userSpaceOnUse">
        <stop
           offset="0"
           style="stop-color:#FFFFFF"
           id="stop144" />
        <stop
           offset="0.1685"
           style="stop-color:#D4FFBD"
           id="stop145" />
        <stop
           offset="0.7921"
           style="stop-color:#51C200"
           id="stop146" />
      </radialGradient>
      <path
         style="fill-rule:evenodd;clip-rule:evenodd;fill:url(#aigrd25);"
         d="M108.692,70.674l-2.164-0.767c-0.295-0.027-0.59-0.055-0.889-0.075l0.493,1.508l2.56-0.666z"
         id="path147" />
    </g>
    <path
       d="M91.821,72.34c-0.173,0-0.363,0.071-0.557,0.182c0.455-0.135,0.672-0.182,0.557-0.182z"
       id="path148"
       style="fill-rule:evenodd;" />
  </g>
</svg>
