<?xml version="1.0" encoding="UTF-8" standalone="no"?>
<!DOCTYPE svg PUBLIC "-//W3C//DTD SVG 20010904//EN"
"http://www.w3.org/TR/2001/REC-SVG-20010904/DTD/svg10.dtd">
<!-- Created with Sodipodi ("http://www.sodipodi.com/") -->
<svg
   width="48pt"
   height="48pt"
   viewBox="0 0 144 144"
   xml:space="preserve"
   id="svg1109"
   sodipodi:version="0.29"
   sodipodi:docname="/home/cschalle/SphereCrystal/SphereCrystal/icons/scalable/emblems/emblem-compressed.svg"
   sodipodi:docbase="/home/cschalle/SphereCrystal/SphereCrystal/icons/scalable/emblems/"
   xmlns="http://www.w3.org/2000/svg"
   xmlns:sodipodi="http://sodipodi.sourceforge.net/DTD/sodipodi-0.dtd"
   xmlns:xml="http://www.w3.org/XML/1998/namespace"
   xmlns:xlink="http://www.w3.org/1999/xlink">
  <defs
     id="defs1133" />
  <sodipodi:namedview
     id="base" />
  <g
     id="Layer_x0020_1"
     style="fill-rule:nonzero;clip-rule:nonzero;stroke:#000000;stroke-miterlimit:4;"
     transform="matrix(0.946032,0,0,0.961905,2.28571,1.37141)">
    <path
       style="fill:none;stroke:none;fill-rule:evenodd;"
       d="M144,144H0V0h144v144z"
       id="path1111" />
    <linearGradient
       id="aigrd1"
       gradientUnits="userSpaceOnUse"
       x1="125.4658"
       y1="112.168"
       x2="125.4658"
       y2="148.638">
      <stop
         offset="0"
         style="stop-color:#FFFFFF"
         id="stop1113" />
      <stop
         offset="0.2978"
         style="stop-color:#00FF00"
         id="stop1114" />
      <stop
         offset="1"
         style="stop-color:#008B00"
         id="stop1115" />
    </linearGradient>
    <path
       style="fill:url(#aigrd1);stroke:none;fill-rule:evenodd;"
       d="M140.688,111.33l-30.444,30.443v-30.691l30.444,0.248z"
       id="path1116" />
    <linearGradient
       id="aigrd2"
       gradientUnits="userSpaceOnUse"
       x1="125.4194"
       y1="102.9258"
       x2="125.4194"
       y2="135.3011">
      <stop
         offset="0.0112"
         style="stop-color:#A2DE00"
         id="stop1118" />
      <stop
         offset="0.2978"
         style="stop-color:#00CD00"
         id="stop1119" />
      <stop
         offset="1"
         style="stop-color:#007700"
         id="stop1120" />
    </linearGradient>
    <path
       style="fill:url(#aigrd2);stroke:none;fill-rule:evenodd;"
       d="M109.375,110.207c-0.233,0.231-0.365,0.546-0.365,0.875v30.691c0,0.499,0.301,0.949,0.761,1.14c0.461,0.19,0.992,0.084,1.344-0.269l30.443-30.444c0.353-0.35,0.458-0.879,0.271-1.338c-0.188-0.46-0.634-0.762-1.13-0.766l-30.446-0.247    c-0.328-0.002-0.644,0.127-0.877,0.358z M111.476,112.325c2.057,0.016,21.676,0.175,26.261,0.213c-3.343,3.343-22.882,22.88-26.261,26.26c0-4.636,0-24.416,0-26.473z"
       id="path1121" />
    <linearGradient
       id="aigrd3"
       gradientUnits="userSpaceOnUse"
       x1="18.1396"
       y1="4.3486"
       x2="18.1396"
       y2="40.8175">
      <stop
         offset="0"
         style="stop-color:#FFFFFF"
         id="stop1123" />
      <stop
         offset="0.2978"
         style="stop-color:#00FF00"
         id="stop1124" />
      <stop
         offset="1"
         style="stop-color:#008B00"
         id="stop1125" />
    </linearGradient>
    <path
       style="fill:url(#aigrd3);stroke:none;fill-rule:evenodd;"
       d="M2.917,33.706L33.362,3.262v30.69L2.917,33.706z"
       id="path1126" />
    <linearGradient
       id="aigrd4"
       gradientUnits="userSpaceOnUse"
       x1="18.186"
       y1="-4.8003"
       x2="18.186"
       y2="27.575">
      <stop
         offset="0.0112"
         style="stop-color:#A2DE00"
         id="stop1128" />
      <stop
         offset="0.2978"
         style="stop-color:#00CD00"
         id="stop1129" />
      <stop
         offset="1"
         style="stop-color:#007700"
         id="stop1130" />
    </linearGradient>
    <path
       style="fill:url(#aigrd4);stroke:none;fill-rule:evenodd;"
       d="M34.23,34.828c0.233-0.231,0.365-0.546,0.365-0.875V3.262c0-0.498-0.301-0.948-0.761-1.139c-0.461-0.191-0.992-0.085-1.344,0.267L2.046,32.835c-0.353,0.351-0.457,0.878-0.27,1.338c0.188,0.46,0.635,0.762,1.13,0.766l30.446,0.247    c0.328,0.002,0.645-0.127,0.877-0.358z M32.13,32.71c-2.056-0.016-21.676-0.176-26.26-0.213c3.344-3.343,22.881-22.881,26.26-26.26c0,4.636,0,24.416,0,26.473z"
       id="path1131" />
  </g>
</svg>
