<?xml version="1.0" encoding="UTF-8" standalone="no"?>
<!-- Created with Inkscape (http://www.inkscape.org/) -->
<svg id="svg1" height="48" xmlns:dc="http://purl.org/dc/elements/1.1/" width="48" version="1.0" xmlns:xlink="http://www.w3.org/1999/xlink" xmlns:cc="http://web.resource.org/cc/" xmlns:rdf="http://www.w3.org/1999/02/22-rdf-syntax-ns#" xmlns="http://www.w3.org/2000/svg" y="0" x="0">
 <metadata id="metadata162">
  <rdf:RDF>
   <cc:Work rdf:about="">
    <dc:format>image/svg+xml</dc:format>
    <dc:type rdf:resource="http://purl.org/dc/dcmitype/StillImage"/>
    <dc:title>Folder</dc:title>
    <dc:creator>
     <cc:Agent>
      <dc:title>Lapo Calamandrei</dc:title>
     </cc:Agent>
    </dc:creator>
    <dc:date/>
    <cc:license rdf:resource="http://creativecommons.org/licenses/GPL/2.0/"/>
    <dc:identifier/>
    <dc:subject>
     <rdf:Bag>
      <rdf:li>folder</rdf:li>
      <rdf:li>directory</rdf:li>
      <rdf:li>storage</rdf:li>
      <rdf:li>search</rdf:li>
     </rdf:Bag>
    </dc:subject>
   </cc:Work>
   <cc:License rdf:about="http://creativecommons.org/licenses/GPL/2.0/">
    <cc:permits rdf:resource="http://web.resource.org/cc/Reproduction"/>
    <cc:permits rdf:resource="http://web.resource.org/cc/Distribution"/>
    <cc:requires rdf:resource="http://web.resource.org/cc/Notice"/>
    <cc:permits rdf:resource="http://web.resource.org/cc/DerivativeWorks"/>
    <cc:requires rdf:resource="http://web.resource.org/cc/ShareAlike"/>
    <cc:requires rdf:resource="http://web.resource.org/cc/SourceCode"/>
   </cc:License>
  </rdf:RDF>
 </metadata>
 <defs id="defs3">
  <linearGradient id="linearGradient2232" y2="-29.13" gradientUnits="userSpaceOnUse" x2="8.25" y1="-14.375" x1="8.25">
   <stop id="stop3910" stop-color="#fff" offset="0"/>
   <stop id="stop3912" stop-color="#fff" stop-opacity="0" offset="1"/>
  </linearGradient>
  <radialGradient id="radialGradient2242" gradientUnits="userSpaceOnUse" cy="16.554" cx="10.19" gradientTransform="matrix(2.2687 0 -.0000016467 .18408 -11.868 16.453)" r="22.5">
   <stop id="stop3925" stop-color="#fff" offset="0"/>
   <stop id="stop3927" stop-color="#fff" stop-opacity="0" offset="1"/>
  </radialGradient>
  <linearGradient id="linearGradient2246" y2="36.268" gradientUnits="userSpaceOnUse" x2="16.75" gradientTransform="translate(-1,-2)" y1="40.51" x1="16.75">
   <stop id="stop2266" stop-color="#ce5c00" offset="0"/>
   <stop id="stop2268" stop-color="#ce5c00" stop-opacity="0" offset="1"/>
  </linearGradient>
  <linearGradient id="linearGradient2249" y2="32.798" gradientUnits="userSpaceOnUse" x2="16.75" gradientTransform="translate(-1,-2)" y1="22.865" x1="16.75">
   <stop id="stop2260" stop-color="#b55100" offset="0"/>
   <stop id="stop2262" stop-color="#ce5c00" stop-opacity="0" offset="1"/>
  </linearGradient>
  <linearGradient id="linearGradient2278" y2="-73.501" gradientUnits="userSpaceOnUse" x2="-63.375" gradientTransform="translate(64,102)" y1="-100.38" x1="-63.375">
   <stop id="stop2282" stop-color="#ce5c00" offset="0"/>
   <stop id="stop2284" stop-color="#793600" offset="1"/>
  </linearGradient>
  <linearGradient id="linearGradient3195" y2="-83.125" gradientUnits="userSpaceOnUse" x2="-36.375" gradientTransform="translate(64,102)" y1="-68.375" x1="-36.375">
   <stop id="stop3191" stop-color="#fff" offset="0"/>
   <stop id="stop3193" stop-color="#fff" stop-opacity="0" offset="1"/>
  </linearGradient>
  <linearGradient id="linearGradient2874" y2="-84.03" gradientUnits="userSpaceOnUse" x2="20.625" gradientTransform="translate(0,1)" y1="-90.064" x1="20.625">
   <stop id="stop3313" stop-color="#888a85" offset="0"/>
   <stop id="stop3315" stop-color="#555753" offset="1"/>
  </linearGradient>
  <linearGradient id="linearGradient2876" y2="-83.438" gradientUnits="userSpaceOnUse" x2="9" y1="-92.805" x1="9">
   <stop id="stop3020" stop-color="#fff" offset="0"/>
   <stop id="stop3022" stop-color="#fff" stop-opacity="0" offset="1"/>
  </linearGradient>
 </defs>
 <g id="layer2">
  <g id="use3228" stroke-linejoin="miter" stroke-linecap="round" stroke-dasharray="none" stroke-miterlimit="4" stroke-width="1" transform="translate(-1,102)">
   <path id="path2870" d="m8.5-94.5c-0.9025 0-1.3319 0.314-1.5 1.456-1.882 9.973-1.7842 18.078-1.5 28.179 0 0.749 0.6163 1.365 1.375 1.365h35.25c0.759 0 1.323-0.617 1.375-1.365 1-18.047-1-23.27-1-23.27 0-0.749-0.616-1.365-1.375-1.365h-17.625l-1-3.397c-0.245-0.833-0.598-1.603-1.5-1.603h-12.5z" stroke="#555753" fill="url(#linearGradient2874)"/>
   <path id="path2872" opacity=".5" d="m8.5-93.5c-0.3322 0-0.3469 0.034-0.3438 0.031 0.0032-0.003-0.119 0.129-0.1874 0.594 0.0001 0.01 0.0001 0.021 0 0.031-1.699 9.004-1.7509 18.135-1.5313 27.344h36.188c0.682-16.055-1.064-22.375-1.064-22.375-0.031-0.08-0.052-0.164-0.062-0.25 0-0.208-0.159-0.375-0.375-0.375h-17.625c-0.437-0.005-0.819-0.298-0.938-0.719l-1-3.406c-0.109-0.372-0.252-0.665-0.343-0.781-0.092-0.117-0.045-0.094-0.219-0.094h-12.5z" stroke="url(#linearGradient2876)" fill="none"/>
  </g>
  <g id="g2166" fill-rule="evenodd" transform="matrix(.21608 0 0 .26310 -1.8932 -11.242)" stroke-width="3pt">
   <path id="path2168" opacity=".047872" d="m32.707 164.36c-10.388 0-18.75 8.36-18.75 18.75s8.362 18.75 18.75 18.75h172.5c10.38 0 18.75-8.36 18.75-18.75s-8.37-18.75-18.75-18.75h-172.5z"/>
   <path id="path2170" opacity=".047872" d="m32.707 165.61c-9.695 0-17.5 7.81-17.5 17.5 0 9.7 7.805 17.5 17.5 17.5h172.5c9.69 0 17.5-7.8 17.5-17.5 0-9.69-7.81-17.5-17.5-17.5h-172.5z"/>
   <path id="path2172" opacity=".047872" d="m32.707 166.86c-9.003 0-16.25 7.25-16.25 16.25s7.247 16.25 16.25 16.25h172.5c9 0 16.25-7.25 16.25-16.25s-7.25-16.25-16.25-16.25h-172.5z"/>
   <path id="path2174" opacity=".047872" d="m32.707 168.11c-8.31 0-15 6.69-15 15s6.69 15 15 15h172.5c8.31 0 15-6.69 15-15s-6.69-15-15-15h-172.5z"/>
   <path id="path2176" opacity=".047872" d="m32.708 169.36c-7.618 0-13.75 6.13-13.75 13.75s6.132 13.75 13.75 13.75h172.5c7.61 0 13.75-6.13 13.75-13.75s-6.14-13.75-13.75-13.75h-172.5z"/>
   <path id="path2178" opacity=".047872" d="m32.707 170.61c-6.925 0-12.5 5.58-12.5 12.5 0 6.93 5.575 12.5 12.5 12.5h172.5c6.92 0 12.5-5.57 12.5-12.5 0-6.92-5.58-12.5-12.5-12.5h-172.5z"/>
   <path id="path2180" opacity=".047872" d="m32.707 171.86c-6.233 0-11.25 5.02-11.25 11.25s5.017 11.25 11.25 11.25h172.5c6.23 0 11.25-5.02 11.25-11.25s-5.02-11.25-11.25-11.25h-172.5z"/>
   <path id="path2182" opacity=".047872" d="m32.707 173.11c-5.54 0-10 4.46-10 10s4.46 10 10 10h172.5c5.54 0 10-4.46 10-10s-4.46-10-10-10h-172.5z"/>
  </g>
  <path id="path2206" stroke-linejoin="miter" d="m1.6451 18.5h43.71c0.634 0 1.145 0.363 1.145 0.814-3 7.653-3 11.38-3 16.121 0 0.738-0.5 2.988-2.145 3.063h-35.71c-1.145-0.075-2.145-2.067-2.145-3.063 0-6.733 0-8.468-3-16.121 0-0.451 0.5107-0.814 1.1451-0.814z" stroke="url(#linearGradient2278)" stroke-linecap="round" stroke-miterlimit="4" stroke-width="1" fill="#f57900"/>
  <path id="path2208" opacity=".8" d="m1.6562 19c-0.2248 0-0.4165 0.045-0.5312 0.125s-0.125 0.15-0.125 0.187c2.2219 5.695 2.7883 8.202 2.9375 12h39.188c0.202-3.223 0.818-6.705 2.874-12 0-0.037-0.01-0.107-0.125-0.187s-0.306-0.125-0.531-0.125h-43.688z" fill="url(#linearGradient2249)"/>
  <path id="path2210" opacity=".44314" d="m3.625 28c0.3353 2.15 0.375 4.257 0.375 7.438 0 0.333 0.2087 1.06 0.5625 1.624 0.3453 0.551 0.7913 0.902 1.0937 0.938h0.0313 35.624 0.032c0.586-0.04 0.965-0.433 1.25-1 0.29-0.578 0.406-1.305 0.406-1.562 0-2.481 0.02-4.755 0.469-7.438h-39.844z" fill="url(#linearGradient2246)"/>
  <path id="path2212" opacity=".27451" stroke-linejoin="miter" d="m2.625-32.5c2.7348 7.129 2.875 9.463 2.875 16 0 0.165 0.1904 0.85 0.5 1.344 0.3096 0.493 0.6985 0.717 0.7188 0.718h35.593 0.032c0.362-0.025 0.573-0.242 0.812-0.718 0.245-0.487 0.344-1.202 0.344-1.344 0-4.63 0.073-8.62 2.875-16-0.014-0.001-0.016 0-0.031 0h-43.688c-0.0149 0-0.0166-0.001-0.031 0z" transform="translate(-1,52)" stroke="url(#linearGradient2232)" stroke-linecap="round" stroke-miterlimit="4" stroke-width="1" fill="none"/>
  <path id="path2214" opacity=".38824" stroke-linejoin="miter" d="m1.5 19.5h44" stroke="url(#radialGradient2242)" stroke-linecap="round" stroke-width="1px" fill="none"/>
  <path id="path3175" opacity=".8" d="m22.5 22c-1.664 0-3.325 0.552-4.594 1.625-2.537 2.147-2.537 4.603 0 6.75 2.294 1.941 5.866 2.131 8.406 0.563 0.029 0.34 0.176 0.675 0.438 0.937l2.875 2.875c0.588 0.588 1.537 0.588 2.125 0s0.588-1.537 0-2.125l-2.875-2.875c-0.236-0.236-0.538-0.36-0.844-0.406 1.539-2.113 1.231-3.884-0.937-5.719-1.269-1.073-2.93-1.625-4.594-1.625zm0 1.688c3.11 0 4.5 1.582 4.5 3 0 2.101-2.016 3.624-4.5 3.624-2.484 0.001-4.5-1.335-4.5-3.437 0-1.542 2.016-3.187 4.5-3.187z" fill="url(#linearGradient3195)"/>
  <g id="use3226" transform="translate(-1,102)">
   <rect id="rect2814" stroke-linejoin="round" stroke-dasharray="none" rx="1.5" ry="1.5" height="3" width="10" stroke="#d3d7cf" stroke-linecap="round" stroke-miterlimit="4" y="-91.5" x="9.5" stroke-width="1" fill="#eeeeec"/>
   <g id="g2816" transform="translate(66)" fill="#2e3436">
    <rect id="rect2818" rx=".5" ry=".5" height="1" width="1" y="-90" x="-55"/>
    <rect id="rect2820" rx=".5" ry=".5" height="1" width="1" y="-90" x="-53"/>
    <rect id="rect2822" rx=".5" ry=".5" height="1" width="1" y="-90" x="-51"/>
    <rect id="rect2824" rx=".5" ry=".5" height="1" width="1" y="-90" x="-49"/>
   </g>
  </g>
 </g>
</svg>
