<?xml version="1.0" encoding="UTF-8" standalone="no"?>
<!-- Created with Inkscape (http://www.inkscape.org/) -->
<svg id="svg1" height="48" xmlns:dc="http://purl.org/dc/elements/1.1/" width="48" version="1.0" xmlns:xlink="http://www.w3.org/1999/xlink" xmlns:cc="http://web.resource.org/cc/" xmlns:rdf="http://www.w3.org/1999/02/22-rdf-syntax-ns#" xmlns="http://www.w3.org/2000/svg" y="0" x="0">
 <metadata id="metadata162">
  <rdf:RDF>
   <cc:Work rdf:about="">
    <dc:format>image/svg+xml</dc:format>
    <dc:type rdf:resource="http://purl.org/dc/dcmitype/StillImage"/>
    <dc:title>Remote Folder</dc:title>
    <dc:creator>
     <cc:Agent>
      <dc:title>Lapo Calamandrei</dc:title>
     </cc:Agent>
    </dc:creator>
    <dc:date/>
    <cc:license rdf:resource="http://creativecommons.org/licenses/GPL/2.0/"/>
    <dc:identifier/>
    <dc:subject>
     <rdf:Bag>
      <rdf:li>remote</rdf:li>
      <rdf:li>share</rdf:li>
      <rdf:li>folder</rdf:li>
      <rdf:li>directory</rdf:li>
      <rdf:li>storage</rdf:li>
      <rdf:li>network</rdf:li>
     </rdf:Bag>
    </dc:subject>
   </cc:Work>
   <cc:License rdf:about="http://creativecommons.org/licenses/GPL/2.0/">
    <cc:permits rdf:resource="http://web.resource.org/cc/Reproduction"/>
    <cc:permits rdf:resource="http://web.resource.org/cc/Distribution"/>
    <cc:requires rdf:resource="http://web.resource.org/cc/Notice"/>
    <cc:permits rdf:resource="http://web.resource.org/cc/DerivativeWorks"/>
    <cc:requires rdf:resource="http://web.resource.org/cc/ShareAlike"/>
    <cc:requires rdf:resource="http://web.resource.org/cc/SourceCode"/>
   </cc:License>
  </rdf:RDF>
 </metadata>
 <defs id="defs3">
  <linearGradient id="linearGradient272">
   <stop id="stop273" stop-color="#474747" stop-opacity="0" offset="0"/>
   <stop id="stop275" stop-color="#474747" offset=".1"/>
   <stop id="stop276" stop-color="#474747" offset="0.9"/>
   <stop id="stop274" stop-color="#474747" stop-opacity="0" offset="1"/>
  </linearGradient>
  <linearGradient id="linearGradient6157" y2="117.83" gradientUnits="userSpaceOnUse" x2="15.343" gradientTransform="matrix(2.7402 0 0 .36494 .41683 -.59206)" y1="117.83" x1="1.6422">
   <stop id="stop159" stop-color="#686868" stop-opacity="0" offset="0"/>
   <stop id="stop162" stop-color="#686868" offset=".23762"/>
   <stop id="stop163" stop-color="#686868" offset=".78110"/>
   <stop id="stop160" stop-color="#686868" stop-opacity="0" offset="1"/>
  </linearGradient>
  <linearGradient id="linearGradient6159" y2="372.58" xlink:href="#linearGradient272" gradientUnits="userSpaceOnUse" x2="5.0856" gradientTransform="matrix(8.1686 0 0 .22121 .41683 -37.983)" y1="372.58" x1=".61210"/>
  <linearGradient id="linearGradient6161" y2="372.58" xlink:href="#linearGradient272" gradientUnits="userSpaceOnUse" x2="5.0856" gradientTransform="matrix(8.1686 0 0 .22862 .41683 -36.683)" y1="372.58" x1=".61210"/>
  <linearGradient id="linearGradient6163" y2="117.83" gradientUnits="userSpaceOnUse" x2="15.343" gradientTransform="matrix(2.7402 0 0 .14768 .41683 24.594)" y1="117.83" x1="1.6422">
   <stop id="stop179" stop-color="#fff" stop-opacity="0" offset="0"/>
   <stop id="stop180" stop-color="#fff" stop-opacity=".70659" offset=".10827"/>
   <stop id="stop181" stop-color="#fff" stop-opacity=".70659" offset=".92054"/>
   <stop id="stop182" stop-color="#fff" stop-opacity="0" offset="1"/>
  </linearGradient>
  <linearGradient id="linearGradient6165" y2="43.915" gradientUnits="userSpaceOnUse" x2="23.1" gradientTransform="matrix(.98380 0 0 1.0165 .41683 .40794)" y1="38.297" x1="23.1">
   <stop id="stop205" stop-color="#7a7a7a" offset="0"/>
   <stop id="stop207" stop-color="#c5c5c5" offset=".19802"/>
   <stop id="stop208" stop-color="#626262" offset=".59901"/>
   <stop id="stop206" stop-color="#888" offset="1"/>
  </linearGradient>
  <linearGradient id="linearGradient6167" y2="22.228" gradientUnits="userSpaceOnUse" x2="38.105" gradientTransform="matrix(1.1387 0 0 1.7321 -20.001 -1.0921)" y1="22.228" x1="36.373">
   <stop id="stop219" stop-color="#fff" stop-opacity=".44910" offset="0"/>
   <stop id="stop222" stop-color="#fff" stop-opacity="0" offset="1"/>
  </linearGradient>
  <linearGradient id="linearGradient6169" y2="31.49" gradientUnits="userSpaceOnUse" x2="28.784" gradientTransform="matrix(.81082 0 0 1.2333 .41683 -1.3206)" y1="29.943" x1="28.633">
   <stop id="stop265" stop-color="#000" stop-opacity=".50299" offset="0"/>
   <stop id="stop266" stop-color="#000" stop-opacity="0" offset="1"/>
  </linearGradient>
  <radialGradient id="radialGradient7169" gradientUnits="userSpaceOnUse" cy="-66.463" cx="214.21" gradientTransform="matrix(1 0 0 .16326 0 -55.612)" r="10.828">
   <stop id="stop7165" stop-color="#000" offset="0"/>
   <stop id="stop7167" stop-color="#000" stop-opacity="0" offset="1"/>
  </radialGradient>
  <linearGradient id="linearGradient2496" y2="-29.345" gradientUnits="userSpaceOnUse" x2="17.02" y1="-16.276" x1="17.02">
   <stop id="stop3102" stop-color="#fff" offset="0"/>
   <stop id="stop2071" stop-color="#fff" stop-opacity="0" offset="1"/>
  </linearGradient>
  <linearGradient id="linearGradient2498" y2="37.624" gradientUnits="userSpaceOnUse" x2="54" y1="30.499" x1="1">
   <stop id="stop4234" stop-color="#ad7fa8" offset="0"/>
   <stop id="stop4236" stop-color="#75507b" offset="1"/>
  </linearGradient>
  <linearGradient id="linearGradient2500" y2="-59.637" gradientUnits="userSpaceOnUse" x2="9.4176" gradientTransform="matrix(1 0 0 .99615 0 85.748)" y1="-44.923" x1="9.4176">
   <stop id="stop2896" stop-color="#39213f" offset="0"/>
   <stop id="stop2900" stop-color="#75507b" offset=".47619"/>
   <stop id="stop2898" stop-color="#5c3566" offset="1"/>
  </linearGradient>
  <linearGradient id="linearGradient2503" y2="32.798" gradientUnits="userSpaceOnUse" x2="16.75" y1="21.616" x1="16.75">
   <stop id="stop3078" stop-color="#5c3566" offset="0"/>
   <stop id="stop3080" stop-color="#5c3566" stop-opacity="0" offset="1"/>
  </linearGradient>
  <linearGradient id="linearGradient2505" y2="36.268" gradientUnits="userSpaceOnUse" x2="16.75" y1="40.51" x1="16.75">
   <stop id="stop2996" stop-color="#5c3566" offset="0"/>
   <stop id="stop2998" stop-color="#5c3566" stop-opacity="0" offset="1"/>
  </linearGradient>
  <linearGradient id="linearGradient2507" y2="-30.879" gradientUnits="userSpaceOnUse" x2="8.25" y1="-14.375" x1="8.25">
   <stop id="stop3910" stop-color="#fff" offset="0"/>
   <stop id="stop3912" stop-color="#fff" stop-opacity="0" offset="1"/>
  </linearGradient>
  <radialGradient id="radialGradient2509" gradientUnits="userSpaceOnUse" cy="16.554" cx="10.19" gradientTransform="matrix(2.2687 0 -.0000016467 .18408 -10.868 18.453)" r="22.5">
   <stop id="stop3925" stop-color="#fff" offset="0"/>
   <stop id="stop3927" stop-color="#fff" stop-opacity="0" offset="1"/>
  </radialGradient>
  <linearGradient id="linearGradient2527" y2="-84.03" gradientUnits="userSpaceOnUse" x2="20.625" gradientTransform="translate(0,1)" y1="-90.064" x1="20.625">
   <stop id="stop3313" stop-color="#888a85" offset="0"/>
   <stop id="stop3315" stop-color="#555753" offset="1"/>
  </linearGradient>
  <linearGradient id="linearGradient2529" y2="-83.438" gradientUnits="userSpaceOnUse" x2="9" y1="-92.805" x1="9">
   <stop id="stop3020" stop-color="#fff" offset="0"/>
   <stop id="stop3022" stop-color="#fff" stop-opacity="0" offset="1"/>
  </linearGradient>
 </defs>
 <g id="layer2">
  <g id="g3999" transform="translate(-.5782 .092)">
   <g id="g4001">
    <rect id="rect69" marker-mid="none" style="color:black;" marker-end="none" fill-rule="nonzero" marker-start="none" height="4" width="36.543" display="block" y="40.408" x="5.4168" fill="url(#linearGradient6157)"/>
    <rect id="rect255" marker-mid="none" style="color:black;" marker-end="none" fill-rule="nonzero" marker-start="none" height=".98959" width="36.543" display="block" y="43.94" x="5.4168" fill="url(#linearGradient6159)"/>
    <rect id="rect250" marker-mid="none" style="color:black;" marker-end="none" fill-rule="nonzero" marker-start="none" height="1.0227" width="36.543" display="block" y="39.885" x="5.4168" fill="url(#linearGradient6161)"/>
    <rect id="rect176" marker-mid="none" style="color:black;" marker-end="none" fill-rule="nonzero" marker-start="none" height="1.6187" width="36.543" display="block" y="41.186" x="5.4168" fill="url(#linearGradient6163)"/>
    <path id="rect183" stroke-linejoin="miter" marker-mid="none" style="color:black;" marker-end="none" d="m21.883 29.877c-0.784 0-1.406 0.622-1.406 1.406v7.594h-3.063c-0.783 0-1.406 0.622-1.406 1.406v3.719c0 0.783 0.623 1.406 1.406 1.406h12.188c0.783 0 1.406-0.623 1.406-1.406v-3.719c0-0.784-0.623-1.406-1.406-1.406h-2.594v-7.594c0-0.784-0.623-1.406-1.406-1.406h-3.719z" fill-rule="nonzero" marker-start="none" stroke-dashoffset="0" display="block" stroke="#434343" stroke-linecap="butt" stroke-miterlimit="4" stroke-width="1" fill="url(#linearGradient6165)"/>
    <rect id="rect209" marker-mid="none" style="color:black;" marker-end="none" fill-rule="nonzero" marker-start="none" rx=".29956" ry=".29956" height="3" width="1.9723" display="block" y="35.908" x="21.417" fill="url(#linearGradient6167)"/>
    <path id="path258" marker-mid="none" style="color:black;" marker-end="none" d="m26.511 35.508h-5.532v2.171c0.547-1.781 5.532-2.171 5.532-2.171z" fill-rule="nonzero" marker-start="none" display="block" fill="url(#linearGradient6169)"/>
    <g id="g236" fill-opacity=".72024" fill-rule="nonzero" transform="translate(-.61097 .73604)" fill="#fff">
     <rect id="rect226" marker-mid="none" style="color:black;" marker-end="none" marker-start="none" rx=".5" ry=".5" height="1" width="10" display="block" y="40" x="20"/>
     <path id="path235" marker-mid="none" style="color:black;" marker-end="none" d="m19 40.625a0.53125 0.53125 0 1 1 -1.062 0 0.53125 0.53125 0 1 1 1.062 0z" marker-start="none" transform="translate(.0625 -.09375)" display="block"/>
    </g>
    <g id="g17906" transform="translate(1.2374 -4.0905)"></g>
   </g>
  </g>
  <path id="path6276" opacity=".6" d="m225.04-66.463a10.828 1.7678 0 1 1 -21.66 0 10.828 1.7678 0 1 1 21.66 0z" transform="matrix(1.5586 0 0 2.2296 -310.36 183.17)" fill="url(#radialGradient7169)"/>
  <g id="use3158" stroke-linejoin="miter" stroke-linecap="round" stroke-dasharray="none" stroke-miterlimit="4" stroke-width="1" transform="translate(-1,99)">
   <path id="path2523" d="m8.5-94.5c-0.9025 0-1.3319 0.314-1.5 1.456-1.882 9.973-1.7842 18.078-1.5 28.179 0 0.749 0.6163 1.365 1.375 1.365h35.25c0.759 0 1.323-0.617 1.375-1.365 1-18.047-1-23.27-1-23.27 0-0.749-0.616-1.365-1.375-1.365h-17.625l-1-3.397c-0.245-0.833-0.598-1.603-1.5-1.603h-12.5z" stroke="#555753" fill="url(#linearGradient2527)"/>
   <path id="path2525" opacity=".5" d="m8.5-93.5c-0.3322 0-0.3469 0.034-0.3438 0.031 0.0032-0.003-0.119 0.129-0.1874 0.594 0.0001 0.01 0.0001 0.021 0 0.031-1.699 9.004-1.7509 18.135-1.5313 27.344h36.188c0.682-16.055-1.064-22.375-1.064-22.375-0.031-0.08-0.052-0.164-0.062-0.25 0-0.208-0.159-0.375-0.375-0.375h-17.625c-0.437-0.005-0.819-0.298-0.938-0.719l-1-3.406c-0.109-0.372-0.252-0.665-0.343-0.781-0.092-0.117-0.045-0.094-0.219-0.094h-12.5z" stroke="url(#linearGradient2529)" fill="none"/>
  </g>
  <g id="use3162" transform="translate(-1,-5)">
   <g id="g2480" stroke-linejoin="miter" stroke-linecap="round" fill="none">
    <path id="path2482" opacity=".32157" d="m2.625-32.5c2.7348 7.129 2.875 9.463 2.875 16 0 0.165 0.1904 0.85 0.5 1.344 0.3096 0.493 0.6985 0.717 0.7188 0.718h35.593 0.032c0.362-0.025 0.573-0.242 0.812-0.718 0.245-0.487 0.344-1.202 0.344-1.344 0-4.63 0.073-8.62 2.875-16-0.014-0.001-0.016 0-0.031 0h-43.688c-0.0149 0-0.0166-0.001-0.031 0z" transform="translate(0,54)" stroke="url(#linearGradient2496)" stroke-miterlimit="4" stroke-width="1"/>
    <path id="path2484" opacity=".32549" d="m2.5 21.5h44" stroke="#fff" stroke-width="1px"/>
   </g>
   <path id="path2486" stroke-linejoin="miter" d="m2.6451 20.5h43.71c0.634 0 1.145 0.363 1.145 0.814-3 7.653-3 11.38-3 16.121 0 0.738-0.5 2.988-2.145 3.063h-35.71c-1.145-0.075-2.145-2.067-2.145-3.063 0-6.733 0-8.468-3-16.121 0-0.451 0.5107-0.814 1.1451-0.814z" stroke="url(#linearGradient2500)" stroke-linecap="round" stroke-miterlimit="4" stroke-width="1" fill="url(#linearGradient2498)"/>
   <path id="path2488" opacity=".8" fill="url(#linearGradient2503)" d="m2.6562 21c-0.2248 0-0.4165 0.045-0.5312 0.125s-0.125 0.15-0.125 0.187c2.2219 5.695 2.7883 8.202 2.9375 12h39.188c0.202-3.223 0.818-6.705 2.874-12 0-0.037-0.01-0.107-0.125-0.187s-0.306-0.125-0.531-0.125h-43.688z"/>
   <path id="path2490" opacity=".44314" fill="url(#linearGradient2505)" d="m4.625 30c0.3353 2.15 0.375 4.257 0.375 7.438 0 0.333 0.2087 1.06 0.5625 1.624 0.3453 0.551 0.7913 0.902 1.0937 0.938h0.0313 35.624 0.032c0.586-0.04 0.965-0.433 1.25-1 0.29-0.578 0.406-1.305 0.406-1.562 0-2.481 0.02-4.755 0.469-7.438h-39.844z"/>
   <path id="path2492" opacity=".2" stroke-linejoin="miter" d="m2.625-32.5c2.7348 7.129 2.875 9.463 2.875 16 0 0.165 0.1904 0.85 0.5 1.344 0.3096 0.493 0.6985 0.717 0.7188 0.718h35.593 0.032c0.362-0.025 0.573-0.242 0.812-0.718 0.245-0.487 0.344-1.202 0.344-1.344 0-4.63 0.073-8.62 2.875-16-0.014-0.001-0.016 0-0.031 0h-43.688c-0.0149 0-0.0166-0.001-0.031 0z" transform="translate(0,54)" stroke="url(#linearGradient2507)" stroke-linecap="round" stroke-miterlimit="4" stroke-width="1" fill="none"/>
   <path id="path2494" opacity=".4" stroke-linejoin="miter" d="m2.5 21.5h44" stroke="url(#radialGradient2509)" stroke-linecap="round" stroke-width="1px" fill="none"/>
  </g>
  <g id="use3216" transform="translate(-1,99)">
   <rect id="rect2434" stroke-linejoin="round" stroke-dasharray="none" rx="1.5" ry="1.5" height="3" width="10" stroke="#d3d7cf" stroke-linecap="round" stroke-miterlimit="4" y="-91.5" x="9.5" stroke-width="1" fill="#eeeeec"/>
   <g id="g2436" transform="translate(66)" fill="#2e3436">
    <rect id="rect2438" rx=".5" ry=".5" height="1" width="1" y="-90" x="-55"/>
    <rect id="rect2440" rx=".5" ry=".5" height="1" width="1" y="-90" x="-53"/>
    <rect id="rect2442" rx=".5" ry=".5" height="1" width="1" y="-90" x="-51"/>
    <rect id="rect2444" rx=".5" ry=".5" height="1" width="1" y="-90" x="-49"/>
   </g>
  </g>
 </g>
</svg>
