<?xml version="1.0" encoding="UTF-8" standalone="no"?>
<!-- Created with Inkscape (http://www.inkscape.org/) -->
<svg id="svg1" height="48" xmlns:dc="http://purl.org/dc/elements/1.1/" width="48" version="1.0" xmlns:xlink="http://www.w3.org/1999/xlink" xmlns:cc="http://web.resource.org/cc/" xmlns:rdf="http://www.w3.org/1999/02/22-rdf-syntax-ns#" xmlns="http://www.w3.org/2000/svg" y="0" x="0">
 <metadata id="metadata162">
  <rdf:RDF>
   <cc:Work rdf:about="">
    <dc:format>image/svg+xml</dc:format>
    <dc:type rdf:resource="http://purl.org/dc/dcmitype/StillImage"/>
    <dc:title>Home folder</dc:title>
    <dc:creator>
     <cc:Agent>
      <dc:title>Lapo Calamandrei</dc:title>
     </cc:Agent>
    </dc:creator>
    <dc:date/>
    <cc:license rdf:resource="http://creativecommons.org/licenses/GPL/2.0/"/>
    <dc:identifier/>
    <dc:subject>
     <rdf:Bag>
      <rdf:li>home</rdf:li>
      <rdf:li>folder</rdf:li>
      <rdf:li>directory</rdf:li>
      <rdf:li>storage</rdf:li>
      <rdf:li>personal</rdf:li>
     </rdf:Bag>
    </dc:subject>
   </cc:Work>
   <cc:License rdf:about="http://creativecommons.org/licenses/GPL/2.0/">
    <cc:permits rdf:resource="http://web.resource.org/cc/Reproduction"/>
    <cc:permits rdf:resource="http://web.resource.org/cc/Distribution"/>
    <cc:requires rdf:resource="http://web.resource.org/cc/Notice"/>
    <cc:permits rdf:resource="http://web.resource.org/cc/DerivativeWorks"/>
    <cc:requires rdf:resource="http://web.resource.org/cc/ShareAlike"/>
    <cc:requires rdf:resource="http://web.resource.org/cc/SourceCode"/>
   </cc:License>
  </rdf:RDF>
 </metadata>
 <defs id="defs3">
  <linearGradient id="linearGradient2039" y2="19.603" gradientUnits="userSpaceOnUse" x2="19.052" gradientTransform="matrix(1 0 0 .97059 -1 1.1618)" y1="6.5447" x1="19.052">
   <stop id="stop3144" stop-color="#888a85" offset="0"/>
   <stop id="stop3122" stop-color="#888a85" offset=".5"/>
   <stop id="stop3146" stop-color="#555753" offset="1"/>
  </linearGradient>
  <linearGradient id="linearGradient3081" y2="-82.75" gradientUnits="userSpaceOnUse" x2="91.625" y1="-98.25" x1="90.5">
   <stop id="stop3077" stop-color="#fff" offset="0"/>
   <stop id="stop3079" stop-color="#fff" stop-opacity="0" offset="1"/>
  </linearGradient>
  <linearGradient id="linearGradient3181" y2="-29.345" gradientUnits="userSpaceOnUse" x2="17.02" y1="-16.276" x1="17.02">
   <stop id="stop3102" stop-color="#fff" offset="0"/>
   <stop id="stop2071" stop-color="#fff" stop-opacity="0" offset="1"/>
  </linearGradient>
  <linearGradient id="linearGradient3183" y2="37.624" gradientUnits="userSpaceOnUse" x2="54" y1="30.499" x1="1">
   <stop id="stop4234" stop-color="#ad7fa8" offset="0"/>
   <stop id="stop4236" stop-color="#75507b" offset="1"/>
  </linearGradient>
  <linearGradient id="linearGradient3185" y2="-59.637" gradientUnits="userSpaceOnUse" x2="9.4176" gradientTransform="matrix(1 0 0 .99615 0 85.748)" y1="-44.923" x1="9.4176">
   <stop id="stop2896" stop-color="#39213f" offset="0"/>
   <stop id="stop2900" stop-color="#75507b" offset=".47619"/>
   <stop id="stop2898" stop-color="#5c3566" offset="1"/>
  </linearGradient>
  <linearGradient id="linearGradient3187" y2="32.798" gradientUnits="userSpaceOnUse" x2="16.75" y1="21.616" x1="16.75">
   <stop id="stop3078" stop-color="#5c3566" offset="0"/>
   <stop id="stop3080" stop-color="#5c3566" stop-opacity="0" offset="1"/>
  </linearGradient>
  <linearGradient id="linearGradient3190" y2="36.268" gradientUnits="userSpaceOnUse" x2="16.75" y1="40.51" x1="16.75">
   <stop id="stop2996" stop-color="#5c3566" offset="0"/>
   <stop id="stop2998" stop-color="#5c3566" stop-opacity="0" offset="1"/>
  </linearGradient>
  <linearGradient id="linearGradient3192" y2="-30.879" gradientUnits="userSpaceOnUse" x2="8.25" y1="-14.375" x1="8.25">
   <stop id="stop3910" stop-color="#fff" offset="0"/>
   <stop id="stop3912" stop-color="#fff" stop-opacity="0" offset="1"/>
  </linearGradient>
  <radialGradient id="radialGradient3194" gradientUnits="userSpaceOnUse" cy="16.554" cx="10.19" gradientTransform="matrix(2.2687 0 -.0000016467 .18408 -10.868 18.453)" r="22.5">
   <stop id="stop3925" stop-color="#fff" offset="0"/>
   <stop id="stop3927" stop-color="#fff" stop-opacity="0" offset="1"/>
  </radialGradient>
 </defs>
 <g id="layer2">
  <path id="path2003" stroke-linejoin="round" d="m23.5 6.4375l-22 8.0625h4l-2 14.625 1.375 1.375h37.25l1.375-1.375-2-14.625h4l-7.344-2.688-0.5-4.312h-5.218v2.2188l-8.938-3.2813z" stroke="#555753" stroke-linecap="round" stroke-miterlimit="4" stroke-dasharray="none" stroke-width="1" fill="url(#linearGradient2039)"/>
  <path id="path3063" opacity=".58431" stroke-linejoin="miter" d="m90.5-95.5l-17.25 6.344c0.181 0.217 0.261 0.501 0.219 0.781l-1.938 15.156 0.719 0.719h36.5l0.72-0.719-1.94-15.156c-0.04-0.28 0.04-0.564 0.22-0.781l-2.94-1.094c-0.35-0.124-0.61-0.439-0.65-0.812l-0.41-3.438h-3.31v1.219c0 0.328-0.16 0.636-0.43 0.823-0.266 0.188-0.61 0.231-0.916 0.114l-8.594-3.156z" transform="translate(-67,103)" stroke="url(#linearGradient3081)" stroke-linecap="round" stroke-miterlimit="4" stroke-dasharray="none" stroke-width="1" fill="none"/>
  <g id="g2007" fill-rule="evenodd" transform="matrix(.21608 0 0 .26310 -1.8932 -11.242)" stroke-width="3pt">
   <path id="path2009" opacity=".047872" d="m32.707 164.36c-10.388 0-18.75 8.36-18.75 18.75s8.362 18.75 18.75 18.75h172.5c10.38 0 18.75-8.36 18.75-18.75s-8.37-18.75-18.75-18.75h-172.5z"/>
   <path id="path2011" opacity=".047872" d="m32.707 165.61c-9.695 0-17.5 7.81-17.5 17.5 0 9.7 7.805 17.5 17.5 17.5h172.5c9.69 0 17.5-7.8 17.5-17.5 0-9.69-7.81-17.5-17.5-17.5h-172.5z"/>
   <path id="path2013" opacity=".047872" d="m32.707 166.86c-9.003 0-16.25 7.25-16.25 16.25s7.247 16.25 16.25 16.25h172.5c9 0 16.25-7.25 16.25-16.25s-7.25-16.25-16.25-16.25h-172.5z"/>
   <path id="path2015" opacity=".047872" d="m32.707 168.11c-8.31 0-15 6.69-15 15s6.69 15 15 15h172.5c8.31 0 15-6.69 15-15s-6.69-15-15-15h-172.5z"/>
   <path id="path2017" opacity=".047872" d="m32.708 169.36c-7.618 0-13.75 6.13-13.75 13.75s6.132 13.75 13.75 13.75h172.5c7.61 0 13.75-6.13 13.75-13.75s-6.14-13.75-13.75-13.75h-172.5z"/>
   <path id="path2019" opacity=".047872" d="m32.707 170.61c-6.925 0-12.5 5.58-12.5 12.5 0 6.93 5.575 12.5 12.5 12.5h172.5c6.92 0 12.5-5.57 12.5-12.5 0-6.92-5.58-12.5-12.5-12.5h-172.5z"/>
   <path id="path2021" opacity=".047872" d="m32.707 171.86c-6.233 0-11.25 5.02-11.25 11.25s5.017 11.25 11.25 11.25h172.5c6.23 0 11.25-5.02 11.25-11.25s-5.02-11.25-11.25-11.25h-172.5z"/>
   <path id="path2023" opacity=".047872" d="m32.707 173.11c-5.54 0-10 4.46-10 10s4.46 10 10 10h172.5c5.54 0 10-4.46 10-10s-4.46-10-10-10h-172.5z"/>
  </g>
  <g id="use3148" transform="translate(-1,-2)">
   <g id="g3165" stroke-linejoin="miter" stroke-linecap="round" fill="none">
    <path id="path3167" opacity=".32157" d="m2.625-32.5c2.7348 7.129 2.875 9.463 2.875 16 0 0.165 0.1904 0.85 0.5 1.344 0.3096 0.493 0.6985 0.717 0.7188 0.718h35.593 0.032c0.362-0.025 0.573-0.242 0.812-0.718 0.245-0.487 0.344-1.202 0.344-1.344 0-4.63 0.073-8.62 2.875-16-0.014-0.001-0.016 0-0.031 0h-43.688c-0.0149 0-0.0166-0.001-0.031 0z" transform="translate(0,54)" stroke="url(#linearGradient3181)" stroke-miterlimit="4" stroke-width="1"/>
    <path id="path3169" opacity=".32549" d="m2.5 21.5h44" stroke="#fff" stroke-width="1px"/>
   </g>
   <path id="path3171" stroke-linejoin="miter" d="m2.6451 20.5h43.71c0.634 0 1.145 0.363 1.145 0.814-3 7.653-3 11.38-3 16.121 0 0.738-0.5 2.988-2.145 3.063h-35.71c-1.145-0.075-2.145-2.067-2.145-3.063 0-6.733 0-8.468-3-16.121 0-0.451 0.5107-0.814 1.1451-0.814z" stroke="url(#linearGradient3185)" stroke-linecap="round" stroke-miterlimit="4" stroke-width="1" fill="url(#linearGradient3183)"/>
   <path id="path3173" opacity=".8" fill="url(#linearGradient3187)" d="m2.6562 21c-0.2248 0-0.4165 0.045-0.5312 0.125s-0.125 0.15-0.125 0.187c2.2219 5.695 2.7883 8.202 2.9375 12h39.188c0.202-3.223 0.818-6.705 2.874-12 0-0.037-0.01-0.107-0.125-0.187s-0.306-0.125-0.531-0.125h-43.688z"/>
   <path id="path3175" opacity=".44314" fill="url(#linearGradient3190)" d="m4.625 30c0.3353 2.15 0.375 4.257 0.375 7.438 0 0.333 0.2087 1.06 0.5625 1.624 0.3453 0.551 0.7913 0.902 1.0937 0.938h0.0313 35.624 0.032c0.586-0.04 0.965-0.433 1.25-1 0.29-0.578 0.406-1.305 0.406-1.562 0-2.481 0.02-4.755 0.469-7.438h-39.844z"/>
   <path id="path3177" opacity=".2" stroke-linejoin="miter" d="m2.625-32.5c2.7348 7.129 2.875 9.463 2.875 16 0 0.165 0.1904 0.85 0.5 1.344 0.3096 0.493 0.6985 0.717 0.7188 0.718h35.593 0.032c0.362-0.025 0.573-0.242 0.812-0.718 0.245-0.487 0.344-1.202 0.344-1.344 0-4.63 0.073-8.62 2.875-16-0.014-0.001-0.016 0-0.031 0h-43.688c-0.0149 0-0.0166-0.001-0.031 0z" transform="translate(0,54)" stroke="url(#linearGradient3192)" stroke-linecap="round" stroke-miterlimit="4" stroke-width="1" fill="none"/>
   <path id="path3179" opacity=".4" stroke-linejoin="miter" d="m2.5 21.5h44" stroke="url(#radialGradient3194)" stroke-linecap="round" stroke-width="1px" fill="none"/>
  </g>
  <g id="use3212" transform="translate(8,103)">
   <rect id="rect3151" stroke-linejoin="round" stroke-dasharray="none" rx="1.5" ry="1.5" height="3" width="10" stroke="#d3d7cf" stroke-linecap="round" stroke-miterlimit="4" y="-91.5" x="9.5" stroke-width="1" fill="#eeeeec"/>
   <g id="g3153" transform="translate(66)" fill="#2e3436">
    <rect id="rect3155" rx=".5" ry=".5" height="1" width="1" y="-90" x="-55"/>
    <rect id="rect3157" rx=".5" ry=".5" height="1" width="1" y="-90" x="-53"/>
    <rect id="rect3159" rx=".5" ry=".5" height="1" width="1" y="-90" x="-51"/>
    <rect id="rect3161" rx=".5" ry=".5" height="1" width="1" y="-90" x="-49"/>
   </g>
  </g>
 </g>
</svg>
