<?xml version="1.0" encoding="iso-8859-1"?>
<!-- Generator: Adobe Illustrator 9.0, SVG Export Plug-In  -->
<!DOCTYPE svg PUBLIC "-//W3C//DTD SVG 20000303 Stylable//EN"   "http://www.w3.org/TR/2000/03/WD-SVG-20000303/DTD/svg-20000303-stylable.dtd" [
	<!ENTITY st0 "fill:url(#aigrd1);">
	<!ENTITY st1 "fill:url(#aigrd2);">
	<!ENTITY st2 "fill:url(#aigrd3);">
	<!ENTITY st3 "fill:url(#aigrd4);">
	<!ENTITY st4 "fill:url(#aigrd5);">
	<!ENTITY st5 "fill:url(#aigrd6);">
	<!ENTITY st6 "fill:url(#aigrd7);">
	<!ENTITY st7 "fill:url(#aigrd8);">
	<!ENTITY st8 "fill:url(#aigrd9);">
	<!ENTITY st9 "fill:url(#aigrd10);">
	<!ENTITY st10 "fill:url(#aigrd11);">
	<!ENTITY st11 "fill:url(#aigrd12);">
	<!ENTITY st12 "fill:url(#aigrd13);">
	<!ENTITY st13 "fill:url(#aigrd14);">
	<!ENTITY st14 "fill:url(#aigrd15);">
	<!ENTITY st15 "fill:url(#aigrd16);">
	<!ENTITY st16 "fill:url(#aigrd17);">
	<!ENTITY st17 "fill:url(#aigrd19);">
	<!ENTITY st18 "fill:url(#aigrd20);">
	<!ENTITY st19 "fill:url(#aigrd21);">
	<!ENTITY st20 "opacity:0.5;fill:url(#aigrd18);">
	<!ENTITY st21 "opacity:0.15;fill:#000000;">
	<!ENTITY st22 "opacity:0.4;">
	<!ENTITY st23 "fill:none;">
	<!ENTITY st24 "fill:none;stroke:none;">
	<!ENTITY st25 "fill-rule:nonzero;clip-rule:nonzero;fill:#FFFFFF;stroke:#FFFFFF;stroke-width:0;stroke-miterlimit:4;">
	<!ENTITY st26 "stroke:none;">
]>
<svg  width="48pt" height="48pt" viewBox="0 0 144 144" xml:space="preserve">
	<g id="Layer_x0020_1" style="&st25;">
		<path style="&st24;" d="M144,144H0V0h144v144z"/>
		<g style="&st26;">
			<path style="&st21;" d="M141.946,86.339c0,0-9.583-7.144-11.612-8.657c0.012-0.294,0.014-0.346,0.024-0.589c0.99-0.692,2.33-1.556,3.575-2.354c3.808-2.444,5.569-3.628,6.449-4.708c0.442-0.542,0.675-1.214,0.675-1.896c0-0.292-0.042-0.584-0.129-0.871
				c-1.427-4.704-3.459-9.409-6.042-13.986c-0.422-0.749-1.145-1.28-1.985-1.459c0,0-10.194-2.176-11.073-2.363c-1.526-2.38-3.254-4.684-5.132-6.914c1.465-1.876,3.508-4.494,3.508-4.494c0.426-0.546,0.635-1.197,0.635-1.845c0-0.786-0.307-1.567-0.909-2.152
				c-3.535-3.437-7.345-6.604-11.322-9.414c-0.88-0.622-2.025-0.724-3.001-0.268c0,0-4.592,2.146-6.515,3.044c-2.399-1.474-4.885-2.807-7.436-4.001c0.046-2.244,0.129-6.273,0.129-6.294c0-1.214-0.732-2.311-1.859-2.774c-4.843-1.992-9.847-3.551-14.873-4.635
				c-1.485-0.32-2.975,0.52-3.469,1.957c0,0-1.129,3.283-1.915,5.566C67.274,17,64.907,16.9,62.591,16.961c-1.405-1.775-6.133-7.749-6.133-7.749c-0.615-0.777-1.574-1.2-2.563-1.131C49.719,8.375,45.7,9.12,41.861,10.178c-0.463-0.142-0.933-0.269-1.431-0.169
				c-1.269,0.252-2.233,1.29-2.392,2.574c-0.125,1.016-0.167,3.89-0.167,7.191c0,1.511,0.01,3.091,0.023,4.643c-2.848-1.388-11.075-5.397-11.075-5.397c-1.058-0.516-2.328-0.369-3.235,0.38c-3.252,2.688-6.055,5.795-8.331,9.235c-0.265,0.4-0.43,0.858-0.481,1.335
				c-0.094,0.879-0.573,10.581-0.718,13.533c-0.002,0.049-0.003,0.098-0.003,0.147c0,0.995,0.494,1.929,1.324,2.488c0,0,1.369,0.922,2.086,1.405c-3.138,0.184-6.438,0.377-6.438,0.377c-1.421,0.083-2.587,1.153-2.793,2.562L5.84,66.887
				c-0.021,0.144-0.031,0.288-0.031,0.433c0,0.126,0.008,0.253,0.024,0.379L7.59,81.493c0.179,1.402,1.327,2.491,2.735,2.611c0,0,11.201,0.986,11.52,1.015c0.921,2.001,1.969,3.97,2.943,5.646c-0.052,0.069-0.118,0.084-0.167,0.165l-0.946,1.534
				c-0.845,2.258-2.65,6.625-5.367,12.979c-0.162,0.379-0.242,0.78-0.242,1.179c0,0.648,0.21,1.291,0.617,1.823c2.807,3.67,11.993,12.969,15.994,13.923c0.829,0.197,1.702,0.033,2.403-0.452c0,0,8.722-6.038,11.201-7.755c2.149,1.334,5.337,3.25,7.654,4.383
				c0.248,2.202,1.742,15.5,1.742,15.5c0.127,1.126,0.876,2.084,1.938,2.478c8.056,2.987,13.286,4.29,17.489,4.358c1.051,0.017,2.039-0.523,2.596-1.415l6.801-10.874c0.493-0.784,0.767-1.229,0.965-1.575c1.632-0.091,3.833-0.273,5.775-0.614
				c1.229,1.58,7.355,9.457,7.355,9.457c0.723,0.93,1.924,1.351,3.069,1.075c5.195-1.249,10.589-5.115,10.816-5.278c0.162-0.117,0.312-0.25,0.447-0.396c0.431-0.466,10.582-11.445,12.104-13.242c0.474-0.559,0.72-1.248,0.72-1.941c0-0.501-0.128-1.004-0.391-1.463
				c0,0-0.517-0.903-0.71-1.242c0.073-0.052,0.16-0.074,0.229-0.133l11.991-10.245c0.339-0.29,0.609-0.651,0.791-1.059c1.78-3.991,2.948-8.313,3.47-12.846c0.013-0.115,0.02-0.23,0.02-0.344c0-0.94-0.442-1.835-1.207-2.405z M94.708,91.046
				c-9.713,2.066-21.49-0.58-31.501-7.08c-12.604-8.182-19.973-20.655-19.889-31.644c8.731-10.46,27.288-11.688,42.298-1.143c12.992,9.125,19.138,24.524,17.307,36.612c-2.38,1.494-5.133,2.598-8.215,3.254z"/>
			<linearGradient id="aigrd1" gradientUnits="userSpaceOnUse" x1="72.9028" y1="-4.1748" x2="72.9028" y2="62.4105">
				<stop  offset="0" style="stop-color:#00009F"/>
				<stop  offset="1" style="stop-color:#58E8FF"/>
			</linearGradient>
			<path style="&st0;" d="M88.425,32.417c-18.025-11.702-39.597-10.471-48.18,2.75c-2.726,4.2-3.809,9.105-3.446,14.216c7.919-12.325,27.871-14.404,43.817-3.203c13.741,9.65,19.836,26.324,16.922,38.671c3.231-1.768,5.97-4.203,7.983-7.308
				c8.585-13.22,0.929-33.426-17.097-45.127z"/>
			<linearGradient id="aigrd2" gradientUnits="userSpaceOnUse" x1="106.8521" y1="78.4063" x2="106.8521" y2="78.4063">
				<stop  offset="0" style="stop-color:#003DC7"/>
				<stop  offset="1" style="stop-color:#6DCDFF"/>
			</linearGradient>
			<path style="&st1;" d="M106.852,78.406z"/>
			<linearGradient id="aigrd3" gradientUnits="userSpaceOnUse" x1="115.4688" y1="96.3354" x2="115.4688" y2="18.2662">
				<stop  offset="0" style="stop-color:#0095FF"/>
				<stop  offset="1" style="stop-color:#00E1FF"/>
			</linearGradient>
			<path style="&st2;" d="M112.471,103.529c0,0.254,0.061,0.51,0.186,0.745c0,0,3.749,7.03,4.626,8.675c-0.043,0.049-0.116,0.136-0.185,0.218l1.368-0.693l-5.413-10.152c-0.04,0.033-0.086,0.052-0.122,0.089c-0.303,0.305-0.46,0.708-0.46,1.118z"/>
			<linearGradient id="aigrd4" gradientUnits="userSpaceOnUse" x1="126.1318" y1="96.3364" x2="126.1318" y2="18.2656">
				<stop  offset="0" style="stop-color:#0095FF"/>
				<stop  offset="1" style="stop-color:#00E1FF"/>
			</linearGradient>
			<path style="&st3;" d="M132.09,81.941l-10.999-8.209l-0.212-3.823c-0.217,0.267-0.352,0.432-0.352,0.432c-0.23,0.283-0.355,0.638-0.355,1.001c0,0.029,0.001,0.059,0.001,0.088l0.142,2.544c0.026,0.468,0.26,0.902,0.635,1.182c0,0,9.119,6.805,10.421,7.778
				c-0.177,1.307-1.086,7.998-1.415,10.416l0.491,0.246l1.642-11.654z"/>
			<linearGradient id="aigrd5" gradientUnits="userSpaceOnUse" x1="136.3833" y1="153.0576" x2="-6.8567" y2="9.8176">
				<stop  offset="0" style="stop-color:#003DC7"/>
				<stop  offset="1" style="stop-color:#6DCDFF"/>
			</linearGradient>
			<path style="&st4;" d="M26.306,33.055l-8.973-6.675c-0.009,0.011-4.57-1.099-4.578-1.09c-0.092,0.861-0.704,13.36-0.704,13.36l11.19,7.536l3.064-13.131z"/>
			<linearGradient id="aigrd6" gradientUnits="userSpaceOnUse" x1="100.0923" y1="161.6309" x2="-27.368" y2="34.1706">
				<stop  offset="0" style="stop-color:#003DC7"/>
				<stop  offset="1" style="stop-color:#6DCDFF"/>
			</linearGradient>
			<path style="&st5;" d="M61.79,98.94l-13.742-7.615l-13.586,9.342L21.664,88.126c-0.183,0.17,0.195-0.056-5.598,13.497c3.207,4.193,11.716,12.209,14.307,12.827c12.827-8.88,12.827-8.88,12.827-8.88s8.345,5.304,10.524,5.92c1.936,17.219,0,0,1.936,17.219
				c6.78,2.514,12.274,4.103,16.495,4.171c7.793-12.522,7.765-12.334,7.793-12.522l-17.974-4.199L61.79,98.94z"/>
			<linearGradient id="aigrd7" gradientUnits="userSpaceOnUse" x1="122.3804" y1="137.4839" x2="-8.1732" y2="6.9303">
				<stop  offset="0" style="stop-color:#003DC7"/>
				<stop  offset="1" style="stop-color:#6DCDFF"/>
			</linearGradient>
			<path style="&st6;" d="M95.446,102.969l-13.01,0.885l-3.091,14.319c0.002,0,0.888,0.936,0.89,0.936c0,0,6.252-0.139,9.213-1.043c8.518,10.951,0,0,8.518,10.951c4.68-1.125,9.762-4.794,9.762-4.794s10.52-11.377,12.018-13.145l-13.936,7.124l-10.363-15.233z"/>
			<linearGradient id="aigrd8" gradientUnits="userSpaceOnUse" x1="175.3452" y1="114.9814" x2="2.0821" y2="-58.2816">
				<stop  offset="0" style="stop-color:#003DC7"/>
				<stop  offset="1" style="stop-color:#6DCDFF"/>
			</linearGradient>
			<path style="&st7;" d="M121.866,71.06c1.231-1.511,9.873-6.309,11.19-7.925l-11.634-0.069l0.444,7.994z"/>
			<linearGradient id="aigrd9" gradientUnits="userSpaceOnUse" x1="146.2974" y1="124.1431" x2="-10.2547" y2="-32.409">
				<stop  offset="0" style="stop-color:#003DC7"/>
				<stop  offset="1" style="stop-color:#6DCDFF"/>
			</linearGradient>
			<path style="&st8;" d="M107.04,98.942l12.893,7.015l11.991-10.245l-14.396-8.396L107.04,98.942z"/>
			<linearGradient id="aigrd10" gradientUnits="userSpaceOnUse" x1="150.2925" y1="129.4277" x2="11.9819" y2="-8.8828">
				<stop  offset="0" style="stop-color:#003DC7"/>
				<stop  offset="1" style="stop-color:#6DCDFF"/>
			</linearGradient>
			<path style="&st9;" d="M36.016,7.951c-0.25,2.024-0.094,14.307-0.094,14.307c-0.001,0.008,0.001-0.008,0,0l5.896-4.068c0,0-5.801-10.239-5.802-10.239z"/>
			<linearGradient id="aigrd11" gradientUnits="userSpaceOnUse" x1="112.6475" y1="166.6543" x2="-25.7521" y2="28.2547">
				<stop  offset="0" style="stop-color:#003DC7"/>
				<stop  offset="1" style="stop-color:#6DCDFF"/>
			</linearGradient>
			<path style="&st10;" d="M25.015,62.481l-16.2-1.549L6.2,45.916L3.809,62.32l1.757,13.794c0,0,0,0,13.295,1.171c2.138,5.221,5.92,10.854,5.92,10.854l6.687-11.122l-6.453-14.536z"/>
			<linearGradient id="aigrd12" gradientUnits="userSpaceOnUse" x1="53.7222" y1="108.854" x2="-13.5695" y2="41.5624">
				<stop  offset="0" style="stop-color:#003DC7"/>
				<stop  offset="1" style="stop-color:#6DCDFF"/>
			</linearGradient>
			<path style="&st11;" d="M6.2,45.916L5.048,61.498l0.518,14.616l2.223-15.27L6.2,45.916z"/>
			<linearGradient id="aigrd13" gradientUnits="userSpaceOnUse" x1="66.7339" y1="116.981" x2="8.1186" y2="58.3656">
				<stop  offset="0" style="stop-color:#003DC7"/>
				<stop  offset="1" style="stop-color:#6DCDFF"/>
			</linearGradient>
			<path style="&st12;" d="M25.015,62.481l-6.154,14.804l6.249,10.854L32.392,76l-7.376-13.52z"/>
			<linearGradient id="aigrd14" gradientUnits="userSpaceOnUse" x1="42.5605" y1="121.8091" x2="42.5605" y2="5.7972">
				<stop  offset="0" style="stop-color:#0095FF"/>
				<stop  offset="1" style="stop-color:#00E1FF"/>
			</linearGradient>
			<path style="&st13;" d="M48.886,5.797l-12.87,2.153l0.255,0.45c4.046-1.231,8.351-2.012,12.834-2.327l-0.22-0.277z"/>
			<linearGradient id="aigrd15" gradientUnits="userSpaceOnUse" x1="6.2168" y1="115.2642" x2="135.4668" y2="115.2642">
				<stop  offset="0" style="stop-color:#0095FF"/>
				<stop  offset="1" style="stop-color:#00E1FF"/>
			</linearGradient>
			<path style="&st14;" d="M114.648,114.415c-1.104,0.56-2.261,1.145-3.356,1.699c1.155-0.524,2.271-1.093,3.356-1.699z"/>
			<linearGradient id="aigrd16" gradientUnits="userSpaceOnUse" x1="70.6763" y1="121.8315" x2="70.6763" y2="5.7998">
				<stop  offset="0" style="stop-color:#0095FF"/>
				<stop  offset="1" style="stop-color:#00E1FF"/>
			</linearGradient>
			<path style="&st15;" d="M122.296,74.16l-0.017-0.2c0.069-0.901,0.115-1.81,0.115-2.73c0-2.471-0.265-5.016-0.772-7.608l11.435-0.487c-1.375-4.536-3.325-9.025-5.783-13.382c-2.799-0.599-10.558-2.253-12.243-2.613c-2.032-3.323-4.443-6.528-7.181-9.545
				l4.99-6.392c-3.365-3.271-7.026-6.334-10.962-9.115l-7.944,3.712c-3.365-2.175-6.823-4.009-10.316-5.528l0.168-8.152c-4.776-1.964-9.591-3.447-14.364-4.477l-2.69,7.82c-3.603-0.498-7.144-0.653-10.561-0.461l-7.065-8.927c-4.483,0.314-8.788,1.095-12.834,2.327
				l5.546,9.789c-3.018,1.267-5.792,2.896-8.255,4.89c-2.102-1.021-10.205-4.961-13.066-6.367c-2.966,2.452-5.576,5.307-7.741,8.579l12.525,8.231c-1.717,3.58-2.692,7.442-2.985,11.451L6.2,45.916c-0.226,4.868,0.324,9.889,1.589,14.928l17.226,1.637
				c1.719,4.618,4.208,9.182,7.376,13.52L21.859,88.07c3.633,4.472,7.847,8.714,12.603,12.598l13.586-9.342l0.054,0.03c0.781,0.552,1.576,1.094,2.388,1.621c3.626,2.354,7.424,4.346,11.3,5.964l0.184,17.218c5.966,2.102,12.019,3.521,17.974,4.199
				c0.632-4.201,2.375-15.751,2.489-16.503c4.491,0.267,8.876-0.01,13.01-0.885l10.363,15.233c1.902-0.601,3.733-1.296,5.483-2.088c1.095-0.554,2.251-1.139,3.356-1.699c1.799-1.002,3.499-2.116,5.097-3.336c-1.521-2.718-7.084-12.348-8.771-15.266
				c2.494-2.028,4.642-4.407,6.396-7.112c0.064-0.098,0.117-0.202,0.18-0.3l14.374,7.311c1.673-3.752,2.745-7.765,3.229-11.967l-12.856-9.584z M104.967,77.334c-8.448,13.017-29.687,14.23-47.434,2.711C39.784,68.523,32.247,48.63,40.698,35.612
				c8.45-13.019,29.688-14.232,47.437-2.711c17.748,11.524,25.285,31.415,16.832,44.433z"/>
			<path d="M122.296,74.16l-0.017-0.2c0.069-0.901,0.115-1.81,0.115-2.73c0-2.471-0.265-5.016-0.772-7.608l11.435-0.487c-1.375-4.536-3.325-9.025-5.783-13.382c-2.799-0.599-10.558-2.253-12.243-2.613c-2.032-3.323-4.443-6.528-7.181-9.545l4.99-6.392
				c-3.365-3.271-7.026-6.334-10.962-9.115l-7.944,3.712c-3.365-2.175-6.823-4.009-10.316-5.528l0.168-8.152c-4.776-1.964-9.591-3.447-14.364-4.477l-2.69,7.82c-3.603-0.498-7.144-0.653-10.561-0.461l-7.065-8.927c-4.483,0.314-8.788,1.095-12.834,2.327l5.546,9.789
				c-3.018,1.267-5.792,2.896-8.255,4.89c-2.102-1.021-10.205-4.961-13.066-6.367c-2.966,2.452-5.576,5.307-7.741,8.579l12.525,8.231c-1.717,3.58-2.692,7.442-2.985,11.451L6.2,45.916c-0.226,4.868,0.324,9.889,1.589,14.928l17.226,1.637
				c1.719,4.618,4.208,9.182,7.376,13.52L21.859,88.07c3.633,4.472,7.847,8.714,12.603,12.598l13.586-9.342l0.054,0.03c0.781,0.552,1.576,1.094,2.388,1.621c3.626,2.354,7.424,4.346,11.3,5.964l0.184,17.218c5.966,2.102,12.019,3.521,17.974,4.199
				c0.632-4.201,2.375-15.751,2.489-16.503c4.491,0.267,8.876-0.01,13.01-0.885l10.363,15.233c1.902-0.601,3.733-1.296,5.483-2.088c1.095-0.554,2.251-1.139,3.356-1.699c1.799-1.002,3.499-2.116,5.097-3.336c-1.521-2.718-7.084-12.348-8.771-15.266
				c2.494-2.028,4.642-4.407,6.396-7.112c0.064-0.098,0.117-0.202,0.18-0.3l14.374,7.311c1.673-3.752,2.745-7.765,3.229-11.967l-12.856-9.584z M104.967,77.334c-8.448,13.017-29.687,14.23-47.434,2.711C39.784,68.523,32.247,48.63,40.698,35.612
				c8.45-13.019,29.688-14.232,47.437-2.711c17.748,11.524,25.285,31.415,16.832,44.433z"/>
			<linearGradient id="aigrd17" gradientUnits="userSpaceOnUse" x1="46.7144" y1="110.3916" x2="7.7205" y2="71.3977">
				<stop  offset="0" style="stop-color:#003DC7"/>
				<stop  offset="1" style="stop-color:#6DCDFF"/>
			</linearGradient>
			<path style="&st16;" d="M34.461,100.668l-4.089,13.781l12.827-8.88l4.849-14.243l-13.586,9.342z"/>
			<path style="&st22;" d="M53.723,111.489L61.79,98.94l0.184,17.218l-6.315,12.55l-1.936-17.219z"/>
			<path style="&st22;" d="M95.368,103.226l-5.92,14.84l8.518,10.951l7.844-10.815l-10.441-14.977z"/>
			<linearGradient id="aigrd18" gradientUnits="userSpaceOnUse" x1="6.5981" y1="68.168" x2="47.2206" y2="73.4433">
				<stop  offset="0" style="stop-color:#003DC7"/>
				<stop  offset="1" style="stop-color:#6DCDFF"/>
			</linearGradient>
			<path style="&st20;" d="M7.789,60.844l-2.223,15.27l13.295,1.171l6.154-14.804L7.789,60.844z"/>
			<path style="&st23;" d="M78.891,48.635c-12.729-8.941-29.232-8.926-37.496-0.202c0.413,10.034,7.507,20.918,18.444,28.018h0c9.357,6.076,20.29,8.566,29.242,6.662c2.197-0.468,4.167-1.258,5.982-2.226c0.08-0.847,0.188-1.688,0.188-2.547
				c0-10.912-6.335-22.664-16.361-29.705z"/>
			<linearGradient id="aigrd19" gradientUnits="userSpaceOnUse" x1="95.3105" y1="91.0986" x2="-32.4091" y2="-8.1831">
				<stop  offset="0" style="stop-color:#003DC7"/>
				<stop  offset="1" style="stop-color:#6DCDFF"/>
			</linearGradient>
			<path style="&st17;" d="M136.946,81.339c0,0-9.583-7.144-11.612-8.657c0.012-0.294,0.014-0.346,0.024-0.589c0.99-0.692,2.33-1.556,3.575-2.354c3.808-2.444,5.569-3.628,6.449-4.708c0.442-0.542,0.675-1.214,0.675-1.896c0-0.292-0.042-0.584-0.129-0.871
				c-1.427-4.704-3.459-9.409-6.042-13.986c-0.422-0.749-1.145-1.28-1.985-1.459c0,0-10.194-2.176-11.073-2.363c-1.526-2.38-3.254-4.684-5.132-6.914c1.465-1.876,3.508-4.494,3.508-4.494c0.426-0.546,0.635-1.197,0.635-1.845c0-0.786-0.307-1.567-0.909-2.152
				c-3.535-3.437-7.345-6.604-11.322-9.414c-0.88-0.622-2.025-0.724-3.001-0.268c0,0-4.592,2.146-6.515,3.044c-2.399-1.474-4.885-2.807-7.436-4.001c0.046-2.244,0.129-6.273,0.129-6.294c0-1.214-0.732-2.311-1.859-2.774c-4.843-1.992-9.847-3.551-14.873-4.635
				c-1.485-0.32-2.975,0.52-3.469,1.957c0,0-1.129,3.283-1.915,5.566C62.274,12,59.907,11.9,57.591,11.961c-1.405-1.775-6.133-7.749-6.133-7.749c-0.615-0.777-1.574-1.2-2.563-1.131C44.719,3.375,40.7,4.12,36.861,5.178c-0.463-0.142-0.933-0.269-1.431-0.169
				c-1.269,0.252-2.233,1.29-2.392,2.574c-0.125,1.016-0.167,3.89-0.167,7.191c0,1.511,0.01,3.091,0.023,4.643c-2.848-1.388-11.075-5.397-11.075-5.397c-1.058-0.516-2.328-0.369-3.235,0.38c-3.252,2.688-6.055,5.795-8.331,9.235c-0.265,0.4-0.43,0.858-0.481,1.335
				C9.678,25.85,9.199,35.551,9.055,38.504c-0.002,0.049-0.003,0.098-0.003,0.147c0,0.995,0.494,1.929,1.324,2.488c0,0,1.369,0.922,2.086,1.405c-3.138,0.184-6.438,0.377-6.438,0.377c-1.421,0.083-2.587,1.153-2.793,2.562L0.84,61.887
				c-0.021,0.144-0.031,0.288-0.031,0.433c0,0.126,0.008,0.253,0.024,0.379L2.59,76.493c0.179,1.402,1.327,2.491,2.735,2.611c0,0,11.201,0.986,11.52,1.015c0.921,2.001,1.969,3.97,2.943,5.646c-0.052,0.069-0.118,0.084-0.167,0.165l-0.946,1.534
				c-0.845,2.258-2.65,6.625-5.367,12.979c-0.162,0.379-0.242,0.78-0.242,1.179c0,0.648,0.21,1.291,0.617,1.823c2.807,3.67,11.993,12.969,15.994,13.923c0.829,0.197,1.702,0.033,2.403-0.452c0,0,8.722-6.038,11.201-7.755c2.149,1.334,5.337,3.25,7.654,4.383
				c0.248,2.202,1.742,15.5,1.742,15.5c0.127,1.126,0.876,2.084,1.938,2.478c8.056,2.987,13.286,4.29,17.489,4.358c1.051,0.017,2.039-0.523,2.596-1.415l6.801-10.874c0.493-0.784,0.767-1.229,0.965-1.575c1.632-0.091,3.833-0.273,5.775-0.614
				c1.229,1.58,7.355,9.457,7.355,9.457c0.723,0.93,1.924,1.351,3.069,1.075c5.195-1.249,10.589-5.115,10.816-5.278c0.162-0.117,0.312-0.25,0.447-0.396c0.431-0.466,10.582-11.445,12.104-13.242c0.474-0.559,0.72-1.248,0.72-1.941c0-0.501-0.128-1.004-0.391-1.463
				c0,0-0.517-0.903-0.71-1.242c0.073-0.052,0.16-0.074,0.229-0.133l11.991-10.245c0.339-0.29,0.609-0.651,0.791-1.059c1.78-3.991,2.948-8.313,3.47-12.846c0.013-0.115,0.02-0.23,0.02-0.344c0-0.94-0.442-1.835-1.207-2.405z M131.923,95.712l-11.991,10.245
				l-4.525-2.462c1.797,3.121,3.576,6.221,4.338,7.584c-1.498,1.768-12.018,13.145-12.018,13.145s-5.082,3.669-9.762,4.794c-8.518-10.951,0,0-8.518-10.951c-2.961,0.904-9.213,1.043-9.213,1.043c0,0-0.037-0.039-0.086-0.09c-0.075,0.499-0.143,0.95-0.202,1.338
				c-0.028,0.188,0,0-7.793,12.522c-4.221-0.068-9.715-1.658-16.495-4.171c-1.936-17.219,0,0-1.936-17.219c-2.179-0.617-10.524-5.92-10.524-5.92s0,0-12.827,8.88c-2.59-0.617-11.1-8.634-14.307-12.827c5.793-13.553,5.416-13.327,5.598-13.497l1.512,1.482
				c-0.438-0.513-0.895-1.019-1.317-1.538l1.664-1.907c-1.295-2.101-3.308-5.57-4.662-8.878l-2.509-0.221c-0.795-0.07-1.528-0.134-2.21-0.194L12.9,76.76c-0.491-0.043-0.948-0.083-1.375-0.121l-1.367-0.121c-0.813-0.071-1.484-0.13-2.034-0.179L7.228,76.26
				c-0.125-0.011-0.237-0.021-0.344-0.03l-0.497-0.044c-0.077-0.007-0.147-0.013-0.211-0.019l-0.277-0.024c-0.093-0.008-0.161-0.014-0.209-0.019l-0.108-0.009c-0.015-0.001-0.016-0.001-0.016-0.001L3.809,62.32L6.2,45.916l15.308-0.897l-9.456-6.368
				c0,0,0.612-12.499,0.704-13.36c2.165-3.271,4.775-6.127,7.741-8.579c2.861,1.406,10.964,5.346,13.066,6.367c0.752-0.608,1.542-1.171,2.35-1.712c-0.03-2.854-0.105-11.723,0.104-13.417c0,0,0.093,0.165,0.255,0.45c4.046-1.231,8.351-2.012,12.834-2.327
				l7.065,8.927c3.417-0.192,6.958-0.037,10.561,0.461l2.69-7.82c4.773,1.029,9.588,2.513,14.364,4.477l-0.168,8.152c3.493,1.519,6.951,3.354,10.316,5.528l7.944-3.712c3.936,2.78,7.597,5.844,10.962,9.115l-4.99,6.392c2.738,3.018,5.149,6.223,7.181,9.545
				c1.686,0.36,9.444,2.014,12.243,2.613c2.458,4.357,4.408,8.847,5.783,13.382c-1.201,1.473-8.464,5.58-10.68,7.442c0.004,0.217,0.017,0.437,0.017,0.653c0,0.921-0.045,1.83-0.115,2.73l0.017,0.2l12.856,9.584c-0.484,4.203-1.556,8.215-3.229,11.967z"/>
			<linearGradient id="aigrd20" gradientUnits="userSpaceOnUse" x1="19.147" y1="2.4858" x2="97.6413" y2="80.981">
				<stop  offset="0" style="stop-color:#003DC7"/>
				<stop  offset="1" style="stop-color:#6DCDFF"/>
			</linearGradient>
			<path style="&st18;" d="M38.916,34.304C29.87,48.236,37.75,69.465,56.48,81.626c10.702,6.946,23.37,9.758,33.889,7.52c7.22-1.535,12.92-5.249,16.483-10.741c2.508-3.861,3.783-8.333,3.783-13.158c0-2.032-0.226-4.129-0.682-6.269
				c-2.237-10.518-9.962-20.943-20.665-27.892c-18.731-12.16-41.327-10.716-50.372,3.217z M58.207,78.967C40.942,67.759,33.481,48.498,41.575,36.03c8.093-12.467,28.722-13.492,45.987-2.285c10.012,6.501,17.223,16.18,19.289,25.894
				c1.356,6.38,0.437,12.272-2.66,17.042c-3.096,4.769-8.104,8.006-14.484,9.365c-9.713,2.066-21.49-0.58-31.501-7.08z M106.852,78.406z"/>
			<linearGradient id="aigrd21" gradientUnits="userSpaceOnUse" x1="105.2021" y1="96.1592" x2="39.0358" y2="31.0048">
				<stop  offset="0" style="stop-color:#0095FF"/>
				<stop  offset="1" style="stop-color:#00E1FF"/>
			</linearGradient>
			<path style="&st19;" d="M121.231,73.251c0.285-2.209,0.34-7.574-0.167-10.167l11.992,0.051c-1.375-4.536-3.325-9.025-5.783-13.382c-2.799-0.599-10.558-2.253-12.243-2.613c-2.032-3.323-4.443-6.528-7.181-9.545l4.99-6.392c-3.365-3.271-7.026-6.334-10.962-9.115
				l-7.944,3.712c-3.365-2.175-6.823-4.009-10.316-5.528l0.168-8.152c-4.776-1.964-9.591-3.447-14.364-4.477l-2.69,7.82c-3.603-0.498-7.144-0.653-10.561-0.461l-7.065-8.927c-4.483,0.314-8.788,1.095-12.834,2.327l5.546,9.789c-3.018,1.267-5.792,2.896-8.255,4.89
				c-2.102-1.021-10.205-4.961-13.066-6.367c-2.966,2.452-5.576,5.307-7.741,8.579l12.976,7.793c-1.717,3.58-2.207,7.825-2.5,11.833L6.2,45.916c-0.226,4.868,0.933,9.296,2.198,14.335l17.333,1c1.719,4.618,5.165,10.329,8.333,14.667l-10,12
				c2.903,3.574,4.552,6.248,10.167,10.833c0,0-0.167,0,13.667-9.5c2.833,2.833,11.291,6.882,15.167,8.5l0.5,17.5c5.966,2.102,9.045,2.655,15,3.333c0.632-4.201,2.219-15.581,2.333-16.333c4.491,0.267,11.2-0.125,15.333-1l10.167,15c3-0.833,9.902-4.446,11.5-5.667
				c-1.521-2.718-6.646-12.415-8.333-15.333c2.494-2.028,5.746-5.462,7.5-8.167c0.064-0.098,14.5,7.667,14.5,7.667c1.673-3.752,3.104-6.804,3.588-11.006l-13.922-10.494z M104.967,77.334c-8.448,13.017-29.687,14.23-47.434,2.711
				C39.784,68.523,32.247,48.63,40.698,35.612c8.45-13.019,29.688-14.232,47.437-2.711c17.748,11.524,25.285,31.415,16.832,44.433z"/>
			<path d="M62.231,114.667l-6.625,13.875l8-12l-1.375-1.875z"/>
			<path d="M105.356,117.542l-7.25,11.25l9.125-11l-1.875-0.25z"/>
			<path d="M33.856,100.167l-3.625,14.125l5.125-14.25l-1.5,0.125z"/>
			<path d="M7.606,60.042l-2,15.875l2.75-15l-0.75-0.875z"/>
		</g>
	</g>
</svg>
