<?xml version="1.0" encoding="UTF-8" standalone="no"?>
<!DOCTYPE svg PUBLIC "-//W3C//DTD SVG 20010904//EN"
"http://www.w3.org/TR/2001/REC-SVG-20010904/DTD/svg10.dtd">
<!-- Created with Sodipodi ("http://www.sodipodi.com/") -->
<svg
   width="48pt"
   height="48pt"
   id="svg1"
   sodipodi:version="0.32pre"
   sodipodi:docname="/home/cschalle/spherecrystal/SphereCrystal/icons/scalable/mimetypes/gnome-mime-application-postscript.svg"
   sodipodi:docbase="/home/cschalle/spherecrystal/SphereCrystal/icons/scalable/mimetypes/"
   xmlns="http://www.w3.org/2000/svg"
   xmlns:sodipodi="http://sodipodi.sourceforge.net/DTD/sodipodi-0.dtd"
   xmlns:xlink="http://www.w3.org/1999/xlink">
  <defs
     id="defs22">
    <linearGradient
       id="linearGradient168">
      <stop
         offset="0.000000"
         style="stop-color:#cdffff;stop-opacity:1;"
         id="stop169" />
      <stop
         offset="1.000000"
         style="stop-color:#0c5d7d;stop-opacity:0.905882;"
         id="stop170" />
    </linearGradient>
    <linearGradient
       id="linearGradient90">
      <stop
         offset="0.000000"
         style="stop-color:#cdffff;stop-opacity:1;"
         id="stop91" />
      <stop
         offset="1.000000"
         style="stop-color:#006b97;stop-opacity:0.905882;"
         id="stop92" />
    </linearGradient>
    <linearGradient
       id="linearGradient67">
      <stop
         offset="0.000000"
         style="stop-color:#d7ffff;stop-opacity:0.898039;"
         id="stop70" />
      <stop
         offset="1.000000"
         style="stop-color:#2ea6b9;stop-opacity:0.952941;"
         id="stop69" />
    </linearGradient>
    <linearGradient
       id="linearGradient57">
      <stop
         offset="0.000000"
         style="stop-color:#ffffff;stop-opacity:1;"
         id="stop59" />
      <stop
         offset="1.000000"
         style="stop-color:#797979;stop-opacity:1;"
         id="stop58" />
    </linearGradient>
    <defs
       id="defs4">
      <radialGradient
         id="1"
         cx="869.603027"
         cy="1973.579956"
         r="2106.649902"
         fx="869.603027"
         fy="1973.579956"
         gradientUnits="userSpaceOnUse"
         xlink:href="#linearGradient67" />
    </defs>
    <defs
       id="defs11">
      <linearGradient
         id="2"
         x1="255.848"
         y1="119.147"
         x2="375.686"
         y2="34.1009"
         gradientUnits="userSpaceOnUse">
        <stop
           offset="0"
           style="stop-color:#ffffff"
           id="stop13" />
        <stop
           offset="1"
           style="stop-color:#000000"
           id="stop14" />
      </linearGradient>
    </defs>
    <defs
       id="defs16">
      <linearGradient
         id="3"
         x1="275.053009"
         y1="109.384003"
         x2="356.480988"
         y2="30.864300"
         gradientUnits="userSpaceOnUse"
         xlink:href="#linearGradient57" />
    </defs>
    <radialGradient
       cx="3.03981e-14"
       cy="1.05578e-10"
       r="0.773346"
       fx="3.03981e-14"
       fy="1.05578e-10"
       xlink:href="#linearGradient168"
       id="radialGradient88"
       gradientUnits="objectBoundingBox"
       gradientTransform="matrix(0.945877,0,0,1.05722,0.264368,0.249996)"
       spreadMethod="pad" />
    <linearGradient
       x1="2.69643"
       y1="1.14655"
       x2="3.85147"
       y2="0.623116"
       xlink:href="#linearGradient67"
       id="linearGradient89"
       gradientUnits="objectBoundingBox"
       gradientTransform="translate(-2.65767,-0.201241)"
       spreadMethod="pad" />
  </defs>
  <sodipodi:namedview
     id="base" />
  <path
     style="font-size:12;fill:url(#radialGradient88);stroke:#0c5d7d;stroke-opacity:0.99;stroke-width:4.03585;"
     d="M 35.399 39.1321L 277.219 39.1321L 377.219 137.984L 377.219 548.198L 35.399 548.198L 35.399 39.1321z"
     id="path9"
     transform="matrix(0.130706,0,0,0.106067,4.37227,0.0872047)" />
  <path
     style="font-size:12;fill:#faffff;fill-opacity:0.98;stroke:#2ea6b9;stroke-width:8.96855;stroke-opacity:0.82;"
     d="M 23.9471 20.1241L 265.767 20.1241L 365.767 120.124L 365.767 535.103L 23.9471 535.103L 23.9471 20.1241z"
     id="path10"
     transform="matrix(0.130706,0,0,0.103782,4.37227,0.874713)" />
  <path
     style="font-size:12;fill:url(#2);"
     d="M 276.767 133.124L 365.767 120.124L 265.767 20.1241"
     id="path15"
     transform="matrix(0.130706,0,0,0.103782,4.37227,0.874713)" />
  <path
     style="font-size:12;fill:url(#linearGradient89);stroke:#2ea6b9;stroke-width:6.72641;stroke-opacity:0.91;"
     d="M 265.767 120.124L 365.767 120.124L 265.767 20.1241L 265.767 120.124"
     id="path20"
     transform="matrix(0.130706,0,0,0.103782,4.37227,0.874713)" />
  <g
     id="Layer_x0020_3"
     style="fill-rule:nonzero;clip-rule:nonzero;stroke:#000000;stroke-miterlimit:4;"
     transform="matrix(1.52666,0,0,1.40168,-7.89993,-3.53482)">
    <path
       style="opacity:0.3;stroke:none;fill-rule:evenodd;"
       d="M27.7,14.3c-1.7-1.7-12.9-4.7-8.7,2.4c2.1,3.6-3.6,7.2-0.5,12c3.8,5.7,14.3-0.2,8.5-5.5c-4.1-3.7,2.5-7.1,0.7-8.8z"
       id="path1314" />
    <radialGradient
       id="aigrd5"
       cx="19.2734"
       cy="13.0234"
       r="20.1525"
       fx="19.2734"
       fy="13.0234"
       gradientUnits="userSpaceOnUse">
      <stop
         offset="0"
         style="stop-color:#23ACCD"
         id="stop1316" />
      <stop
         offset="1"
         style="stop-color:#274773"
         id="stop1317" />
    </radialGradient>
    <path
       style="fill:url(#aigrd5);stroke-width:0.425;fill-rule:evenodd;"
       d="M27,13.4c-1.7-1.7-13.1-4.2-8.9,2.9c2.1,3.6-3.6,7.2-0.5,12c3.8,5.7,14.3-0.2,8.5-5.5C22,19,28.8,15.1,27,13.4z"
       id="path1318" />
    <path
       style="stroke:none;fill-rule:evenodd;"
       d="M31.5,17h-1l-3.3-3.3c0-0.1,0.1-0.2,0.1-0.2c0-0.2-0.2-0.4-0.4-0.4c-0.1,0-0.2,0-0.2,0.1l-3.4-3.4v-1h-0.1h-1.1v1.2h1l3.4,3.4c0,0.1-0.1,0.2-0.1,0.2c0,0.2,0.2,0.4,0.4,0.4c0.1,0,0.2,0,0.2-0.1l3.3,3.3v1h1.2V17h-0.1z M23.2,9.7    c-0.1,0-0.7,0-0.8,0c0-0.1,0-0.7,0-0.8c0.1,0,0.7,0,0.8,0c0,0.1,0,0.7,0,0.8z M31.5,18c-0.1,0-0.7,0-0.8,0c0-0.1,0-0.7,0-0.8c0.1,0,0.7,0,0.8,0c0,0.1,0,0.7,0,0.8z"
       id="path1319" />
    <path
       style="fill:#82D0E3;stroke:none;fill-rule:evenodd;"
       d="M24.6,12.4c-6.8-1.9-7.8,0.3-7,2.3c0.5,1.3,1.5,2.6,1.2,3.9c-0.8,3-4.5,8.3,1,11.3C15,26.4,19,21,19.3,18.8c0.4-2.1-5.4-8.2,5.2-6.4z"
       id="path1320" />
    <path
       style="stroke:none;fill-rule:evenodd;"
       d="M19.9,10.9V9.8h-0.1h-1.1v1l-1.1,1.1c-0.1,0-0.2-0.1-0.2-0.1c-0.2,0-0.4,0.2-0.4,0.4c0,0.1,0,0.2,0.1,0.2l-1.1,1.1h-1v1.2h1.2v-1l1.1-1.1c0.1,0,0.2,0.1,0.2,0.1c0.2,0,0.4-0.2,0.4-0.4c0-0.1,0-0.2-0.1-0.2l1.1-1.1h1z M18.9,9.9    c0.1,0,0.7,0,0.8,0c0,0.1,0,0.7,0,0.8c-0.1,0-0.7,0-0.8,0c0-0.1,0-0.7,0-0.8z M15.1,14.7c0-0.1,0-0.7,0-0.8c0.1,0,0.6,0,0.8,0l0,0c0,0.2,0,0.7,0,0.8c-0.1,0-0.7,0-0.8,0z"
       id="path1321" />
    <g
       style="stroke:none;"
       id="g1322">
      <path
         d="M24.6,36.5c-0.2,0.4-0.3,0.5-0.3,0.7c0,0.1,0,0.1,0.1,0.1c0.1,0,0.1,0,0.1,0.1c0,0,0,0-0.1,0.1l-1,0.4C23.2,38,23.2,38,23.1,38C23,38,23,37.9,23,37.8c0-0.2,0.2-0.7,0.7-1.5l3.3-5.6c0-0.1,0-0.1-0.1-0.1c0,0,0,0-0.1,0h0c0,0-0.1,0-0.1-0.1     c0,0,0-0.1,0.1-0.1l1.2-0.5c0.2-0.1,0.3-0.1,0.4-0.1c0.1,0,0.2,0.1,0.2,0.3l1,6.3c0.1,0.6,0.2,0.8,0.3,0.8c0.1,0,0.1,0,0.2-0.1c0.1,0,0.1,0,0.1,0c0,0,0.1,0,0.1,0.1c0,0,0,0.1-0.1,0.1l-1.4,0.6c-0.4,0.2-0.4,0.2-0.6,0.2c-0.2,0-0.3-0.1-0.4-0.6l-0.3-2.6     c-0.8,0.3-1,0.4-1.4,0.4h-0.8l-0.7,1.3z M27.4,32.9c0-0.2-0.1-1.1-0.1-1.2v-0.1c-0.1,0.3-0.2,0.5-0.5,1l-0.9,1.6c-0.1,0.1-0.1,0.1-0.2,0.2c0.1,0,0.1,0,0.2,0h1.6l-0.2-1.5z"
         id="path1323"
         style="fill-rule:evenodd;" />
      <path
         d="M33.9,36.8c0.1-0.4,0.1-0.6,0.2-0.8c-0.2,0.3-0.5,0.5-1.1,1c-0.8,0.7-1.3,1-1.8,1c-0.5,0-0.7-0.4-0.7-1c0-1.6,1-3.2,2.5-4.1c0.8-0.5,1.6-0.7,2.9-0.7h0.2c0.1,0,0.1,0,0.1,0.1l0,0L35.5,36c-0.1,0.3-0.1,0.5-0.1,0.7c0,0.2,0.1,0.3,0.2,0.3     c0.2,0,0.5-0.1,0.8-0.3c0.1-0.1,0.2-0.1,0.2-0.1c0,0,0.1,0.1,0.1,0.1c0,0,0,0-0.1,0.1l-1,0.7c-0.7,0.4-1.2,0.7-1.5,0.7c-0.3,0-0.4-0.1-0.4-0.4c0-0.1,0-0.3,0.1-0.5l0-0.2z M34.6,33c-0.1,0-0.2,0-0.3,0c-0.4,0-0.7,0-1,0.1c-0.4,0.5-0.7,0.9-0.9,1.4     c-0.2,0.5-0.3,1.2-0.3,1.6c0,0.4,0.1,0.6,0.4,0.6c0.4,0,1.1-0.4,1.6-1l0.5-2.8z"
         id="path1324"
         style="fill-rule:evenodd;" />
    </g>
  </g>
</svg>
