<?xml version="1.0" encoding="UTF-8" standalone="no"?>
<!DOCTYPE svg PUBLIC "-//W3C//DTD SVG 20010904//EN"
"http://www.w3.org/TR/2001/REC-SVG-20010904/DTD/svg10.dtd">
<!-- Created with Sodipodi ("http://www.sodipodi.com/") -->
<svg
   width="48pt"
   height="48pt"
   id="svg1"
   sodipodi:version="0.32pre"
   sodipodi:docname="/home/cschalle/spherecrystal/SphereCrystal/icons/scalable/mimetypes/gnome-mime-image.svg"
   sodipodi:docbase="/home/cschalle/spherecrystal/SphereCrystal/icons/scalable/mimetypes/"
   xmlns="http://www.w3.org/2000/svg"
   xmlns:sodipodi="http://sodipodi.sourceforge.net/DTD/sodipodi-0.dtd"
   xmlns:xlink="http://www.w3.org/1999/xlink">
  <defs
     id="defs22">
    <linearGradient
       id="linearGradient168">
      <stop
         offset="0.000000"
         style="stop-color:#cdffff;stop-opacity:1;"
         id="stop169" />
      <stop
         offset="1.000000"
         style="stop-color:#0c5d7d;stop-opacity:0.905882;"
         id="stop170" />
    </linearGradient>
    <linearGradient
       id="linearGradient90">
      <stop
         offset="0.000000"
         style="stop-color:#cdffff;stop-opacity:1;"
         id="stop91" />
      <stop
         offset="1.000000"
         style="stop-color:#006b97;stop-opacity:0.905882;"
         id="stop92" />
    </linearGradient>
    <linearGradient
       id="linearGradient67">
      <stop
         offset="0.000000"
         style="stop-color:#d7ffff;stop-opacity:0.898039;"
         id="stop70" />
      <stop
         offset="1.000000"
         style="stop-color:#2ea6b9;stop-opacity:0.952941;"
         id="stop69" />
    </linearGradient>
    <linearGradient
       id="linearGradient57">
      <stop
         offset="0.000000"
         style="stop-color:#ffffff;stop-opacity:1;"
         id="stop59" />
      <stop
         offset="1.000000"
         style="stop-color:#797979;stop-opacity:1;"
         id="stop58" />
    </linearGradient>
    <defs
       id="defs4">
      <radialGradient
         id="1"
         cx="869.603027"
         cy="1973.579956"
         r="2106.649902"
         fx="869.603027"
         fy="1973.579956"
         gradientUnits="userSpaceOnUse"
         xlink:href="#linearGradient67" />
    </defs>
    <defs
       id="defs11">
      <linearGradient
         id="2"
         x1="255.848"
         y1="119.147"
         x2="375.686"
         y2="34.1009"
         gradientUnits="userSpaceOnUse">
        <stop
           offset="0"
           style="stop-color:#ffffff"
           id="stop13" />
        <stop
           offset="1"
           style="stop-color:#000000"
           id="stop14" />
      </linearGradient>
    </defs>
    <defs
       id="defs16">
      <linearGradient
         id="3"
         x1="275.053009"
         y1="109.384003"
         x2="356.480988"
         y2="30.864300"
         gradientUnits="userSpaceOnUse"
         xlink:href="#linearGradient57" />
    </defs>
    <radialGradient
       cx="3.03981e-14"
       cy="1.05578e-10"
       r="0.773346"
       fx="3.03981e-14"
       fy="1.05578e-10"
       xlink:href="#linearGradient168"
       id="radialGradient88"
       gradientUnits="objectBoundingBox"
       gradientTransform="matrix(0.945877,0,0,1.05722,0.264368,0.249996)"
       spreadMethod="pad" />
    <linearGradient
       x1="2.69643"
       y1="1.14655"
       x2="3.85147"
       y2="0.623116"
       xlink:href="#linearGradient67"
       id="linearGradient89"
       gradientUnits="objectBoundingBox"
       gradientTransform="translate(-2.65767,-0.201241)"
       spreadMethod="pad" />
  </defs>
  <sodipodi:namedview
     id="base" />
  <path
     style="font-size:12;fill:url(#radialGradient88);stroke:#0c5d7d;stroke-width:4.03585;stroke-opacity:0.99;"
     d="M 35.399 39.1321L 277.219 39.1321L 377.219 137.984L 377.219 548.198L 35.399 548.198L 35.399 39.1321z"
     id="path9"
     transform="matrix(0.130706,0,0,0.106067,4.37227,0.0872047)" />
  <path
     style="font-size:12;fill:#faffff;fill-opacity:0.98;stroke:#2ea6b9;stroke-width:8.96855;stroke-opacity:0.82;"
     d="M 23.9471 20.1241L 265.767 20.1241L 365.767 120.124L 365.767 535.103L 23.9471 535.103L 23.9471 20.1241z"
     id="path10"
     transform="matrix(0.130706,0,0,0.103782,4.37227,0.874713)" />
  <path
     style="font-size:12;fill:url(#2);"
     d="M 276.767 133.124L 365.767 120.124L 265.767 20.1241"
     id="path15"
     transform="matrix(0.130706,0,0,0.103782,4.37227,0.874713)" />
  <path
     style="font-size:12;fill:url(#linearGradient89);stroke:#2ea6b9;stroke-width:6.72641;stroke-opacity:0.91;"
     d="M 265.767 120.124L 365.767 120.124L 265.767 20.1241L 265.767 120.124"
     id="path20"
     transform="matrix(0.130706,0,0,0.103782,4.37227,0.874713)" />
  <g
     id="Layer_x0020_3"
     style="font-size:12;stroke:#000000;"
     transform="matrix(0.834373,0,0,0.913162,3.62222,4.83746)">
    <path
       style="stroke:none;fill-rule:evenodd;"
       d="M17.7,14.1c-2.1,0-3.8,1.7-3.8,3.8v25.3c0,2.1,1.7,3.8,3.8,3.8h26.9c2.1,0,3.8-1.7,3.8-3.8V17.9c0-2.1-1.7-3.8-3.8-3.8H17.7z"
       id="path1394" />
    <linearGradient
       id="aigrd5"
       gradientUnits="userSpaceOnUse"
       x1="23.252"
       y1="16.7476"
       x2="39.5013"
       y2="44.9753">
      <stop
         offset="0"
         style="stop-color:#D2D2D2"
         id="stop1396" />
      <stop
         offset="1"
         style="stop-color:#EDEDED"
         id="stop1397" />
    </linearGradient>
    <path
       style="fill:url(#aigrd5);stroke:none;fill-rule:evenodd;"
       d="M46.5,42.6c0,1.4-1.1,2.5-2.5,2.5H18.4c-1.4,0-2.5-1.1-2.5-2.5V18.5c0-1.4,1.1-2.5,2.5-2.5H44c1.4,0,2.5,1.1,2.5,2.5v24.1z"
       id="path1398" />
    <linearGradient
       id="aigrd6"
       gradientUnits="userSpaceOnUse"
       x1="31.458"
       y1="40.002"
       x2="31.4928"
       y2="33.2162">
      <stop
         offset="0"
         style="stop-color:#163069"
         id="stop1400" />
      <stop
         offset="1"
         style="stop-color:#83A1CB"
         id="stop1401" />
    </linearGradient>
    <path
       style="fill:url(#aigrd6);stroke:none;fill-rule:evenodd;"
       d="M44.3,39.3H18.7V21.9h25.6v17.4z"
       id="path1402" />
    <path
       style="fill:#FCFCFC;stroke:none;fill-rule:evenodd;"
       d="M16.9,19l-0.5,25.2C16,43.8,15.9,43,15.9,43l0-24.9c0,0,0-0.6,0.6-1.4C17,16,18,15.9,18,15.9l22.3,0l-21.4,1c-0.9,0-1.3,0.4-1.5,0.7c-0.2,0.2-0.5,0.8-0.5,1.3z"
       id="path1403" />
    <path
       style="fill:#BEBEBE;stroke:none;fill-rule:evenodd;"
       d="M45.5,42L46,17c0.4,0.4,0.5,1.2,0.5,1.2l0,24.7c0,0,0,0.6-0.6,1.4c-0.6,0.7-1.7,0.9-1.7,0.9l-22.1,0L43.5,44c0.9,0,1.3-0.4,1.5-0.6c0.2-0.2,0.4-0.8,0.5-1.3z"
       id="path1404" />
    <path
       style="fill:#BEBEBE;stroke:none;fill-rule:evenodd;"
       d="M44.3,21.9l0.6-0.6l-26.8-0.1l0,18.7l0.6-0.7V21.9h25.6z"
       id="path1405" />
    <path
       style="fill:#FFFFFF;stroke:none;fill-rule:evenodd;"
       d="M18.1,40l26.7-0.1V21.3l-0.6,0.6v17.4H18.7L18.1,40z"
       id="path1406" />
    <linearGradient
       id="aigrd7"
       gradientUnits="userSpaceOnUse"
       x1="31.5059"
       y1="35.0098"
       x2="31.5059"
       y2="19.699">
      <stop
         offset="0"
         style="stop-color:#D0D6E5"
         id="stop1408" />
      <stop
         offset="1"
         style="stop-color:#093A80"
         id="stop1409" />
    </linearGradient>
    <path
       style="fill:url(#aigrd7);stroke:none;fill-rule:evenodd;"
       d="M18.9,22.2h25.1v10.6H18.9V22.2z"
       id="path1410" />
    <g
       id="g1411">
      <g
         id="g1412">
        <path
           style="opacity:5.000000e-002;fill:#E8F52F;stroke:none;fill-rule:evenodd;"
           d="M28.4,26.9c0,2-1.6,3.6-3.6,3.6c-2,0-3.6-1.6-3.6-3.6s1.6-3.6,3.6-3.6c2,0,3.6,1.6,3.6,3.6z"
           id="path1413" />
        <path
           style="opacity:0.2083;fill:#ECF751;stroke:none;fill-rule:evenodd;"
           d="M28,26.9c0,1.8-1.4,3.2-3.2,3.2s-3.2-1.4-3.2-3.2c0-1.8,1.4-3.2,3.2-3.2s3.2,1.4,3.2,3.2z"
           id="path1414" />
        <path
           style="opacity:0.3667;fill:#F0F972;stroke:none;fill-rule:evenodd;"
           d="M27.7,26.9c0,1.6-1.3,2.9-2.9,2.9c-1.6,0-2.9-1.3-2.9-2.9s1.3-2.9,2.9-2.9c1.6,0,2.9,1.3,2.9,2.9z"
           id="path1415" />
        <path
           style="opacity:0.525;fill:#F4FA95;stroke:none;fill-rule:evenodd;"
           d="M27.4,26.9c0,1.4-1.1,2.5-2.5,2.5s-2.5-1.1-2.5-2.5s1.1-2.5,2.5-2.5s2.5,1.1,2.5,2.5z"
           id="path1416" />
        <path
           style="opacity:0.6833;fill:#F7FCB7;stroke:none;fill-rule:evenodd;"
           d="M27,26.9c0,1.2-1,2.2-2.2,2.2s-2.2-1-2.2-2.2c0-1.2,1-2.2,2.2-2.2s2.2,1,2.2,2.2z"
           id="path1417" />
        <path
           style="opacity:0.8417;fill:#FBFDDB;stroke:none;fill-rule:evenodd;"
           d="M26.7,26.9c0,1-0.8,1.9-1.9,1.9c-1,0-1.9-0.8-1.9-1.9s0.8-1.9,1.9-1.9c1,0,1.9,0.8,1.9,1.9z"
           id="path1418" />
        <path
           style="fill:#FFFFFF;stroke:none;fill-rule:evenodd;"
           d="M26.4,26.9c0,0.8-0.7,1.5-1.5,1.5s-1.5-0.7-1.5-1.5s0.7-1.5,1.5-1.5s1.5,0.7,1.5,1.5z"
           id="path1419" />
      </g>
    </g>
    <path
       style="opacity:0.3;stroke:none;fill-rule:evenodd;"
       d="M33.3,34.2h6.4l1.2,0.4h-2.1c0,0,2.1,0.2,3.1,1.4c1,1.2-1.3,2.7-1.3,2.7s0,0,0,0c-0.1-0.3-0.6-2.4-1.7-3.2c-0.8-0.7-1.6-0.9-1.6-0.9h-4l0-0.4z"
       id="path1420" />
    <path
       style="opacity:0.3;stroke:none;fill-rule:evenodd;"
       d="M37.5,34.7h-3.7l6.8,3.8l-3.1-3.8z"
       id="path1421" />
    <path
       style="fill:#515151;stroke:none;fill-rule:evenodd;"
       d="M33.3,34.2h6.4l1-0.7h-2.1c0,0,2-0.4,2.2-2.5c0.2-2.2-3-4.7-3-4.7s0,0,0,0.1c0.1,0.5,0.9,4.2,0.4,5.6c-0.3,1.3-1.1,1.5-1.1,1.5h-4l0.2,0.7z"
       id="path1422" />
    <path
       style="fill:#515151;stroke:none;fill-rule:evenodd;"
       d="M37.1,33.3h-3.7l4.4-6.6l-0.7,6.6z"
       id="path1423" />
    <path
       style="stroke:none;fill-rule:evenodd;"
       d="M18.7,21.9v17.4h25.6V21.9H18.7z M43.8,38.8H19.3V22.5h24.5v16.3z"
       id="path1424" />
  </g>
</svg>
