<?xml version="1.0" encoding="UTF-8" standalone="no"?>
<!DOCTYPE svg PUBLIC "-//W3C//DTD SVG 20010904//EN"
"http://www.w3.org/TR/2001/REC-SVG-20010904/DTD/svg10.dtd">
<!-- Created with Sodipodi ("http://www.sodipodi.com/") -->
<svg
   width="48pt"
   height="48pt"
   viewBox="0 0 147.062 144"
   xml:space="preserve"
   id="svg1"
   sodipodi:version="0.29"
   sodipodi:docname="/home/cschalle/SphereCrystal/SphereCrystal/icons/scalable/emblems/emblem-package.svg"
   sodipodi:docbase="/home/cschalle/SphereCrystal/SphereCrystal/icons/scalable/emblems/"
   xmlns="http://www.w3.org/2000/svg"
   xmlns:sodipodi="http://sodipodi.sourceforge.net/DTD/sodipodi-0.dtd"
   xmlns:xml="http://www.w3.org/XML/1998/namespace"
   xmlns:xlink="http://www.w3.org/1999/xlink">
  <defs
     id="defs86">
    <linearGradient
       id="aigrd10"
       gradientUnits="userSpaceOnUse"
       x1="128.8081"
       y1="122.9492"
       x2="87.5996"
       y2="81.7407">
      <stop
         offset="0"
         style="stop-color:#FFE692"
         id="stop58" />
      <stop
         offset="1"
         style="stop-color:#FFFFDC"
         id="stop59" />
    </linearGradient>
    <linearGradient
       id="aigrd11"
       gradientUnits="userSpaceOnUse"
       x1="131.4458"
       y1="125.5879"
       x2="86.3182"
       y2="80.4603">
      <stop
         offset="0"
         style="stop-color:#744426"
         id="stop62" />
      <stop
         offset="1"
         style="stop-color:#DE972B"
         id="stop63" />
    </linearGradient>
    <linearGradient
       id="aigrd12"
       gradientUnits="userSpaceOnUse"
       x1="99.0317"
       y1="140.7529"
       x2="78.3702"
       y2="72.3294">
      <stop
         offset="0"
         style="stop-color:#FFB82D"
         id="stop66" />
      <stop
         offset="1"
         style="stop-color:#FFFFDC"
         id="stop67" />
    </linearGradient>
    <linearGradient
       id="aigrd13"
       gradientUnits="userSpaceOnUse"
       x1="94.9136"
       y1="97.5918"
       x2="130.994"
       y2="119.1016">
      <stop
         offset="0"
         style="stop-color:#FFA221"
         id="stop70" />
      <stop
         offset="1"
         style="stop-color:#FFE192"
         id="stop71" />
    </linearGradient>
    <linearGradient
       id="aigrd14"
       gradientUnits="userSpaceOnUse"
       x1="107.0796"
       y1="108.5371"
       x2="107.0796"
       y2="72.6158">
      <stop
         offset="0"
         style="stop-color:#FFAC2D"
         id="stop74" />
      <stop
         offset="1"
         style="stop-color:#FFFFDC"
         id="stop75" />
    </linearGradient>
    <linearGradient
       id="aigrd15"
       gradientUnits="userSpaceOnUse"
       x1="124.061"
       y1="99.5693"
       x2="108.8262"
       y2="84.3345">
      <stop
         offset="0"
         style="stop-color:#744426"
         id="stop78" />
      <stop
         offset="1"
         style="stop-color:#DE972B"
         id="stop79" />
    </linearGradient>
    <linearGradient
       id="aigrd16"
       gradientUnits="userSpaceOnUse"
       x1="117.189"
       y1="78.1846"
       x2="106.5452"
       y2="75.3186">
      <stop
         offset="0"
         style="stop-color:#744426"
         id="stop82" />
      <stop
         offset="1"
         style="stop-color:#DE972B"
         id="stop83" />
    </linearGradient>
  </defs>
  <sodipodi:namedview
     id="base" />
  <path
     style="font-size:12;fill:none;fill-rule:evenodd;stroke-width:0;"
     d="M144,0H0v144h144V0z"
     id="path3"
     transform="matrix(1.06484,0,0,0.965181,-5.60238,1.37148)" />
  <path
     style="font-size:12;opacity:0.15;fill-rule:evenodd;stroke-width:0;"
     d="M78.913,117.494V83.188l35.418-19.521l28.376,25.76v34.106l-35.821,19.52l-27.973-25.558z"
     id="path56"
     transform="matrix(1.85503,0,0,1.62662,-125.837,-91.9259)" />
  <path
     style="font-size:12;fill:url(#aigrd10);fill-rule:evenodd;stroke-width:0;"
     d="M74.997,115.07V80.763l35.42-19.521l28.376,25.76v34.106l-35.821,19.521L74.997,115.07z"
     id="path60"
     transform="matrix(1.85503,0,0,1.62662,-125.837,-91.9259)" />
  <path
     style="font-size:12;fill:url(#aigrd11);fill-rule:evenodd;stroke-width:0;"
     d="M109.979,60.45L74.56,79.971c-0.288,0.158-0.468,0.463-0.468,0.792v34.308c0,0.256,0.106,0.497,0.295,0.67l27.973,25.558c0.285,0.261,0.704,0.312,1.043,0.126l35.821-19.521c0.292-0.156,0.474-0.463,0.474-0.794V87.002    c0-0.256-0.108-0.498-0.297-0.671l-28.376-25.759c-0.287-0.261-0.706-0.31-1.046-0.122z M110.288,62.35c0.915,0.83,27.026,24.535,27.6,25.053c0,0.773,0,32.133,0,33.169c-0.906,0.493-33.699,18.363-34.783,18.953c-0.912-0.833-26.633-24.335-27.2-24.853    c0-0.771,0-32.346,0-33.373c0.898-0.496,33.301-18.354,34.384-18.949z"
     id="path64"
     transform="matrix(1.85503,0,0,1.62662,-125.837,-91.9259)" />
  <path
     style="font-size:12;fill:url(#aigrd12);fill-rule:evenodd;stroke-width:0;"
     d="M103.027,107.859l0.021,29.861l-26.202-23.205l-0.024-32.234l24.896,22.047c0,0,0.836,0.614,1.081,1.66c0.247,1.049,0.229,1.871,0.229,1.871z"
     id="path68"
     transform="matrix(1.85503,0,0,1.62662,-125.837,-91.9259)" />
  <path
     style="font-size:12;fill:url(#aigrd13);fill-rule:evenodd;stroke-width:0;"
     d="M104.307,108.17l-0.021,29.861l33.028-17.765l0.024-32.233l-31.677,16.604c0,0-0.866,0.614-1.12,1.661c-0.253,1.047-0.234,1.871-0.234,1.871z"
     id="path72"
     transform="matrix(1.85503,0,0,1.62662,-125.837,-91.9259)" />
  <path
     style="font-size:12;fill:url(#aigrd14);fill-rule:evenodd;stroke-width:0;"
     d="M110.18,63.139l26.453,24.314l-30.979,16.238c0,0-1.194,0.402-1.959,0.332c-0.765-0.071-1.698-0.844-1.698-0.844L77.526,81.267l32.654-18.128z"
     id="path76"
     transform="matrix(1.85503,0,0,1.62662,-125.837,-91.9259)" />
  <path
     style="font-size:12;opacity:0.8;fill:url(#aigrd15);fill-rule:evenodd;stroke-width:0;"
     d="M103.86,104.7l4.966-24.501l28.592,7.395l-27.874-1.732L103.86,104.7z"
     id="path80"
     transform="matrix(1.85503,0,0,1.62662,-125.837,-91.9259)" />
  <path
     style="font-size:12;opacity:0.7;fill:url(#aigrd16);fill-rule:evenodd;stroke-width:0;"
     d="M109.565,62.699l-0.739,17.5l-31.551,0.67l29.973-1.883l2.317-16.287z"
     id="path84"
     transform="matrix(1.85503,0,0,1.62662,-125.837,-91.9259)" />
</svg>
