<?xml version="1.0" encoding="UTF-8" standalone="no"?>
<!DOCTYPE svg PUBLIC "-//W3C//DTD SVG 20010904//EN"
"http://www.w3.org/TR/2001/REC-SVG-20010904/DTD/svg10.dtd">
<!-- Created with Sodipodi ("http://www.sodipodi.com/") -->
<svg
   width="48pt"
   height="48pt"
   id="svg1"
   sodipodi:version="0.32pre"
   sodipodi:docname="/home/cschalle/spherecrystal/SphereCrystal/icons/scalable/mimetypes/gnome-mime-application-msword.svg"
   sodipodi:docbase="/home/cschalle/spherecrystal/SphereCrystal/icons/scalable/mimetypes/"
   xmlns="http://www.w3.org/2000/svg"
   xmlns:sodipodi="http://sodipodi.sourceforge.net/DTD/sodipodi-0.dtd"
   xmlns:xlink="http://www.w3.org/1999/xlink">
  <defs
     id="defs22">
    <linearGradient
       id="linearGradient168">
      <stop
         offset="0.000000"
         style="stop-color:#cdffff;stop-opacity:1;"
         id="stop169" />
      <stop
         offset="1.000000"
         style="stop-color:#0c5d7d;stop-opacity:0.905882;"
         id="stop170" />
    </linearGradient>
    <linearGradient
       id="linearGradient90">
      <stop
         offset="0.000000"
         style="stop-color:#cdffff;stop-opacity:1;"
         id="stop91" />
      <stop
         offset="1.000000"
         style="stop-color:#006b97;stop-opacity:0.905882;"
         id="stop92" />
    </linearGradient>
    <linearGradient
       id="linearGradient67">
      <stop
         offset="0.000000"
         style="stop-color:#d7ffff;stop-opacity:0.898039;"
         id="stop70" />
      <stop
         offset="1.000000"
         style="stop-color:#2ea6b9;stop-opacity:0.952941;"
         id="stop69" />
    </linearGradient>
    <linearGradient
       id="linearGradient57">
      <stop
         offset="0.000000"
         style="stop-color:#ffffff;stop-opacity:1;"
         id="stop59" />
      <stop
         offset="1.000000"
         style="stop-color:#797979;stop-opacity:1;"
         id="stop58" />
    </linearGradient>
    <defs
       id="defs4">
      <radialGradient
         id="1"
         cx="869.603027"
         cy="1973.579956"
         r="2106.649902"
         fx="869.603027"
         fy="1973.579956"
         gradientUnits="userSpaceOnUse"
         xlink:href="#linearGradient67" />
    </defs>
    <defs
       id="defs11">
      <linearGradient
         id="2"
         x1="255.848"
         y1="119.147"
         x2="375.686"
         y2="34.1009"
         gradientUnits="userSpaceOnUse">
        <stop
           offset="0"
           style="stop-color:#ffffff"
           id="stop13" />
        <stop
           offset="1"
           style="stop-color:#000000"
           id="stop14" />
      </linearGradient>
    </defs>
    <defs
       id="defs16">
      <linearGradient
         id="3"
         x1="275.053009"
         y1="109.384003"
         x2="356.480988"
         y2="30.864300"
         gradientUnits="userSpaceOnUse"
         xlink:href="#linearGradient57" />
    </defs>
    <radialGradient
       cx="3.03981e-14"
       cy="1.05578e-10"
       r="0.773346"
       fx="3.03981e-14"
       fy="1.05578e-10"
       xlink:href="#linearGradient168"
       id="radialGradient88"
       gradientUnits="objectBoundingBox"
       gradientTransform="matrix(0.945877,0,0,1.05722,0.264368,0.249996)"
       spreadMethod="pad" />
    <linearGradient
       x1="2.69643"
       y1="1.14655"
       x2="3.85147"
       y2="0.623116"
       xlink:href="#linearGradient67"
       id="linearGradient89"
       gradientUnits="objectBoundingBox"
       gradientTransform="translate(-2.65767,-0.201241)"
       spreadMethod="pad" />
  </defs>
  <sodipodi:namedview
     id="base" />
  <path
     style="font-size:12;fill:url(#radialGradient88);stroke:#0c5d7d;stroke-opacity:0.99;stroke-width:4.03585;"
     d="M 35.399 39.1321L 277.219 39.1321L 377.219 137.984L 377.219 548.198L 35.399 548.198L 35.399 39.1321z"
     id="path9"
     transform="matrix(0.130706,0,0,0.106067,4.37227,0.0872047)" />
  <path
     style="font-size:12;fill:#faffff;fill-opacity:0.98;stroke:#2ea6b9;stroke-width:8.96855;stroke-opacity:0.82;"
     d="M 23.9471 20.1241L 265.767 20.1241L 365.767 120.124L 365.767 535.103L 23.9471 535.103L 23.9471 20.1241z"
     id="path10"
     transform="matrix(0.130706,0,0,0.103782,4.37227,0.874713)" />
  <path
     style="font-size:12;fill:url(#2);"
     d="M 276.767 133.124L 365.767 120.124L 265.767 20.1241"
     id="path15"
     transform="matrix(0.130706,0,0,0.103782,4.37227,0.874713)" />
  <path
     style="font-size:12;fill:url(#linearGradient89);stroke:#2ea6b9;stroke-width:6.72641;stroke-opacity:0.91;"
     d="M 265.767 120.124L 365.767 120.124L 265.767 20.1241L 265.767 120.124"
     id="path20"
     transform="matrix(0.130706,0,0,0.103782,4.37227,0.874713)" />
  <g
     id="Layer_x0020_4"
     style="fill-rule:nonzero;clip-rule:nonzero;stroke:#000000;stroke-miterlimit:4;"
     transform="matrix(1.40816,0,0,1.46259,-5.67347,-5.28979)">
    <linearGradient
       id="aigrd5"
       gradientUnits="userSpaceOnUse"
       x1="18.625"
       y1="26.3604"
       x2="18.6395"
       y2="23.5268">
      <stop
         offset="0"
         style="stop-color:#163069"
         id="stop1095" />
      <stop
         offset="1"
         style="stop-color:#83A1CB"
         id="stop1096" />
    </linearGradient>
    <path
       style="fill:url(#aigrd5);stroke:none;fill-rule:evenodd;"
       d="M23.4,26.1h-9.5v-7.3h9.5v7.3z"
       id="path1097" />
    <linearGradient
       id="aigrd6"
       gradientUnits="userSpaceOnUse"
       x1="18.6455"
       y1="24.2773"
       x2="18.6455"
       y2="17.8771">
      <stop
         offset="0"
         style="stop-color:#D0D6E5"
         id="stop1099" />
      <stop
         offset="1"
         style="stop-color:#093A80"
         id="stop1100" />
    </linearGradient>
    <path
       style="fill:url(#aigrd6);stroke:none;fill-rule:evenodd;"
       d="M14,18.9h9.3v4.4H14v-4.4z"
       id="path1101" />
    <g
       id="g1102">
      <g
         id="g1103">
        <path
           style="opacity:5.000000e-002;fill:#E8F52F;stroke:none;fill-rule:evenodd;"
           d="M17.5,20.9c0,0.8-0.6,1.5-1.3,1.5s-1.3-0.7-1.3-1.5c0-0.8,0.6-1.5,1.3-1.5s1.3,0.7,1.3,1.5z"
           id="path1104" />
        <path
           style="opacity:0.2083;fill:#ECF751;stroke:none;fill-rule:evenodd;"
           d="M17.4,20.9c0,0.7-0.5,1.3-1.2,1.3S15,21.6,15,20.9c0-0.7,0.5-1.3,1.2-1.3s1.2,0.6,1.2,1.3z"
           id="path1105" />
        <path
           style="opacity:0.3667;fill:#F0F972;stroke:none;fill-rule:evenodd;"
           d="M17.2,20.9c0,0.7-0.5,1.2-1.1,1.2s-1.1-0.5-1.1-1.2c0-0.7,0.5-1.2,1.1-1.2s1.1,0.5,1.1,1.2z"
           id="path1106" />
        <path
           style="opacity:0.525;fill:#F4FA95;stroke:none;fill-rule:evenodd;"
           d="M17.1,20.9c0,0.6-0.4,1.1-0.9,1.1s-0.9-0.5-0.9-1.1c0-0.6,0.4-1.1,0.9-1.1s0.9,0.5,0.9,1.1z"
           id="path1107" />
        <path
           style="opacity:0.6833;fill:#F7FCB7;stroke:none;fill-rule:evenodd;"
           d="M17,20.9c0,0.5-0.4,0.9-0.8,0.9s-0.8-0.4-0.8-0.9c0-0.5,0.4-0.9,0.8-0.9s0.8,0.4,0.8,0.9z"
           id="path1108" />
        <path
           style="opacity:0.8417;fill:#FBFDDB;stroke:none;fill-rule:evenodd;"
           d="M16.9,20.9c0,0.4-0.3,0.8-0.7,0.8s-0.7-0.3-0.7-0.8c0-0.4,0.3-0.8,0.7-0.8s0.7,0.3,0.7,0.8z"
           id="path1109" />
        <path
           style="fill:#FFFFFF;stroke:none;fill-rule:evenodd;"
           d="M16.7,20.9c0,0.4-0.3,0.6-0.6,0.6s-0.6-0.3-0.6-0.6c0-0.4,0.3-0.6,0.6-0.6s0.6,0.3,0.6,0.6z"
           id="path1110" />
      </g>
    </g>
    <path
       style="opacity:0.3;stroke:none;fill-rule:evenodd;"
       d="M21.7,24.2h-1.5l2.8,1.6l-1.3-1.6z"
       id="path1111" />
    <path
       style="fill:#515151;stroke:none;fill-rule:evenodd;"
       d="M19.3,24h2.4l0.4-0.3h-0.8c0,0,0.7-0.2,0.8-1.1s-1.1-2-1.1-2s0,0,0,0c0,0.2,0.3,1.7,0.1,2.4c-0.1,0.5-0.4,0.6-0.4,0.6h-1.5l0.1,0.3z"
       id="path1112" />
    <path
       style="fill:#515151;stroke:none;fill-rule:evenodd;"
       d="M20.7,23.6h-1.4l1.6-2.8l-0.2,2.8z"
       id="path1113" />
    <path
       style="opacity:0.2;stroke:none;fill-rule:evenodd;"
       d="M34.9,38.2h-9.4v-28h9.4v28z"
       id="path1114" />
    <path
       style="opacity:0.2;stroke:none;fill-rule:evenodd;"
       d="M23.3,38.2h-9.4v-9.6h9.4v9.6z"
       id="path1115" />
    <path
       style="opacity:0.2;stroke:none;fill-rule:evenodd;"
       d="M23.3,16.6h-9.4v-6.4h9.4v6.4z"
       id="path1116" />
  </g>
</svg>
