<?xml version="1.0" encoding="UTF-8" standalone="no"?>
<!-- Created with Inkscape (http://www.inkscape.org/) -->
<svg id="svg1" height="48" xmlns:dc="http://purl.org/dc/elements/1.1/" width="48" version="1.0" xmlns:xlink="http://www.w3.org/1999/xlink" xmlns:cc="http://web.resource.org/cc/" xmlns:rdf="http://www.w3.org/1999/02/22-rdf-syntax-ns#" xmlns="http://www.w3.org/2000/svg" y="0" x="0">
 <metadata id="metadata162">
  <rdf:RDF>
   <cc:Work rdf:about="">
    <dc:format>image/svg+xml</dc:format>
    <dc:type rdf:resource="http://purl.org/dc/dcmitype/StillImage"/>
    <dc:title>Folder Open</dc:title>
    <dc:creator>
     <cc:Agent>
      <dc:title>Lapo Calamandrei</dc:title>
     </cc:Agent>
    </dc:creator>
    <dc:date/>
    <cc:license rdf:resource="http://creativecommons.org/licenses/GPL/2.0/"/>
    <dc:identifier/>
    <dc:subject>
     <rdf:Bag>
      <rdf:li>folder</rdf:li>
      <rdf:li>directory</rdf:li>
      <rdf:li>storage</rdf:li>
      <rdf:li>open</rdf:li>
     </rdf:Bag>
    </dc:subject>
   </cc:Work>
   <cc:License rdf:about="http://creativecommons.org/licenses/GPL/2.0/">
    <cc:permits rdf:resource="http://web.resource.org/cc/Reproduction"/>
    <cc:permits rdf:resource="http://web.resource.org/cc/Distribution"/>
    <cc:requires rdf:resource="http://web.resource.org/cc/Notice"/>
    <cc:permits rdf:resource="http://web.resource.org/cc/DerivativeWorks"/>
    <cc:requires rdf:resource="http://web.resource.org/cc/ShareAlike"/>
    <cc:requires rdf:resource="http://web.resource.org/cc/SourceCode"/>
   </cc:License>
  </rdf:RDF>
 </metadata>
 <defs id="defs3">
  <linearGradient id="linearGradient3998" y2="-73.592" gradientUnits="userSpaceOnUse" x2="20.625" gradientTransform="translate(-1,103)" y1="-89.501" x1="20.625">
   <stop id="stop3313" stop-color="#888a85" offset="0"/>
   <stop id="stop3315" stop-color="#555753" offset="1"/>
  </linearGradient>
  <linearGradient id="linearGradient4000" y2="30.009" gradientUnits="userSpaceOnUse" x2="7.875" y1="8.8349" x1="7.875">
   <stop id="stop3020" stop-color="#fff" offset="0"/>
   <stop id="stop3022" stop-color="#fff" stop-opacity="0" offset="1"/>
  </linearGradient>
  <linearGradient id="linearGradient4087" y2="-60.72" gradientUnits="userSpaceOnUse" x2="9.4176" gradientTransform="matrix(1 0 0 .9603 0 83.4)" y1="-44.499" x1="9.4176">
   <stop id="stop2896" stop-color="#39213f" offset="0"/>
   <stop id="stop2900" stop-color="#75507b" offset=".47619"/>
   <stop id="stop2898" stop-color="#5c3566" offset="1"/>
  </linearGradient>
  <linearGradient id="linearGradient4089" y2="-29.345" gradientUnits="userSpaceOnUse" x2="17.02" y1="-16.221" x1="17.02">
   <stop id="stop3102" stop-color="#fff" offset="0"/>
   <stop id="stop2071" stop-color="#fff" stop-opacity="0" offset="1"/>
  </linearGradient>
  <linearGradient id="linearGradient4106" y2="25.304" gradientUnits="userSpaceOnUse" x2="20.538" y1="34.941" x1="20.663">
   <stop id="stop4102" stop-color="#75507b" offset="0"/>
   <stop id="stop4104" stop-color="#5c3566" offset="1"/>
  </linearGradient>
  <radialGradient id="radialGradient3154" gradientUnits="userSpaceOnUse" cy="16.085" cx="10.805" gradientTransform="matrix(2.9092 .0082251 0 .34906 -19.808 16.492)" r="22.731">
   <stop id="stop3150" stop-color="#fff" offset="0"/>
   <stop id="stop3152" stop-color="#fff" stop-opacity="0" offset="1"/>
  </radialGradient>
 </defs>
 <g id="layer4" display="none">
  <rect id="rect2826" opacity=".7" height="105" width="307" y="-209" x="-68" fill="#2e3436"/>
 </g>
 <g id="layer2">
  <path id="path3944" stroke-linejoin="miter" d="m7.5 7.5c-0.9025 0-1.3319 0.3136-1.5 1.4559-1.882 9.9731-1.7842 18.078-1.5 28.179 0 0.749 0.6163 1.365 1.375 1.365h35.25c0.759 0 1.323-0.617 1.375-1.365 1-18.047-1-23.27-1-23.27 0-0.749-0.616-1.365-1.375-1.365h-17.625l-1-3.3971c-0.245-0.8327-0.598-1.6029-1.5-1.6029h-12.5z" stroke="#555753" stroke-linecap="round" stroke-miterlimit="4" stroke-dasharray="none" stroke-width="1" fill="url(#linearGradient3998)"/>
  <path id="path3946" opacity=".48627" stroke-linejoin="miter" d="m8.5 8.5c-0.3322 0-0.3469 0.0341-0.3438 0.0312 0.0032-0.0028-0.119 0.129-0.1874 0.5938 0.0001 0.0104 0.0001 0.0208 0 0.0312-1.8584 9.8478-1.7527 19.849-1.4688 29.938 0.0002 0.01 0.0002 0.021 0 0.031 0 0.208 0.1589 0.375 0.375 0.375h35.25c0.215 0 0.355-0.145 0.375-0.438 0.995-17.959-0.938-24.937-0.938-24.937-0.031-0.08-0.052-0.164-0.062-0.25 0-0.208-0.159-0.375-0.375-0.375h-17.625c-0.437-0.005-0.819-0.298-0.938-0.719l-1-3.406c-0.109-0.3716-0.252-0.6649-0.343-0.7812-0.092-0.1164-0.045-0.0938-0.219-0.0938h-12.5z" transform="translate(-1)" stroke="url(#linearGradient4000)" stroke-linecap="round" stroke-miterlimit="4" stroke-dasharray="none" stroke-width="1" fill="none"/>
  <g id="g3948" fill-rule="evenodd" transform="matrix(.21608 0 0 .26310 -1.8932 -11.242)" stroke-width="3pt">
   <path id="path3950" opacity=".047872" d="m32.707 164.36c-10.388 0-18.75 8.36-18.75 18.75s8.362 18.75 18.75 18.75h172.5c10.38 0 18.75-8.36 18.75-18.75s-8.37-18.75-18.75-18.75h-172.5z"/>
   <path id="path3952" opacity=".047872" d="m32.707 165.61c-9.695 0-17.5 7.81-17.5 17.5 0 9.7 7.805 17.5 17.5 17.5h172.5c9.69 0 17.5-7.8 17.5-17.5 0-9.69-7.81-17.5-17.5-17.5h-172.5z"/>
   <path id="path3954" opacity=".047872" d="m32.707 166.86c-9.003 0-16.25 7.25-16.25 16.25s7.247 16.25 16.25 16.25h172.5c9 0 16.25-7.25 16.25-16.25s-7.25-16.25-16.25-16.25h-172.5z"/>
   <path id="path3956" opacity=".047872" d="m32.707 168.11c-8.31 0-15 6.69-15 15s6.69 15 15 15h172.5c8.31 0 15-6.69 15-15s-6.69-15-15-15h-172.5z"/>
   <path id="path3958" opacity=".047872" d="m32.708 169.36c-7.618 0-13.75 6.13-13.75 13.75s6.132 13.75 13.75 13.75h172.5c7.61 0 13.75-6.13 13.75-13.75s-6.14-13.75-13.75-13.75h-172.5z"/>
   <path id="path3960" opacity=".047872" d="m32.707 170.61c-6.925 0-12.5 5.58-12.5 12.5 0 6.93 5.575 12.5 12.5 12.5h172.5c6.92 0 12.5-5.57 12.5-12.5 0-6.92-5.58-12.5-12.5-12.5h-172.5z"/>
   <path id="path3962" opacity=".047872" d="m32.707 171.86c-6.233 0-11.25 5.02-11.25 11.25s5.017 11.25 11.25 11.25h172.5c6.23 0 11.25-5.02 11.25-11.25s-5.02-11.25-11.25-11.25h-172.5z"/>
   <path id="path3964" opacity=".047872" d="m32.707 173.11c-5.54 0-10 4.46-10 10s4.46 10 10 10h172.5c5.54 0 10-4.46 10-10s-4.46-10-10-10h-172.5z"/>
  </g>
  <g id="g3980" stroke-linejoin="miter" stroke-linecap="round" transform="matrix(1 0 0 .56332 -1 15.996)">
   <path id="path3982" d="m2.6451 20.5h43.71c0.634 0 1.145 0.35 1.145 0.785-3 7.378-3 10.675-3 13.405 0 1.708-0.5 5.016-2.145 5.088h-35.71c-1.145-0.072-2.145-3.38-2.145-5.088-0.0625-2.73 0-6.027-3-13.405 0-0.435 0.5107-0.785 1.1451-0.785z" stroke="url(#linearGradient4087)" stroke-miterlimit="4" stroke-width="1.3324" fill="url(#linearGradient4106)"/>
   <path id="path3984" opacity=".15" d="m2.625-32.5c2.7348 7.129 2.875 7.094 2.875 13.632 0.0397 2.649 0.4188 3.281 1.2188 4.43h35.593 0.032c1.075-0.525 0.993-2.024 1.156-4.43 0-4.631 0.073-6.252 2.875-13.632-0.014-0.001-0.016 0-0.031 0h-43.688c-0.0149 0-0.0166-0.001-0.031 0z" transform="matrix(1 0 0 .90142 0 50.796)" stroke="url(#linearGradient4089)" stroke-miterlimit="4" stroke-width="1.4033" fill="none"/>
   <path id="path3986" opacity=".35" d="m2.5 22.196h44" stroke="url(#radialGradient3154)" stroke-width="1.3324px" fill="none"/>
  </g>
  <g id="use3206" transform="translate(-1,102)">
   <rect id="rect2420" stroke-linejoin="round" stroke-dasharray="none" rx="1.5" ry="1.5" height="3" width="10" stroke="#d3d7cf" stroke-linecap="round" stroke-miterlimit="4" y="-91.5" x="9.5" stroke-width="1" fill="#eeeeec"/>
   <g id="g2422" transform="translate(66)" fill="#2e3436">
    <rect id="rect2424" rx=".5" ry=".5" height="1" width="1" y="-90" x="-55"/>
    <rect id="rect2426" rx=".5" ry=".5" height="1" width="1" y="-90" x="-53"/>
    <rect id="rect2428" rx=".5" ry=".5" height="1" width="1" y="-90" x="-51"/>
    <rect id="rect2430" rx=".5" ry=".5" height="1" width="1" y="-90" x="-49"/>
   </g>
  </g>
 </g>
</svg>
