<?xml version="1.0" encoding="UTF-8" standalone="no"?>
<!-- Created with Inkscape (http://www.inkscape.org/) -->
<svg id="svg1" height="48" xmlns:dc="http://purl.org/dc/elements/1.1/" width="48" version="1.0" xmlns:xlink="http://www.w3.org/1999/xlink" xmlns:cc="http://web.resource.org/cc/" xmlns:rdf="http://www.w3.org/1999/02/22-rdf-syntax-ns#" xmlns="http://www.w3.org/2000/svg" y="0" x="0">
 <metadata id="metadata162">
  <rdf:RDF>
   <cc:Work rdf:about="">
    <dc:format>image/svg+xml</dc:format>
    <dc:type rdf:resource="http://purl.org/dc/dcmitype/StillImage"/>
    <dc:title>Folder Drag Accept</dc:title>
    <dc:creator>
     <cc:Agent>
      <dc:title>Lapo Calamandrei</dc:title>
     </cc:Agent>
    </dc:creator>
    <dc:date/>
    <cc:license rdf:resource="http://creativecommons.org/licenses/GPL/2.0/"/>
    <dc:identifier/>
    <dc:subject>
     <rdf:Bag>
      <rdf:li>folder</rdf:li>
      <rdf:li>directory</rdf:li>
      <rdf:li>storage</rdf:li>
      <rdf:li>drag</rdf:li>
     </rdf:Bag>
    </dc:subject>
   </cc:Work>
   <cc:License rdf:about="http://creativecommons.org/licenses/GPL/2.0/">
    <cc:permits rdf:resource="http://web.resource.org/cc/Reproduction"/>
    <cc:permits rdf:resource="http://web.resource.org/cc/Distribution"/>
    <cc:requires rdf:resource="http://web.resource.org/cc/Notice"/>
    <cc:permits rdf:resource="http://web.resource.org/cc/DerivativeWorks"/>
    <cc:requires rdf:resource="http://web.resource.org/cc/ShareAlike"/>
    <cc:requires rdf:resource="http://web.resource.org/cc/SourceCode"/>
   </cc:License>
  </rdf:RDF>
 </metadata>
 <defs id="defs3">
  <linearGradient id="linearGradient2193" y2="-73.592" gradientUnits="userSpaceOnUse" x2="20.625" gradientTransform="translate(-1,103)" y1="-89.501" x1="20.625">
   <stop id="stop3313" stop-color="#888a85" offset="0"/>
   <stop id="stop3315" stop-color="#555753" offset="1"/>
  </linearGradient>
  <linearGradient id="linearGradient2195" y2="33.135" gradientUnits="userSpaceOnUse" x2="7.875" y1="8.8349" x1="7.875">
   <stop id="stop3020" stop-color="#fff" offset="0"/>
   <stop id="stop3022" stop-color="#fff" stop-opacity="0" offset="1"/>
  </linearGradient>
  <linearGradient id="linearGradient2206" y2="33.542" gradientUnits="userSpaceOnUse" x2="27.115" gradientTransform="matrix(1 0 0 .36436 -1 24.012)" y1="41.217" x1="27.115">
   <stop id="stop4102" stop-color="#75507b" offset="0"/>
   <stop id="stop4104" stop-color="#5c3566" offset="1"/>
  </linearGradient>
  <linearGradient id="linearGradient2208" y2="-76.622" gradientUnits="userSpaceOnUse" x2="9.4176" gradientTransform="matrix(1 0 0 .3499 -1 54.4)" y1="-42.424" x1="9.4176">
   <stop id="stop2896" stop-color="#39213f" offset="0"/>
   <stop id="stop2900" stop-color="#75507b" offset=".47619"/>
   <stop id="stop2898" stop-color="#5c3566" offset="1"/>
  </linearGradient>
  <linearGradient id="linearGradient3112" y2="14.475" gradientUnits="userSpaceOnUse" x2="18" gradientTransform="translate(-1,18)" y1="16.298" x1="18">
   <stop id="stop3108" stop-color="#555753" offset="0"/>
   <stop id="stop3110" stop-color="#babdb6" offset="1"/>
  </linearGradient>
  <linearGradient id="linearGradient3141" y2="27.318" gradientUnits="userSpaceOnUse" x2="1.9445" gradientTransform="translate(-1,8)" y1="23" x1="1.9445">
   <stop id="stop3137" stop-color="#555753" offset="0"/>
   <stop id="stop3139" stop-color="#2e3436" offset="1"/>
  </linearGradient>
 </defs>
 <g id="layer2">
  <path id="path2151" stroke-linejoin="miter" d="m7.5 7.5c-0.9025 0-1.3319 0.3136-1.5 1.4559-1.882 9.9731-1.7842 18.078-1.5 28.179 0 0.749 0.6163 1.365 1.375 1.365h35.25c0.759 0 1.323-0.617 1.375-1.365 1-18.047-1-23.27-1-23.27 0-0.749-0.616-1.365-1.375-1.365h-17.625l-1-3.3971c-0.245-0.8327-0.598-1.6029-1.5-1.6029h-12.5z" stroke="#555753" stroke-linecap="round" stroke-miterlimit="4" stroke-dasharray="none" stroke-width="1" fill="url(#linearGradient2193)"/>
  <path id="path2153" opacity=".48627" stroke-linejoin="miter" d="m8.5 8.5c-0.3322 0-0.3469 0.0341-0.3438 0.0312 0.0032-0.0028-0.119 0.129-0.1874 0.5938 0.0001 0.0104 0.0001 0.0208 0 0.0312-1.8584 9.8478-1.7527 19.849-1.4688 29.938 0.0002 0.01 0.0002 0.021 0 0.031 0 0.208 0.1589 0.375 0.375 0.375h35.25c0.215 0 0.355-0.145 0.375-0.438 0.995-17.959-0.938-24.937-0.938-24.937-0.031-0.08-0.052-0.164-0.062-0.25 0-0.208-0.159-0.375-0.375-0.375h-17.625c-0.437-0.005-0.819-0.298-0.938-0.719l-1-3.406c-0.109-0.3716-0.252-0.6649-0.343-0.7812-0.092-0.1164-0.045-0.0938-0.219-0.0938h-12.5z" transform="translate(-1)" stroke="url(#linearGradient2195)" stroke-linecap="round" stroke-miterlimit="4" stroke-dasharray="none" stroke-width="1" fill="none"/>
  <g id="g2155" fill-rule="evenodd" transform="matrix(.21608 0 0 .26310 -1.8932 -11.242)" stroke-width="3pt">
   <path id="path2157" opacity=".047872" d="m32.707 164.36c-10.388 0-18.75 8.36-18.75 18.75s8.362 18.75 18.75 18.75h172.5c10.38 0 18.75-8.36 18.75-18.75s-8.37-18.75-18.75-18.75h-172.5z"/>
   <path id="path2159" opacity=".047872" d="m32.707 165.61c-9.695 0-17.5 7.81-17.5 17.5 0 9.7 7.805 17.5 17.5 17.5h172.5c9.69 0 17.5-7.8 17.5-17.5 0-9.69-7.81-17.5-17.5-17.5h-172.5z"/>
   <path id="path2161" opacity=".047872" d="m32.707 166.86c-9.003 0-16.25 7.25-16.25 16.25s7.247 16.25 16.25 16.25h172.5c9 0 16.25-7.25 16.25-16.25s-7.25-16.25-16.25-16.25h-172.5z"/>
   <path id="path2163" opacity=".047872" d="m32.707 168.11c-8.31 0-15 6.69-15 15s6.69 15 15 15h172.5c8.31 0 15-6.69 15-15s-6.69-15-15-15h-172.5z"/>
   <path id="path2165" opacity=".047872" d="m32.708 169.36c-7.618 0-13.75 6.13-13.75 13.75s6.132 13.75 13.75 13.75h172.5c7.61 0 13.75-6.13 13.75-13.75s-6.14-13.75-13.75-13.75h-172.5z"/>
   <path id="path2167" opacity=".047872" d="m32.707 170.61c-6.925 0-12.5 5.58-12.5 12.5 0 6.93 5.575 12.5 12.5 12.5h172.5c6.92 0 12.5-5.57 12.5-12.5 0-6.92-5.58-12.5-12.5-12.5h-172.5z"/>
   <path id="path2169" opacity=".047872" d="m32.707 171.86c-6.233 0-11.25 5.02-11.25 11.25s5.017 11.25 11.25 11.25h172.5c6.23 0 11.25-5.02 11.25-11.25s-5.02-11.25-11.25-11.25h-172.5z"/>
   <path id="path2171" opacity=".047872" d="m32.707 173.11c-5.54 0-10 4.46-10 10s4.46 10 10 10h172.5c5.54 0 10-4.46 10-10s-4.46-10-10-10h-172.5z"/>
  </g>
  <path id="path2187" stroke-linejoin="round" d="m2 31.5h43c0.072 0.01-0.5 2.5-1.5 4.93 0 0.259-0.5 2.049-2.145 2.076h-35.71c-1.145-0.027-2.145-1.726-2.145-2.076-1-2.43-1.6173-4.914-1.5-4.93z" stroke="url(#linearGradient2208)" stroke-linecap="round" stroke-miterlimit="4" stroke-dasharray="none" stroke-width="1" fill="url(#linearGradient2206)"/>
  <path id="path3121" opacity=".11373" stroke-linejoin="round" d="m4.2188 15.5c0.0286 0.107 0.0288 0.163 0.0624 0.281 0.2549 0.895 0.6745 2.111 1.1563 3.281 0.0343 0.091 0.0554 0.185 0.0625 0.282-0.0032-0.123 0.0014-0.019 0.0625 0.094 0.0777 0.143 0.1933 0.321 0.3437 0.5 0.301 0.356 0.6925 0.56 0.7813 0.562h35.656c0.464-0.007 0.662-0.194 0.875-0.5 0.106-0.153 0.202-0.336 0.25-0.469s0.031-0.358 0.031-0.093c-0.003-0.128 0.018-0.256 0.062-0.376 0.48-1.165 0.875-2.383 1.126-3.281 0.032-0.117 0.034-0.175 0.062-0.281h-40.531z" transform="translate(-1,17)" stroke="#fff" stroke-linecap="round" stroke-miterlimit="4" stroke-dasharray="none" stroke-width="1" fill="none"/>
  <path id="rect2216" stroke-linejoin="miter" d="m2.5 31.5h42c0.531 0 2 0.695 2 4h-46c0-3.359 1.499-4 2-4z" stroke-dashoffset="10" stroke="url(#linearGradient3141)" stroke-linecap="round" stroke-miterlimit="4" stroke-width="1" fill="url(#linearGradient3112)"/>
  <path id="path3131" opacity=".2" stroke-linejoin="round" d="m3.5 14.469c0.2899 0-0.6334 0.111-0.9062 2.062h43.812c-0.271-1.928-1.187-2.062-0.906-2.062h-42z" transform="translate(-1,18)" stroke-dashoffset="10" stroke="#fff" stroke-linecap="round" stroke-miterlimit="4" stroke-dasharray="none" stroke-width="1" fill="none"/>
  <g id="use3210" transform="translate(-1,102)">
   <rect id="rect2434" stroke-linejoin="round" stroke-dasharray="none" rx="1.5" ry="1.5" height="3" width="10" stroke="#d3d7cf" stroke-linecap="round" stroke-miterlimit="4" y="-91.5" x="9.5" stroke-width="1" fill="#eeeeec"/>
   <g id="g2436" transform="translate(66)" fill="#000">
    <rect id="rect2438" rx=".5" ry=".5" height="1" width="1" y="-89" x="-55"/>
    <rect id="rect2440" rx=".5" ry=".5" height="1" width="1" y="-89" x="-53"/>
    <rect id="rect2442" rx=".5" ry=".5" height="1" width="1" y="-89" x="-51"/>
    <rect id="rect2444" rx=".5" ry=".5" height="1" width="1" y="-89" x="-49"/>
   </g>
  </g>
 </g>
</svg>
