<?xml version="1.0" encoding="UTF-8" standalone="no"?>
<!-- Created with Inkscape (http://www.inkscape.org/) -->
<svg id="svg1" xmlns:rdf="http://www.w3.org/1999/02/22-rdf-syntax-ns#" xmlns="http://www.w3.org/2000/svg" height="48" width="48" version="1.0" y="0" x="0" xmlns:cc="http://web.resource.org/cc/" xmlns:xlink="http://www.w3.org/1999/xlink" xmlns:dc="http://purl.org/dc/elements/1.1/">
 <metadata id="metadata162">
  <rdf:RDF>
   <cc:Work rdf:about="">
    <dc:format>image/svg+xml</dc:format>
    <dc:type rdf:resource="http://purl.org/dc/dcmitype/StillImage"/>
    <dc:title>Folder Open</dc:title>
    <dc:creator>
     <cc:Agent>
      <dc:title>Lapo Calamandrei</dc:title>
     </cc:Agent>
    </dc:creator>
    <dc:date/>
    <cc:license rdf:resource="http://creativecommons.org/licenses/GPL/2.0/"/>
    <dc:identifier/>
    <dc:subject>
     <rdf:Bag>
      <rdf:li>folder</rdf:li>
      <rdf:li>directory</rdf:li>
      <rdf:li>storage</rdf:li>
      <rdf:li>open</rdf:li>
     </rdf:Bag>
    </dc:subject>
   </cc:Work>
   <cc:License rdf:about="http://creativecommons.org/licenses/GPL/2.0/">
    <cc:permits rdf:resource="http://web.resource.org/cc/Reproduction"/>
    <cc:permits rdf:resource="http://web.resource.org/cc/Distribution"/>
    <cc:requires rdf:resource="http://web.resource.org/cc/Notice"/>
    <cc:permits rdf:resource="http://web.resource.org/cc/DerivativeWorks"/>
    <cc:requires rdf:resource="http://web.resource.org/cc/ShareAlike"/>
    <cc:requires rdf:resource="http://web.resource.org/cc/SourceCode"/>
   </cc:License>
  </rdf:RDF>
 </metadata>
 <defs id="defs3">
  <linearGradient id="linearGradient2187" y2="-94.054" gradientUnits="userSpaceOnUse" x2="20.449" gradientTransform="translate(-1,103)" y1="-62.628" x1="28.324">
   <stop id="stop3313" stop-color="#ad7fa8" offset="0"/>
   <stop id="stop3315" stop-color="#75507b" offset="1"/>
  </linearGradient>
 </defs>
 <g id="layer4" display="none">
  <rect id="rect2826" opacity=".7" height="105" width="307" y="-209" x="-68" fill="#2e3436"/>
 </g>
 <g id="layer2">
  <g id="g2812" opacity=".6" stroke-linejoin="miter" stroke-linecap="round" stroke-dasharray="none" stroke-miterlimit="4" stroke-width="1">
   <path id="path3944" d="m7.5 7.5c-0.9025 0-1.3319 0.3265-1.5 1.4688-1.2525 6.6372-1.6289 12.441-1.6562 18.562h-2.6876c-0.6343 0-1.1562 0.224-1.1562 0.469 3 4.156 2.9375 5.993 3 7.531 0 0.768 0.63 2.093 1.4688 2.625 0.2422 0.212 0.5585 0.344 0.9062 0.344h35.25c0.229 0 0.44-0.057 0.625-0.156 1.314-0.316 1.75-1.938 1.75-2.813 0-1.538 0-3.375 3-7.531 0-0.245-0.522-0.469-1.156-0.469h-2.594c-0.029-10.287-1.25-13.656-1.25-13.656 0-0.749-0.616-1.375-1.375-1.375h-17.625l-1-3.4062c-0.245-0.8328-0.598-1.5938-1.5-1.5938h-12.5z" stroke="#5c3566" fill="url(#linearGradient2187)"/>
   <path id="path2193" opacity=".4" d="m7.5 8.5c-0.3307 0-0.3501 0.0372-0.3438 0.0312 0.0064-0.0059-0.088 0.1304-0.1562 0.5938-0.0102 0.0106-0.0206 0.0211-0.0312 0.0312-1.2397 6.5688-1.5979 12.292-1.625 18.375-0.0001 0.553-0.4478 1-1 1h-2.4063c0.95 1.479 1.8084 2.897 2.125 3.907 0.4082 1.301 0.4075 2.323 0.4375 3.062 0.0002 0.01 0.0002 0.021 0 0.031 0 0.11 0.1097 0.556 0.3125 0.938s0.4899 0.718 0.6875 0.843c0.044 0.028 0.0858 0.06 0.125 0.094 0.0719 0.063 0.1544 0.094 0.25 0.094h35.25c0.064 0 0.11-0.006 0.156-0.031 0.079-0.043 0.163-0.074 0.25-0.094 0.304-0.073 0.5-0.274 0.688-0.656s0.281-0.916 0.281-1.188c0-0.769 0.02-1.79 0.438-3.093 0.323-1.012 1.171-2.431 2.124-3.907h-2.312c-0.552 0-1-0.447-1-1-0.015-5.104-0.324-8.458-0.625-10.531s-0.563-2.781-0.563-2.781c-0.04-0.11-0.061-0.227-0.062-0.344 0-0.201-0.166-0.375-0.375-0.375h-17.625c-0.447 0.004-0.843-0.289-0.969-0.719l-1-3.406c-0.109-0.371-0.223-0.6673-0.312-0.7812-0.09-0.114-0.049-0.0938-0.219-0.0938h-12.5z" stroke="#fff" fill="none"/>
  </g>
 </g>
</svg>
